M48
INCH,LZ
;FILE_FORMAT=2:4
;TYPE=PLATED
;Layer: Drill PTH
;EasyEDA v6.4.25, 2021-09-29T14:29:20--7:00
;244c92b091364e338979e04f780342ec,1c607ed5ed934db7a0414c4b005609ca,10
;Gerber Generator version 0.2
;Holesize 1 = 0.0120 inch
T01C0.0120
;Holesize 2 = 0.0360 inch
T02C0.0360
;Holesize 3 = 0.0400 inch
T03C0.0400
;Holesize 4 = 0.0470 inch
T04C0.0470
;Holesize 5 = 0.0550 inch
T05C0.0550
%
G05
G90
T01
X009300Y-009900
X007050Y-005650
X012750Y-004850
X011700Y-006550
X009350Y-012700
X009350Y-005150
X008900Y-004800
X010100Y-007900
X006300Y-004000
X005000Y-004000
T02
X010250Y-002900
X010250Y-001900
X009250Y-002900
X009250Y-001900
X008250Y-002900
X008250Y-001900
X007250Y-002900
X007250Y-001900
X006250Y-002900
X006250Y-001900
T03
X002200Y-003300
X002200Y-004300
X002200Y-005300
X002200Y-006300
X015700Y-002800
X015700Y-006800
X003000Y-000750
X003000Y-001750
T04
X001196Y-011284
X001196Y-009316
X006904Y-011284
X006904Y-010300
X006904Y-009316
T05
X004227Y-012544G85X003676Y-012544
X004227Y-008056G85X003676Y-008056
M30
