G04 Layer: TopLayer*
G04 EasyEDA v6.4.25, 2021-09-29T14:29:20--7:00*
G04 244c92b091364e338979e04f780342ec,1c607ed5ed934db7a0414c4b005609ca,10*
G04 Gerber Generator version 0.2*
G04 Scale: 100 percent, Rotated: No, Reflected: No *
G04 Dimensions in inches *
G04 leading zeros omitted , absolute positions ,3 integer and 6 decimal *
%FSLAX36Y36*%
%MOIN*%

%ADD11C,0.0080*%
%ADD12C,0.0240*%
%ADD13C,0.0160*%
%ADD14R,0.0457X0.0571*%
%ADD15R,0.0787X0.0512*%
%ADD16C,0.0600*%
%ADD17C,0.0748*%
%ADD18C,0.0640*%
%ADD19C,0.0709*%
%ADD20C,0.0945*%

%LPD*%
G36*
X115120Y-1459800D02*
G01*
X106180Y-1459420D01*
X97579Y-1458320D01*
X89120Y-1456540D01*
X80820Y-1454060D01*
X72760Y-1450900D01*
X64980Y-1447080D01*
X57539Y-1442640D01*
X50500Y-1437580D01*
X43900Y-1431980D01*
X37800Y-1425840D01*
X32200Y-1419220D01*
X27180Y-1412180D01*
X22759Y-1404720D01*
X18980Y-1396940D01*
X15840Y-1388860D01*
X13380Y-1380560D01*
X11620Y-1372080D01*
X10560Y-1363480D01*
X10200Y-1354720D01*
X10200Y-115280D01*
X10580Y-106180D01*
X11680Y-97579D01*
X13460Y-89120D01*
X15940Y-80820D01*
X19100Y-72760D01*
X22919Y-64980D01*
X27360Y-57539D01*
X32420Y-50500D01*
X38020Y-43900D01*
X44160Y-37800D01*
X50780Y-32200D01*
X57820Y-27180D01*
X65279Y-22759D01*
X73060Y-18980D01*
X81140Y-15840D01*
X89440Y-13380D01*
X97920Y-11620D01*
X106519Y-10560D01*
X115280Y-10200D01*
X1534720Y-10200D01*
X1543820Y-10580D01*
X1552420Y-11680D01*
X1560880Y-13460D01*
X1569180Y-15940D01*
X1577240Y-19100D01*
X1585020Y-22919D01*
X1592460Y-27360D01*
X1599500Y-32420D01*
X1606100Y-38020D01*
X1612200Y-44160D01*
X1617800Y-50780D01*
X1622820Y-57820D01*
X1627240Y-65279D01*
X1631020Y-73060D01*
X1634160Y-81140D01*
X1636620Y-89440D01*
X1638380Y-97920D01*
X1639440Y-106519D01*
X1639800Y-115280D01*
X1639800Y-1354720D01*
X1639420Y-1363820D01*
X1638320Y-1372420D01*
X1636540Y-1380880D01*
X1634060Y-1389180D01*
X1630900Y-1397240D01*
X1627080Y-1405020D01*
X1622640Y-1412460D01*
X1617580Y-1419500D01*
X1611980Y-1426100D01*
X1605840Y-1432200D01*
X1599220Y-1437800D01*
X1592180Y-1442820D01*
X1584720Y-1447240D01*
X1576940Y-1451020D01*
X1568860Y-1454160D01*
X1560560Y-1456620D01*
X1552080Y-1458380D01*
X1543480Y-1459440D01*
X1534720Y-1459800D01*
G37*

%LPC*%
G36*
X1545000Y-1415200D02*
G01*
X1551060Y-1414820D01*
X1557020Y-1413740D01*
X1562800Y-1411940D01*
X1568320Y-1409440D01*
X1573520Y-1406300D01*
X1578280Y-1402560D01*
X1582560Y-1398280D01*
X1586300Y-1393520D01*
X1589440Y-1388320D01*
X1591940Y-1382800D01*
X1593740Y-1377020D01*
X1594820Y-1371060D01*
X1595200Y-1365000D01*
X1594820Y-1358940D01*
X1593740Y-1352980D01*
X1591940Y-1347200D01*
X1589440Y-1341680D01*
X1586300Y-1336480D01*
X1582560Y-1331720D01*
X1578280Y-1327440D01*
X1573520Y-1323700D01*
X1568320Y-1320560D01*
X1562800Y-1318060D01*
X1557020Y-1316260D01*
X1551060Y-1315180D01*
X1545000Y-1314800D01*
X1538940Y-1315180D01*
X1532980Y-1316260D01*
X1527200Y-1318060D01*
X1521680Y-1320560D01*
X1516480Y-1323700D01*
X1511720Y-1327440D01*
X1507440Y-1331720D01*
X1503700Y-1336480D01*
X1500560Y-1341680D01*
X1498060Y-1347200D01*
X1496260Y-1352980D01*
X1495180Y-1358940D01*
X1494800Y-1365000D01*
X1495180Y-1371060D01*
X1496260Y-1377020D01*
X1498060Y-1382800D01*
X1500560Y-1388320D01*
X1503700Y-1393520D01*
X1507440Y-1398280D01*
X1511720Y-1402560D01*
X1516480Y-1406300D01*
X1521680Y-1409440D01*
X1527200Y-1411940D01*
X1532980Y-1413740D01*
X1538940Y-1414820D01*
G37*
G36*
X105000Y-1415200D02*
G01*
X111060Y-1414820D01*
X117020Y-1413740D01*
X122800Y-1411940D01*
X128320Y-1409440D01*
X133520Y-1406300D01*
X138280Y-1402560D01*
X142560Y-1398280D01*
X146300Y-1393520D01*
X149440Y-1388320D01*
X151940Y-1382800D01*
X153740Y-1377020D01*
X154820Y-1371060D01*
X155200Y-1365000D01*
X154820Y-1358940D01*
X153740Y-1352980D01*
X151940Y-1347200D01*
X149440Y-1341680D01*
X146300Y-1336480D01*
X142560Y-1331720D01*
X138280Y-1327440D01*
X133520Y-1323700D01*
X128320Y-1320560D01*
X122800Y-1318060D01*
X117020Y-1316260D01*
X111060Y-1315180D01*
X105000Y-1314800D01*
X98940Y-1315180D01*
X92980Y-1316260D01*
X87200Y-1318060D01*
X81679Y-1320560D01*
X76480Y-1323700D01*
X71720Y-1327440D01*
X67440Y-1331720D01*
X63700Y-1336480D01*
X60560Y-1341680D01*
X58060Y-1347200D01*
X56260Y-1352980D01*
X55180Y-1358940D01*
X54800Y-1365000D01*
X55180Y-1371060D01*
X56260Y-1377020D01*
X58060Y-1382800D01*
X60560Y-1388320D01*
X63700Y-1393520D01*
X67440Y-1398280D01*
X71720Y-1402560D01*
X76480Y-1406300D01*
X81679Y-1409440D01*
X87200Y-1411940D01*
X92980Y-1413740D01*
X98940Y-1414820D01*
G37*
G36*
X762400Y-1353760D02*
G01*
X771100Y-1353760D01*
X771100Y-1331780D01*
X751979Y-1331780D01*
X751979Y-1343320D01*
X752260Y-1345820D01*
X753000Y-1347960D01*
X754220Y-1349900D01*
X755840Y-1351500D01*
X757760Y-1352720D01*
X759920Y-1353480D01*
G37*
G36*
X798920Y-1353760D02*
G01*
X807620Y-1353760D01*
X810100Y-1353480D01*
X812260Y-1352720D01*
X814180Y-1351500D01*
X815800Y-1349900D01*
X817020Y-1347960D01*
X817760Y-1345820D01*
X818040Y-1343320D01*
X818040Y-1331780D01*
X798920Y-1331780D01*
G37*
G36*
X842400Y-1353760D02*
G01*
X887620Y-1353760D01*
X890100Y-1353480D01*
X892260Y-1352720D01*
X894180Y-1351500D01*
X895800Y-1349900D01*
X897020Y-1347960D01*
X897760Y-1345820D01*
X898040Y-1343320D01*
X898040Y-1288200D01*
X898340Y-1286660D01*
X899220Y-1285380D01*
X900520Y-1284500D01*
X902039Y-1284199D01*
X914760Y-1284199D01*
X915819Y-1284340D01*
X916800Y-1284760D01*
X921940Y-1287820D01*
X923900Y-1289220D01*
X927420Y-1290840D01*
X931140Y-1291840D01*
X935000Y-1292180D01*
X938860Y-1291840D01*
X942580Y-1290840D01*
X946100Y-1289220D01*
X949260Y-1287000D01*
X952000Y-1284259D01*
X954220Y-1281100D01*
X955840Y-1277580D01*
X956840Y-1273860D01*
X957180Y-1270000D01*
X956840Y-1266140D01*
X955840Y-1262420D01*
X954220Y-1258900D01*
X952000Y-1255740D01*
X949260Y-1253000D01*
X946100Y-1250780D01*
X942580Y-1249160D01*
X938860Y-1248160D01*
X935000Y-1247820D01*
X931140Y-1248160D01*
X927420Y-1249160D01*
X923900Y-1250780D01*
X921680Y-1252340D01*
X916800Y-1255240D01*
X915819Y-1255660D01*
X914760Y-1255800D01*
X901640Y-1255800D01*
X900000Y-1255440D01*
X898660Y-1254460D01*
X897820Y-1253000D01*
X897680Y-1251320D01*
X898040Y-1248300D01*
X898040Y-1191680D01*
X897760Y-1189200D01*
X897000Y-1187040D01*
X895780Y-1185120D01*
X894180Y-1183500D01*
X892240Y-1182280D01*
X890100Y-1181540D01*
X887620Y-1181260D01*
X842380Y-1181260D01*
X839900Y-1181540D01*
X837760Y-1182280D01*
X835819Y-1183500D01*
X834220Y-1185120D01*
X833000Y-1187040D01*
X832240Y-1189200D01*
X831960Y-1191680D01*
X831960Y-1248320D01*
X832240Y-1250800D01*
X833000Y-1252960D01*
X834220Y-1254880D01*
X835819Y-1256500D01*
X837760Y-1257720D01*
X839900Y-1258460D01*
X842380Y-1258740D01*
X845980Y-1258740D01*
X847440Y-1259020D01*
X848680Y-1259800D01*
X849580Y-1260980D01*
X850420Y-1262940D01*
X850520Y-1263860D01*
X850480Y-1271020D01*
X850040Y-1272800D01*
X849400Y-1274080D01*
X848520Y-1275240D01*
X847280Y-1276000D01*
X845840Y-1276260D01*
X842400Y-1276260D01*
X839920Y-1276540D01*
X837760Y-1277300D01*
X835840Y-1278520D01*
X834220Y-1280120D01*
X833000Y-1282060D01*
X832260Y-1284199D01*
X831979Y-1286699D01*
X831979Y-1343320D01*
X832260Y-1345820D01*
X833000Y-1347960D01*
X834220Y-1349900D01*
X835840Y-1351500D01*
X837760Y-1352720D01*
X839920Y-1353480D01*
G37*
G36*
X367720Y-1311860D02*
G01*
X422600Y-1311860D01*
X429159Y-1311480D01*
X435500Y-1310400D01*
X441680Y-1308620D01*
X447640Y-1306160D01*
X453280Y-1303040D01*
X458540Y-1299319D01*
X463340Y-1295020D01*
X467620Y-1290220D01*
X471360Y-1284960D01*
X474460Y-1279340D01*
X476940Y-1273380D01*
X478720Y-1267200D01*
X479799Y-1260840D01*
X480160Y-1254420D01*
X479799Y-1247980D01*
X478720Y-1241620D01*
X476940Y-1235440D01*
X474460Y-1229480D01*
X471360Y-1223860D01*
X467620Y-1218600D01*
X463340Y-1213800D01*
X458540Y-1209500D01*
X453280Y-1205780D01*
X447640Y-1202660D01*
X441680Y-1200200D01*
X435500Y-1198420D01*
X429159Y-1197340D01*
X422600Y-1196960D01*
X367720Y-1196960D01*
X361180Y-1197340D01*
X354820Y-1198420D01*
X348640Y-1200200D01*
X342680Y-1202660D01*
X337040Y-1205780D01*
X331780Y-1209500D01*
X326980Y-1213800D01*
X322700Y-1218600D01*
X318960Y-1223860D01*
X315860Y-1229480D01*
X313380Y-1235440D01*
X311600Y-1241620D01*
X310520Y-1247980D01*
X310160Y-1254420D01*
X310520Y-1260840D01*
X311600Y-1267200D01*
X313380Y-1273380D01*
X315860Y-1279340D01*
X318960Y-1284960D01*
X322700Y-1290220D01*
X326980Y-1295020D01*
X331780Y-1299319D01*
X337040Y-1303040D01*
X342680Y-1306160D01*
X348640Y-1308620D01*
X354820Y-1310400D01*
X361180Y-1311480D01*
G37*
G36*
X798920Y-1298240D02*
G01*
X818040Y-1298240D01*
X818040Y-1286699D01*
X817760Y-1284199D01*
X817020Y-1282060D01*
X815800Y-1280120D01*
X814180Y-1278520D01*
X812260Y-1277300D01*
X810100Y-1276540D01*
X807620Y-1276260D01*
X798920Y-1276260D01*
G37*
G36*
X751979Y-1298240D02*
G01*
X771100Y-1298240D01*
X771100Y-1276260D01*
X762400Y-1276260D01*
X759920Y-1276540D01*
X757760Y-1277300D01*
X755840Y-1278520D01*
X754220Y-1280120D01*
X753000Y-1282060D01*
X752260Y-1284199D01*
X751979Y-1286699D01*
G37*
G36*
X762380Y-1258740D02*
G01*
X807620Y-1258740D01*
X810100Y-1258460D01*
X812240Y-1257720D01*
X814180Y-1256500D01*
X815780Y-1254880D01*
X817000Y-1252960D01*
X817760Y-1250800D01*
X818040Y-1248320D01*
X818040Y-1191680D01*
X817760Y-1189200D01*
X817000Y-1187040D01*
X815780Y-1185120D01*
X814180Y-1183500D01*
X812240Y-1182280D01*
X810100Y-1181540D01*
X807620Y-1181260D01*
X803780Y-1181260D01*
X802340Y-1180980D01*
X801080Y-1180220D01*
X800200Y-1179040D01*
X799300Y-1177020D01*
X799200Y-1176100D01*
X799200Y-1168900D01*
X799620Y-1167100D01*
X800200Y-1165960D01*
X801080Y-1164780D01*
X802340Y-1164020D01*
X803780Y-1163740D01*
X807620Y-1163740D01*
X810100Y-1163460D01*
X812240Y-1162720D01*
X814180Y-1161500D01*
X815780Y-1159880D01*
X817000Y-1157960D01*
X817760Y-1155800D01*
X818040Y-1153320D01*
X818040Y-1096680D01*
X817760Y-1094200D01*
X817000Y-1092040D01*
X815780Y-1090120D01*
X814180Y-1088500D01*
X812240Y-1087280D01*
X810100Y-1086540D01*
X807620Y-1086260D01*
X762380Y-1086260D01*
X759900Y-1086540D01*
X757760Y-1087280D01*
X755819Y-1088500D01*
X754220Y-1090120D01*
X753000Y-1092040D01*
X752240Y-1094200D01*
X751960Y-1096680D01*
X751960Y-1106220D01*
X751700Y-1107660D01*
X750920Y-1108920D01*
X749760Y-1109800D01*
X747740Y-1110700D01*
X746820Y-1110800D01*
X743180Y-1110800D01*
X741880Y-1110580D01*
X740699Y-1109940D01*
X717320Y-1091560D01*
X712420Y-1088440D01*
X707220Y-1086000D01*
X701780Y-1084220D01*
X696140Y-1083160D01*
X690440Y-1082800D01*
X684560Y-1083180D01*
X679080Y-1084220D01*
X673640Y-1086000D01*
X668439Y-1088440D01*
X663620Y-1091500D01*
X659200Y-1095160D01*
X655280Y-1099340D01*
X651900Y-1103980D01*
X649140Y-1109000D01*
X647039Y-1114320D01*
X645620Y-1119880D01*
X644900Y-1125560D01*
X644900Y-1131280D01*
X645620Y-1136960D01*
X647039Y-1142520D01*
X649140Y-1147840D01*
X651900Y-1152860D01*
X655280Y-1157500D01*
X659200Y-1161680D01*
X663620Y-1165340D01*
X668439Y-1168400D01*
X673640Y-1170840D01*
X679080Y-1172620D01*
X684720Y-1173680D01*
X690420Y-1174040D01*
X696140Y-1173680D01*
X701780Y-1172620D01*
X707220Y-1170840D01*
X712420Y-1168400D01*
X717240Y-1165340D01*
X721720Y-1161620D01*
X723120Y-1160260D01*
X742020Y-1140440D01*
X743340Y-1139520D01*
X744920Y-1139200D01*
X746820Y-1139200D01*
X748600Y-1139620D01*
X749760Y-1140200D01*
X750920Y-1141080D01*
X751700Y-1142340D01*
X751960Y-1143780D01*
X751960Y-1153320D01*
X752240Y-1155800D01*
X753000Y-1157960D01*
X754220Y-1159880D01*
X755819Y-1161500D01*
X757760Y-1162720D01*
X759900Y-1163460D01*
X762380Y-1163740D01*
X766220Y-1163740D01*
X767660Y-1164020D01*
X768920Y-1164780D01*
X769800Y-1165960D01*
X770699Y-1167980D01*
X770800Y-1168900D01*
X770800Y-1176100D01*
X770380Y-1177900D01*
X769800Y-1179040D01*
X768920Y-1180220D01*
X767660Y-1180980D01*
X766220Y-1181260D01*
X762380Y-1181260D01*
X759900Y-1181540D01*
X757760Y-1182280D01*
X755819Y-1183500D01*
X754220Y-1185120D01*
X753000Y-1187040D01*
X752240Y-1189200D01*
X751960Y-1191680D01*
X751960Y-1248320D01*
X752240Y-1250800D01*
X753000Y-1252960D01*
X754220Y-1254880D01*
X755819Y-1256500D01*
X757760Y-1257720D01*
X759900Y-1258460D01*
G37*
G36*
X119580Y-1174040D02*
G01*
X125280Y-1173680D01*
X130920Y-1172620D01*
X136360Y-1170840D01*
X141560Y-1168400D01*
X146380Y-1165340D01*
X150040Y-1162380D01*
X170620Y-1143660D01*
X171860Y-1142880D01*
X173299Y-1142620D01*
X281380Y-1142620D01*
X284520Y-1142280D01*
X287340Y-1141380D01*
X289960Y-1139860D01*
X291740Y-1138340D01*
X654720Y-775380D01*
X656000Y-774500D01*
X657540Y-774200D01*
X779800Y-774200D01*
X782940Y-773860D01*
X785759Y-772960D01*
X788379Y-771440D01*
X790160Y-769920D01*
X844900Y-715180D01*
X846900Y-712720D01*
X848240Y-710080D01*
X849020Y-707159D01*
X849300Y-702980D01*
X850200Y-700960D01*
X851080Y-699780D01*
X852340Y-699020D01*
X853780Y-698740D01*
X857620Y-698740D01*
X860100Y-698460D01*
X862240Y-697720D01*
X864180Y-696500D01*
X865780Y-694880D01*
X867000Y-692960D01*
X867760Y-690800D01*
X868040Y-688319D01*
X868040Y-631680D01*
X867760Y-629200D01*
X867000Y-627040D01*
X865780Y-625120D01*
X864180Y-623500D01*
X862240Y-622280D01*
X860100Y-621540D01*
X857620Y-621260D01*
X853780Y-621260D01*
X852340Y-620980D01*
X851080Y-620220D01*
X850200Y-619040D01*
X849300Y-617020D01*
X849200Y-616100D01*
X849200Y-608900D01*
X849620Y-607100D01*
X850200Y-605960D01*
X851080Y-604780D01*
X852340Y-604020D01*
X853780Y-603740D01*
X857620Y-603740D01*
X860100Y-603460D01*
X862240Y-602720D01*
X864180Y-601500D01*
X865780Y-599880D01*
X867000Y-597960D01*
X867760Y-595800D01*
X868040Y-593320D01*
X868040Y-536680D01*
X867760Y-534200D01*
X867000Y-532040D01*
X865780Y-530120D01*
X864180Y-528500D01*
X862240Y-527280D01*
X860100Y-526540D01*
X857620Y-526260D01*
X812380Y-526260D01*
X809900Y-526540D01*
X807760Y-527280D01*
X805819Y-528500D01*
X804220Y-530120D01*
X803000Y-532040D01*
X802240Y-534200D01*
X801960Y-536680D01*
X801960Y-593320D01*
X802240Y-595800D01*
X803000Y-597960D01*
X804220Y-599880D01*
X805819Y-601500D01*
X807760Y-602720D01*
X809900Y-603460D01*
X812380Y-603740D01*
X816220Y-603740D01*
X817660Y-604020D01*
X818920Y-604780D01*
X819800Y-605960D01*
X820699Y-607980D01*
X820800Y-608900D01*
X820800Y-616100D01*
X820380Y-617900D01*
X819800Y-619040D01*
X818920Y-620220D01*
X817660Y-620980D01*
X816220Y-621260D01*
X812380Y-621260D01*
X809900Y-621540D01*
X807760Y-622280D01*
X805819Y-623500D01*
X804220Y-625120D01*
X803000Y-627040D01*
X802240Y-629200D01*
X801960Y-631680D01*
X801960Y-688319D01*
X802240Y-690800D01*
X803000Y-692960D01*
X804220Y-694880D01*
X805819Y-696500D01*
X807760Y-697720D01*
X809900Y-698460D01*
X812039Y-698700D01*
X813460Y-699140D01*
X814620Y-700060D01*
X815360Y-701360D01*
X815580Y-702820D01*
X815240Y-704280D01*
X814419Y-705500D01*
X775280Y-744620D01*
X774000Y-745500D01*
X772460Y-745800D01*
X650200Y-745800D01*
X647060Y-746140D01*
X644240Y-747039D01*
X641620Y-748560D01*
X639840Y-750080D01*
X276860Y-1113040D01*
X275580Y-1113920D01*
X274040Y-1114220D01*
X173299Y-1114220D01*
X171860Y-1113960D01*
X170620Y-1113180D01*
X150000Y-1094420D01*
X146380Y-1091500D01*
X141560Y-1088440D01*
X136360Y-1086000D01*
X130920Y-1084220D01*
X125280Y-1083160D01*
X119580Y-1082800D01*
X113859Y-1083160D01*
X108219Y-1084220D01*
X102780Y-1086000D01*
X97579Y-1088440D01*
X92760Y-1091500D01*
X88340Y-1095160D01*
X84420Y-1099340D01*
X81039Y-1103980D01*
X78280Y-1109000D01*
X76180Y-1114320D01*
X74760Y-1119880D01*
X74040Y-1125560D01*
X74040Y-1131280D01*
X74760Y-1136960D01*
X76180Y-1142520D01*
X78280Y-1147840D01*
X81039Y-1152860D01*
X84420Y-1157500D01*
X88340Y-1161680D01*
X92760Y-1165340D01*
X97579Y-1168400D01*
X102780Y-1170840D01*
X108219Y-1172620D01*
X113859Y-1173680D01*
G37*
G36*
X1511440Y-1165800D02*
G01*
X1528400Y-1165800D01*
X1528400Y-1145300D01*
X1501020Y-1145300D01*
X1501020Y-1155360D01*
X1501300Y-1157860D01*
X1502060Y-1160000D01*
X1503260Y-1161940D01*
X1504880Y-1163540D01*
X1506800Y-1164760D01*
X1508959Y-1165520D01*
G37*
G36*
X1021600Y-1165800D02*
G01*
X1038560Y-1165800D01*
X1041040Y-1165520D01*
X1043199Y-1164760D01*
X1045120Y-1163540D01*
X1046740Y-1161940D01*
X1047940Y-1160000D01*
X1048700Y-1157860D01*
X1048980Y-1155360D01*
X1048980Y-1145300D01*
X1021600Y-1145300D01*
G37*
G36*
X1572780Y-1165800D02*
G01*
X1589740Y-1165800D01*
X1592220Y-1165520D01*
X1594379Y-1164760D01*
X1596300Y-1163540D01*
X1597920Y-1161940D01*
X1599120Y-1160000D01*
X1599880Y-1157860D01*
X1600160Y-1155360D01*
X1600160Y-1145300D01*
X1572780Y-1145300D01*
G37*
G36*
X960260Y-1165800D02*
G01*
X977220Y-1165800D01*
X977220Y-1145300D01*
X949840Y-1145300D01*
X949840Y-1155360D01*
X950120Y-1157860D01*
X950879Y-1160000D01*
X952080Y-1161940D01*
X953700Y-1163540D01*
X955620Y-1164760D01*
X957780Y-1165520D01*
G37*
G36*
X842380Y-1163740D02*
G01*
X887620Y-1163740D01*
X890100Y-1163460D01*
X892240Y-1162720D01*
X894180Y-1161500D01*
X895780Y-1159880D01*
X897000Y-1157960D01*
X897760Y-1155800D01*
X898040Y-1153320D01*
X898040Y-1096680D01*
X897740Y-1094040D01*
X893120Y-1078660D01*
X892960Y-1077500D01*
X893120Y-1076340D01*
X897560Y-1061640D01*
X897980Y-1059700D01*
X898940Y-1052260D01*
X899539Y-1050620D01*
X900800Y-1049380D01*
X902740Y-1048160D01*
X904260Y-1047000D01*
X905759Y-1045639D01*
X945639Y-1005759D01*
X947000Y-1004260D01*
X948180Y-1002740D01*
X949220Y-1001100D01*
X950120Y-999380D01*
X950860Y-997600D01*
X951440Y-995740D01*
X951860Y-993860D01*
X952120Y-991940D01*
X952200Y-990000D01*
X952120Y-988060D01*
X951860Y-986140D01*
X951440Y-984260D01*
X950860Y-982400D01*
X950120Y-980620D01*
X949220Y-978900D01*
X948180Y-977260D01*
X947000Y-975740D01*
X945699Y-974300D01*
X944260Y-973000D01*
X942740Y-971820D01*
X941100Y-970780D01*
X939380Y-969880D01*
X937600Y-969140D01*
X935740Y-968560D01*
X933860Y-968139D01*
X931940Y-967880D01*
X930000Y-967800D01*
X928060Y-967880D01*
X926140Y-968139D01*
X924260Y-968560D01*
X922400Y-969140D01*
X920620Y-969880D01*
X918900Y-970780D01*
X917260Y-971820D01*
X915740Y-973000D01*
X914240Y-974360D01*
X897000Y-991600D01*
X895759Y-992440D01*
X894280Y-992780D01*
X892800Y-992540D01*
X890080Y-991540D01*
X887620Y-991260D01*
X842380Y-991260D01*
X839900Y-991540D01*
X837760Y-992280D01*
X835819Y-993500D01*
X834220Y-995120D01*
X833000Y-997039D01*
X832240Y-999200D01*
X831960Y-1001680D01*
X831960Y-1058320D01*
X832260Y-1060960D01*
X836880Y-1076340D01*
X837039Y-1077500D01*
X836880Y-1078660D01*
X832260Y-1094040D01*
X831960Y-1096700D01*
X831960Y-1153320D01*
X832240Y-1155800D01*
X833000Y-1157960D01*
X834220Y-1159880D01*
X835819Y-1161500D01*
X837760Y-1162720D01*
X839900Y-1163460D01*
G37*
G36*
X949840Y-1114700D02*
G01*
X977220Y-1114700D01*
X977220Y-1094200D01*
X960260Y-1094200D01*
X957780Y-1094480D01*
X955620Y-1095240D01*
X953700Y-1096460D01*
X952080Y-1098060D01*
X950879Y-1100000D01*
X950120Y-1102140D01*
X949840Y-1104640D01*
G37*
G36*
X1501020Y-1114700D02*
G01*
X1528400Y-1114700D01*
X1528400Y-1094200D01*
X1511440Y-1094200D01*
X1508959Y-1094480D01*
X1506800Y-1095240D01*
X1504880Y-1096460D01*
X1503260Y-1098060D01*
X1502060Y-1100000D01*
X1501300Y-1102140D01*
X1501020Y-1104640D01*
G37*
G36*
X1021600Y-1114700D02*
G01*
X1048980Y-1114700D01*
X1048980Y-1104640D01*
X1048700Y-1102140D01*
X1047940Y-1100000D01*
X1046740Y-1098060D01*
X1045120Y-1096460D01*
X1043199Y-1095240D01*
X1041040Y-1094480D01*
X1038560Y-1094200D01*
X1021600Y-1094200D01*
G37*
G36*
X1572780Y-1114700D02*
G01*
X1600160Y-1114700D01*
X1600160Y-1104640D01*
X1599880Y-1102140D01*
X1599120Y-1100000D01*
X1597920Y-1098060D01*
X1596300Y-1096460D01*
X1594379Y-1095240D01*
X1592220Y-1094480D01*
X1589740Y-1094200D01*
X1572780Y-1094200D01*
G37*
G36*
X710639Y-1070820D02*
G01*
X712420Y-1069980D01*
X717240Y-1066920D01*
X721660Y-1063260D01*
X725580Y-1059080D01*
X728960Y-1054440D01*
X731280Y-1050220D01*
X710639Y-1050220D01*
G37*
G36*
X670220Y-1070820D02*
G01*
X670220Y-1050220D01*
X649580Y-1050220D01*
X651900Y-1054440D01*
X655280Y-1059080D01*
X659200Y-1063260D01*
X663620Y-1066920D01*
X668439Y-1069980D01*
G37*
G36*
X762380Y-1068740D02*
G01*
X807620Y-1068740D01*
X810100Y-1068460D01*
X812240Y-1067720D01*
X814180Y-1066500D01*
X815780Y-1064880D01*
X817000Y-1062960D01*
X817760Y-1060800D01*
X818040Y-1058320D01*
X818040Y-1001680D01*
X817760Y-999200D01*
X817000Y-997039D01*
X815780Y-995120D01*
X814180Y-993500D01*
X812240Y-992280D01*
X810100Y-991540D01*
X807620Y-991260D01*
X803780Y-991260D01*
X802340Y-990980D01*
X801080Y-990220D01*
X800200Y-989040D01*
X799300Y-987020D01*
X799200Y-986100D01*
X799200Y-978900D01*
X799620Y-977099D01*
X800200Y-975960D01*
X801080Y-974780D01*
X802340Y-974020D01*
X803780Y-973740D01*
X807620Y-973740D01*
X810100Y-973460D01*
X812240Y-972720D01*
X814180Y-971500D01*
X815780Y-969880D01*
X817000Y-967960D01*
X817760Y-965800D01*
X818040Y-963319D01*
X818040Y-906680D01*
X817760Y-904200D01*
X817000Y-902039D01*
X815780Y-900120D01*
X814180Y-898500D01*
X812240Y-897280D01*
X810100Y-896540D01*
X807620Y-896260D01*
X762380Y-896260D01*
X759900Y-896540D01*
X757760Y-897280D01*
X755819Y-898500D01*
X754220Y-900120D01*
X753000Y-902039D01*
X752240Y-904200D01*
X751960Y-906680D01*
X751960Y-916220D01*
X751700Y-917660D01*
X750920Y-918920D01*
X749760Y-919800D01*
X747740Y-920699D01*
X746820Y-920800D01*
X744920Y-920800D01*
X743340Y-920480D01*
X742020Y-919560D01*
X723120Y-899740D01*
X721720Y-898360D01*
X717240Y-894659D01*
X712420Y-891580D01*
X707220Y-889140D01*
X701780Y-887380D01*
X696140Y-886300D01*
X690420Y-885939D01*
X684720Y-886300D01*
X679080Y-887380D01*
X673640Y-889140D01*
X668439Y-891580D01*
X663620Y-894659D01*
X659200Y-898319D01*
X655280Y-902480D01*
X651900Y-907120D01*
X649140Y-912140D01*
X647039Y-917480D01*
X645620Y-923020D01*
X644900Y-928700D01*
X644900Y-934440D01*
X645620Y-940120D01*
X647039Y-945660D01*
X649140Y-951000D01*
X651900Y-956020D01*
X655280Y-960660D01*
X659200Y-964820D01*
X663620Y-968480D01*
X668439Y-971560D01*
X673640Y-974000D01*
X679080Y-975759D01*
X684720Y-976840D01*
X690420Y-977200D01*
X696280Y-976800D01*
X701780Y-975759D01*
X707220Y-974000D01*
X712420Y-971560D01*
X717320Y-968439D01*
X740699Y-950060D01*
X741880Y-949419D01*
X743180Y-949200D01*
X746820Y-949200D01*
X748600Y-949620D01*
X749760Y-950200D01*
X750920Y-951080D01*
X751700Y-952340D01*
X751960Y-953780D01*
X751960Y-963319D01*
X752240Y-965800D01*
X753000Y-967960D01*
X754220Y-969880D01*
X755819Y-971500D01*
X757760Y-972720D01*
X759900Y-973460D01*
X762380Y-973740D01*
X766220Y-973740D01*
X767660Y-974020D01*
X768920Y-974780D01*
X769800Y-975960D01*
X770699Y-977980D01*
X770800Y-978900D01*
X770800Y-986100D01*
X770380Y-987900D01*
X769800Y-989040D01*
X768920Y-990220D01*
X767660Y-990980D01*
X766220Y-991260D01*
X762380Y-991260D01*
X759900Y-991540D01*
X757760Y-992280D01*
X755819Y-993500D01*
X754220Y-995120D01*
X753000Y-997039D01*
X752240Y-999200D01*
X751960Y-1001680D01*
X751960Y-1058320D01*
X752240Y-1060800D01*
X753000Y-1062960D01*
X754220Y-1064880D01*
X755819Y-1066500D01*
X757760Y-1067720D01*
X759900Y-1068460D01*
G37*
G36*
X710639Y-1009780D02*
G01*
X731280Y-1009780D01*
X728960Y-1005560D01*
X725580Y-1000920D01*
X721660Y-996740D01*
X717240Y-993080D01*
X712420Y-990020D01*
X710639Y-989180D01*
G37*
G36*
X649580Y-1009780D02*
G01*
X670220Y-1009780D01*
X670220Y-989180D01*
X668439Y-990020D01*
X663620Y-993080D01*
X659200Y-996740D01*
X655280Y-1000920D01*
X651900Y-1005560D01*
G37*
G36*
X842380Y-973740D02*
G01*
X887620Y-973740D01*
X890100Y-973460D01*
X892240Y-972720D01*
X894180Y-971500D01*
X895780Y-969880D01*
X897000Y-967960D01*
X897760Y-965800D01*
X898040Y-963319D01*
X898040Y-906680D01*
X897760Y-904200D01*
X897000Y-902039D01*
X895780Y-900120D01*
X894180Y-898500D01*
X892240Y-897280D01*
X890100Y-896540D01*
X887620Y-896260D01*
X883780Y-896260D01*
X882340Y-895980D01*
X881080Y-895220D01*
X880200Y-894040D01*
X879300Y-892020D01*
X879200Y-891100D01*
X879200Y-883900D01*
X879620Y-882099D01*
X880200Y-880960D01*
X881080Y-879780D01*
X882340Y-879020D01*
X883780Y-878740D01*
X887620Y-878740D01*
X890100Y-878460D01*
X892240Y-877720D01*
X894180Y-876500D01*
X895780Y-874880D01*
X897000Y-872960D01*
X897760Y-870800D01*
X898040Y-868319D01*
X898040Y-831820D01*
X898240Y-830580D01*
X898820Y-829460D01*
X907820Y-817260D01*
X944900Y-780180D01*
X946900Y-777720D01*
X948240Y-775080D01*
X949020Y-772159D01*
X949200Y-769840D01*
X949200Y-535240D01*
X949340Y-534180D01*
X949760Y-533200D01*
X952820Y-528080D01*
X954220Y-526100D01*
X955840Y-522580D01*
X956520Y-520080D01*
X957280Y-518600D01*
X958560Y-517560D01*
X960180Y-517120D01*
X961820Y-517380D01*
X963199Y-518300D01*
X994620Y-549720D01*
X995500Y-551000D01*
X995800Y-552540D01*
X995800Y-769760D01*
X995660Y-770819D01*
X995240Y-771800D01*
X992180Y-776940D01*
X990780Y-778900D01*
X989160Y-782420D01*
X988160Y-786140D01*
X987820Y-790000D01*
X988160Y-793860D01*
X989160Y-797580D01*
X990780Y-801100D01*
X993000Y-804260D01*
X995740Y-807000D01*
X998900Y-809220D01*
X1002420Y-810840D01*
X1006140Y-811840D01*
X1010000Y-812180D01*
X1013860Y-811840D01*
X1017580Y-810840D01*
X1021100Y-809220D01*
X1024260Y-807000D01*
X1027000Y-804260D01*
X1029220Y-801100D01*
X1030840Y-797580D01*
X1031840Y-793860D01*
X1032180Y-790000D01*
X1031840Y-786140D01*
X1030840Y-782420D01*
X1029220Y-778900D01*
X1027660Y-776680D01*
X1024760Y-771800D01*
X1024340Y-770819D01*
X1024200Y-769760D01*
X1024200Y-545200D01*
X1023860Y-542060D01*
X1022960Y-539240D01*
X1021440Y-536620D01*
X1019920Y-534840D01*
X955180Y-470100D01*
X952720Y-468100D01*
X950080Y-466760D01*
X947159Y-465980D01*
X944840Y-465800D01*
X910240Y-465800D01*
X909180Y-465660D01*
X908199Y-465240D01*
X903080Y-462180D01*
X901100Y-460780D01*
X897580Y-459159D01*
X893860Y-458160D01*
X890000Y-457819D01*
X886140Y-458160D01*
X882420Y-459159D01*
X878900Y-460780D01*
X875740Y-463000D01*
X873000Y-465740D01*
X870780Y-468900D01*
X869160Y-472420D01*
X868160Y-476140D01*
X867820Y-480000D01*
X868160Y-483860D01*
X869160Y-487580D01*
X870780Y-491100D01*
X873000Y-494260D01*
X875740Y-497000D01*
X878900Y-499219D01*
X882420Y-500840D01*
X886140Y-501840D01*
X890000Y-502180D01*
X893860Y-501840D01*
X897580Y-500840D01*
X901100Y-499219D01*
X903319Y-497660D01*
X908199Y-494760D01*
X909180Y-494340D01*
X910240Y-494200D01*
X914900Y-494200D01*
X916600Y-494580D01*
X917960Y-495620D01*
X918760Y-497160D01*
X918840Y-498900D01*
X918180Y-500500D01*
X915780Y-503900D01*
X914160Y-507420D01*
X913160Y-511140D01*
X912820Y-515000D01*
X913160Y-518860D01*
X914160Y-522580D01*
X915780Y-526100D01*
X917340Y-528320D01*
X920240Y-533200D01*
X920660Y-534180D01*
X920800Y-535240D01*
X920800Y-762460D01*
X920500Y-764000D01*
X919620Y-765280D01*
X884800Y-800100D01*
X883500Y-800960D01*
X881979Y-801260D01*
X842380Y-801260D01*
X839900Y-801540D01*
X837760Y-802280D01*
X835819Y-803500D01*
X834220Y-805120D01*
X833000Y-807039D01*
X832240Y-809200D01*
X831960Y-811680D01*
X831960Y-868319D01*
X832240Y-870800D01*
X833000Y-872960D01*
X834220Y-874880D01*
X835819Y-876500D01*
X837760Y-877720D01*
X839900Y-878460D01*
X842380Y-878740D01*
X846220Y-878740D01*
X847660Y-879020D01*
X848920Y-879780D01*
X849800Y-880960D01*
X850699Y-882980D01*
X850800Y-883900D01*
X850800Y-891100D01*
X850380Y-892900D01*
X849800Y-894040D01*
X848920Y-895220D01*
X847660Y-895980D01*
X846220Y-896260D01*
X842380Y-896260D01*
X839900Y-896540D01*
X837760Y-897280D01*
X835819Y-898500D01*
X834220Y-900120D01*
X833000Y-902039D01*
X832240Y-904200D01*
X831960Y-906680D01*
X831960Y-963319D01*
X832240Y-965800D01*
X833000Y-967960D01*
X834220Y-969880D01*
X835819Y-971500D01*
X837760Y-972720D01*
X839900Y-973460D01*
G37*
G36*
X139780Y-972380D02*
G01*
X141560Y-971560D01*
X146380Y-968480D01*
X150800Y-964820D01*
X154720Y-960660D01*
X158100Y-956020D01*
X160420Y-951780D01*
X139780Y-951780D01*
G37*
G36*
X99360Y-972380D02*
G01*
X99360Y-951780D01*
X78720Y-951780D01*
X81039Y-956020D01*
X84420Y-960660D01*
X88340Y-964820D01*
X92760Y-968480D01*
X97579Y-971560D01*
G37*
G36*
X960260Y-965800D02*
G01*
X1038560Y-965800D01*
X1041040Y-965520D01*
X1043199Y-964760D01*
X1045120Y-963540D01*
X1046740Y-961940D01*
X1047940Y-960000D01*
X1048700Y-957860D01*
X1048980Y-955360D01*
X1048980Y-948780D01*
X1049240Y-947340D01*
X1050020Y-946080D01*
X1051200Y-945200D01*
X1053220Y-944300D01*
X1054140Y-944200D01*
X1495860Y-944200D01*
X1497660Y-944620D01*
X1498800Y-945200D01*
X1499980Y-946080D01*
X1500760Y-947340D01*
X1501020Y-948780D01*
X1501020Y-955360D01*
X1501300Y-957860D01*
X1502060Y-960000D01*
X1503260Y-961940D01*
X1504880Y-963540D01*
X1506800Y-964760D01*
X1508959Y-965520D01*
X1511440Y-965800D01*
X1589740Y-965800D01*
X1592220Y-965520D01*
X1594379Y-964760D01*
X1596300Y-963540D01*
X1597920Y-961940D01*
X1599120Y-960000D01*
X1599880Y-957860D01*
X1600160Y-955360D01*
X1600160Y-904640D01*
X1599880Y-902140D01*
X1599120Y-900000D01*
X1597920Y-898060D01*
X1596300Y-896460D01*
X1594379Y-895240D01*
X1592220Y-894479D01*
X1589740Y-894200D01*
X1569360Y-894200D01*
X1567920Y-893940D01*
X1566680Y-893160D01*
X1565780Y-892000D01*
X1564900Y-890000D01*
X1564800Y-889080D01*
X1564800Y-775800D01*
X1564460Y-772660D01*
X1563560Y-769840D01*
X1562040Y-767220D01*
X1560520Y-765440D01*
X1470740Y-675660D01*
X1469840Y-674280D01*
X1469560Y-672680D01*
X1469960Y-671100D01*
X1470940Y-669800D01*
X1472380Y-669000D01*
X1475780Y-667940D01*
X1478380Y-666440D01*
X1480160Y-664920D01*
X1539900Y-605180D01*
X1541920Y-602680D01*
X1542900Y-600840D01*
X1543800Y-599740D01*
X1545020Y-599000D01*
X1546420Y-598740D01*
X1552620Y-598740D01*
X1555100Y-598460D01*
X1557240Y-597720D01*
X1559180Y-596500D01*
X1560780Y-594880D01*
X1562000Y-592960D01*
X1562760Y-590800D01*
X1563040Y-588320D01*
X1563040Y-531680D01*
X1562760Y-529200D01*
X1562000Y-527040D01*
X1560780Y-525120D01*
X1559180Y-523500D01*
X1557240Y-522280D01*
X1555100Y-521540D01*
X1552620Y-521260D01*
X1507380Y-521260D01*
X1504900Y-521540D01*
X1502760Y-522280D01*
X1500820Y-523500D01*
X1499220Y-525120D01*
X1498000Y-527040D01*
X1497240Y-529200D01*
X1496960Y-531680D01*
X1496960Y-588320D01*
X1497240Y-590800D01*
X1498000Y-592960D01*
X1499220Y-594880D01*
X1500820Y-596500D01*
X1502300Y-597720D01*
X1502940Y-599000D01*
X1503100Y-600420D01*
X1502760Y-601800D01*
X1501940Y-602980D01*
X1465280Y-639620D01*
X1464000Y-640500D01*
X1462460Y-640800D01*
X1408180Y-640800D01*
X1406399Y-640380D01*
X1405240Y-639800D01*
X1404079Y-638920D01*
X1403300Y-637660D01*
X1403040Y-636220D01*
X1403040Y-626680D01*
X1402760Y-624200D01*
X1402000Y-622040D01*
X1400780Y-620120D01*
X1399180Y-618500D01*
X1397240Y-617280D01*
X1395100Y-616540D01*
X1392620Y-616260D01*
X1347380Y-616260D01*
X1344900Y-616540D01*
X1342760Y-617280D01*
X1340820Y-618500D01*
X1339220Y-620120D01*
X1338000Y-622040D01*
X1337240Y-624200D01*
X1336960Y-626680D01*
X1336960Y-683319D01*
X1337240Y-685800D01*
X1338000Y-687960D01*
X1339220Y-689880D01*
X1340820Y-691500D01*
X1342760Y-692720D01*
X1344900Y-693460D01*
X1347380Y-693740D01*
X1392620Y-693740D01*
X1395100Y-693460D01*
X1397240Y-692720D01*
X1399180Y-691500D01*
X1400780Y-689880D01*
X1402000Y-687960D01*
X1402760Y-685800D01*
X1403040Y-683319D01*
X1403040Y-673780D01*
X1403300Y-672340D01*
X1404079Y-671080D01*
X1405240Y-670200D01*
X1407260Y-669300D01*
X1408180Y-669200D01*
X1422460Y-669200D01*
X1424000Y-669500D01*
X1425280Y-670380D01*
X1535220Y-780320D01*
X1536100Y-781600D01*
X1536399Y-783139D01*
X1536399Y-889040D01*
X1535980Y-890819D01*
X1535400Y-892000D01*
X1534500Y-893160D01*
X1533260Y-893940D01*
X1531819Y-894200D01*
X1511440Y-894200D01*
X1508959Y-894479D01*
X1506800Y-895240D01*
X1504880Y-896460D01*
X1503260Y-898060D01*
X1502060Y-900000D01*
X1501300Y-902140D01*
X1501020Y-904640D01*
X1501020Y-911220D01*
X1500760Y-912660D01*
X1499980Y-913920D01*
X1498800Y-914800D01*
X1496780Y-915699D01*
X1495860Y-915800D01*
X1054140Y-915800D01*
X1052340Y-915380D01*
X1051200Y-914800D01*
X1050020Y-913920D01*
X1049240Y-912660D01*
X1048980Y-911220D01*
X1048980Y-904640D01*
X1048700Y-902140D01*
X1047940Y-900000D01*
X1046740Y-898060D01*
X1045120Y-896460D01*
X1043199Y-895240D01*
X1041040Y-894479D01*
X1038560Y-894200D01*
X960260Y-894200D01*
X957780Y-894479D01*
X955620Y-895240D01*
X953700Y-896460D01*
X952080Y-898060D01*
X950879Y-900000D01*
X950120Y-902140D01*
X949840Y-904640D01*
X949840Y-955360D01*
X950120Y-957860D01*
X950879Y-960000D01*
X952080Y-961940D01*
X953700Y-963540D01*
X955620Y-964760D01*
X957780Y-965520D01*
G37*
G36*
X139780Y-911360D02*
G01*
X160420Y-911360D01*
X158100Y-907120D01*
X154720Y-902480D01*
X150800Y-898319D01*
X146380Y-894659D01*
X141560Y-891580D01*
X139780Y-890759D01*
G37*
G36*
X78720Y-911360D02*
G01*
X99360Y-911360D01*
X99360Y-890759D01*
X97579Y-891580D01*
X92760Y-894659D01*
X88340Y-898319D01*
X84420Y-902480D01*
X81039Y-907120D01*
G37*
G36*
X762380Y-878740D02*
G01*
X771080Y-878740D01*
X771080Y-856780D01*
X751960Y-856780D01*
X751960Y-868319D01*
X752240Y-870800D01*
X753000Y-872960D01*
X754220Y-874880D01*
X755819Y-876500D01*
X757760Y-877720D01*
X759900Y-878460D01*
G37*
G36*
X798920Y-878740D02*
G01*
X807620Y-878740D01*
X810100Y-878460D01*
X812240Y-877720D01*
X814180Y-876500D01*
X815780Y-874880D01*
X817000Y-872960D01*
X817760Y-870800D01*
X818040Y-868319D01*
X818040Y-856780D01*
X798920Y-856780D01*
G37*
G36*
X367720Y-863040D02*
G01*
X422600Y-863040D01*
X429159Y-862660D01*
X435500Y-861580D01*
X441680Y-859800D01*
X447640Y-857340D01*
X453280Y-854220D01*
X458540Y-850500D01*
X463340Y-846200D01*
X467620Y-841400D01*
X471360Y-836140D01*
X474460Y-830520D01*
X476940Y-824560D01*
X478720Y-818379D01*
X479799Y-812020D01*
X480160Y-805600D01*
X479799Y-799160D01*
X478720Y-792800D01*
X476940Y-786620D01*
X474460Y-780660D01*
X471360Y-775040D01*
X467620Y-769780D01*
X463340Y-764980D01*
X458540Y-760680D01*
X453280Y-756960D01*
X447640Y-753840D01*
X441680Y-751380D01*
X435500Y-749599D01*
X429159Y-748520D01*
X422600Y-748139D01*
X367720Y-748139D01*
X361180Y-748520D01*
X354820Y-749599D01*
X348640Y-751380D01*
X342680Y-753840D01*
X337040Y-756960D01*
X331780Y-760680D01*
X326980Y-764980D01*
X322700Y-769780D01*
X318960Y-775040D01*
X315860Y-780660D01*
X313380Y-786620D01*
X311600Y-792800D01*
X310520Y-799160D01*
X310160Y-805600D01*
X310520Y-812020D01*
X311600Y-818379D01*
X313380Y-824560D01*
X315860Y-830520D01*
X318960Y-836140D01*
X322700Y-841400D01*
X326980Y-846200D01*
X331780Y-850500D01*
X337040Y-854220D01*
X342680Y-857340D01*
X348640Y-859800D01*
X354820Y-861580D01*
X361180Y-862660D01*
G37*
G36*
X751960Y-823220D02*
G01*
X771080Y-823220D01*
X771080Y-801260D01*
X762380Y-801260D01*
X759900Y-801540D01*
X757760Y-802280D01*
X755819Y-803500D01*
X754220Y-805120D01*
X753000Y-807039D01*
X752240Y-809200D01*
X751960Y-811680D01*
G37*
G36*
X798920Y-823220D02*
G01*
X818040Y-823220D01*
X818040Y-811680D01*
X817760Y-809200D01*
X817000Y-807039D01*
X815780Y-805120D01*
X814180Y-803500D01*
X812240Y-802280D01*
X810100Y-801540D01*
X807620Y-801260D01*
X798920Y-801260D01*
G37*
G36*
X1568540Y-727580D02*
G01*
X1574400Y-727400D01*
X1580180Y-726500D01*
X1585820Y-724880D01*
X1591220Y-722600D01*
X1596279Y-719680D01*
X1600960Y-716140D01*
X1605180Y-712060D01*
X1608839Y-707500D01*
X1611940Y-702520D01*
X1614379Y-697200D01*
X1616160Y-691600D01*
X1617240Y-685840D01*
X1617600Y-680000D01*
X1617240Y-674160D01*
X1616160Y-668400D01*
X1614379Y-662800D01*
X1611940Y-657480D01*
X1608839Y-652500D01*
X1605180Y-647940D01*
X1600960Y-643860D01*
X1596279Y-640320D01*
X1591220Y-637400D01*
X1585820Y-635120D01*
X1580180Y-633500D01*
X1574400Y-632600D01*
X1568540Y-632420D01*
X1562700Y-632960D01*
X1556980Y-634220D01*
X1551440Y-636180D01*
X1546200Y-638780D01*
X1541320Y-642020D01*
X1536860Y-645840D01*
X1532920Y-650160D01*
X1529540Y-654940D01*
X1526759Y-660100D01*
X1524640Y-665580D01*
X1523220Y-671260D01*
X1522500Y-677080D01*
X1522500Y-682920D01*
X1523220Y-688740D01*
X1524640Y-694419D01*
X1526759Y-699900D01*
X1529540Y-705060D01*
X1532920Y-709840D01*
X1536860Y-714160D01*
X1541320Y-717980D01*
X1546200Y-721220D01*
X1551440Y-723820D01*
X1556980Y-725780D01*
X1562700Y-727039D01*
G37*
G36*
X608920Y-698760D02*
G01*
X617620Y-698760D01*
X620100Y-698480D01*
X622260Y-697720D01*
X624180Y-696500D01*
X625800Y-694900D01*
X627020Y-692960D01*
X627760Y-690819D01*
X628040Y-688319D01*
X628040Y-676780D01*
X608920Y-676780D01*
G37*
G36*
X572400Y-698760D02*
G01*
X581100Y-698760D01*
X581100Y-676780D01*
X561980Y-676780D01*
X561980Y-688319D01*
X562260Y-690819D01*
X563000Y-692960D01*
X564220Y-694900D01*
X565840Y-696500D01*
X567760Y-697720D01*
X569920Y-698480D01*
G37*
G36*
X652400Y-698760D02*
G01*
X697620Y-698760D01*
X700100Y-698480D01*
X702260Y-697720D01*
X704180Y-696500D01*
X705800Y-694900D01*
X707020Y-692960D01*
X707760Y-690819D01*
X708040Y-688319D01*
X708040Y-678780D01*
X708319Y-677340D01*
X709080Y-676100D01*
X710260Y-675200D01*
X712300Y-674300D01*
X713199Y-674200D01*
X716800Y-674200D01*
X718600Y-674620D01*
X719760Y-675200D01*
X720920Y-676080D01*
X721700Y-677340D01*
X721960Y-678780D01*
X721960Y-688319D01*
X722240Y-690800D01*
X723000Y-692960D01*
X724220Y-694880D01*
X725819Y-696500D01*
X727760Y-697720D01*
X729900Y-698460D01*
X732380Y-698740D01*
X777620Y-698740D01*
X780100Y-698460D01*
X782240Y-697720D01*
X784180Y-696500D01*
X785780Y-694880D01*
X787000Y-692960D01*
X787760Y-690800D01*
X788040Y-688319D01*
X788040Y-631680D01*
X787760Y-629200D01*
X787000Y-627040D01*
X785780Y-625120D01*
X784180Y-623500D01*
X782240Y-622280D01*
X780100Y-621540D01*
X777620Y-621260D01*
X732380Y-621260D01*
X729900Y-621540D01*
X727760Y-622280D01*
X725819Y-623500D01*
X724220Y-625120D01*
X723000Y-627040D01*
X722240Y-629200D01*
X721960Y-631680D01*
X721960Y-641220D01*
X721700Y-642680D01*
X720920Y-643920D01*
X719760Y-644800D01*
X717740Y-645699D01*
X716820Y-645800D01*
X713180Y-645800D01*
X711400Y-645380D01*
X710260Y-644800D01*
X709080Y-643920D01*
X708319Y-642680D01*
X708040Y-641220D01*
X708040Y-631700D01*
X707760Y-629200D01*
X707020Y-627060D01*
X705800Y-625120D01*
X704180Y-623520D01*
X702260Y-622300D01*
X700100Y-621540D01*
X697620Y-621260D01*
X688780Y-621260D01*
X687340Y-621000D01*
X686080Y-620220D01*
X685200Y-619060D01*
X684300Y-617040D01*
X684200Y-616120D01*
X684200Y-585100D01*
X684580Y-583400D01*
X685620Y-582040D01*
X687159Y-581240D01*
X688900Y-581160D01*
X690500Y-581820D01*
X693900Y-584220D01*
X697420Y-585840D01*
X701320Y-586900D01*
X702380Y-587340D01*
X726780Y-602200D01*
X728960Y-603220D01*
X731200Y-603700D01*
X777620Y-603740D01*
X780100Y-603460D01*
X782240Y-602720D01*
X784180Y-601500D01*
X785780Y-599880D01*
X787000Y-597960D01*
X787760Y-595800D01*
X788040Y-593320D01*
X788040Y-536680D01*
X787760Y-534200D01*
X787000Y-532040D01*
X785780Y-530120D01*
X784180Y-528500D01*
X782240Y-527280D01*
X780100Y-526540D01*
X777620Y-526260D01*
X732240Y-526260D01*
X729860Y-526520D01*
X727720Y-527280D01*
X702380Y-542660D01*
X701320Y-543100D01*
X697420Y-544160D01*
X693900Y-545780D01*
X690500Y-548180D01*
X688900Y-548840D01*
X687159Y-548760D01*
X685620Y-547960D01*
X684580Y-546600D01*
X684200Y-544900D01*
X684200Y-487540D01*
X684500Y-486000D01*
X685380Y-484720D01*
X724720Y-445379D01*
X726000Y-444500D01*
X727540Y-444200D01*
X869800Y-444200D01*
X872940Y-443860D01*
X875759Y-442960D01*
X878379Y-441440D01*
X880160Y-439920D01*
X984900Y-335180D01*
X986900Y-332720D01*
X988240Y-330080D01*
X989020Y-327160D01*
X989200Y-324840D01*
X989200Y-320600D01*
X989500Y-319080D01*
X990360Y-317780D01*
X991640Y-316920D01*
X993160Y-316600D01*
X994680Y-316880D01*
X995980Y-317720D01*
X999060Y-320700D01*
X1003379Y-323880D01*
X1008080Y-326460D01*
X1013100Y-328380D01*
X1018319Y-329640D01*
X1023660Y-330160D01*
X1029020Y-329980D01*
X1034320Y-329099D01*
X1039440Y-327500D01*
X1044320Y-325240D01*
X1048840Y-322360D01*
X1052940Y-318900D01*
X1056540Y-314900D01*
X1059580Y-310480D01*
X1062000Y-305700D01*
X1063760Y-300620D01*
X1064840Y-295360D01*
X1065200Y-290000D01*
X1064840Y-284640D01*
X1063760Y-279380D01*
X1062000Y-274300D01*
X1059580Y-269520D01*
X1056540Y-265100D01*
X1052940Y-261100D01*
X1048840Y-257640D01*
X1044320Y-254760D01*
X1039440Y-252500D01*
X1034320Y-250900D01*
X1029020Y-250020D01*
X1023660Y-249840D01*
X1018319Y-250360D01*
X1013100Y-251620D01*
X1008080Y-253540D01*
X1003379Y-256119D01*
X999060Y-259300D01*
X995980Y-262280D01*
X994680Y-263120D01*
X993160Y-263400D01*
X991640Y-263080D01*
X990360Y-262220D01*
X989500Y-260920D01*
X989200Y-259400D01*
X989200Y-247540D01*
X989500Y-246000D01*
X990380Y-244720D01*
X1002360Y-232719D01*
X1003560Y-231900D01*
X1004940Y-231540D01*
X1028920Y-230000D01*
X1034320Y-229100D01*
X1039440Y-227500D01*
X1044320Y-225240D01*
X1048840Y-222360D01*
X1052940Y-218900D01*
X1056540Y-214899D01*
X1059580Y-210479D01*
X1062000Y-205700D01*
X1063760Y-200620D01*
X1064840Y-195360D01*
X1065200Y-190000D01*
X1064840Y-184640D01*
X1063760Y-179380D01*
X1062000Y-174300D01*
X1059580Y-169520D01*
X1056540Y-165100D01*
X1052940Y-161100D01*
X1048840Y-157640D01*
X1044320Y-154760D01*
X1039440Y-152500D01*
X1034320Y-150900D01*
X1029020Y-150020D01*
X1023660Y-149840D01*
X1018319Y-150360D01*
X1013100Y-151620D01*
X1008080Y-153540D01*
X1003379Y-156120D01*
X999060Y-159300D01*
X995200Y-163039D01*
X991860Y-167260D01*
X989120Y-171880D01*
X987039Y-176820D01*
X985620Y-182000D01*
X984880Y-187620D01*
X983460Y-210060D01*
X983100Y-211439D01*
X982280Y-212640D01*
X965100Y-229820D01*
X963100Y-232280D01*
X961760Y-234920D01*
X960980Y-237840D01*
X960800Y-240159D01*
X960800Y-259420D01*
X960480Y-260980D01*
X959580Y-262280D01*
X958240Y-263140D01*
X956660Y-263420D01*
X955120Y-263040D01*
X953840Y-262100D01*
X952940Y-261100D01*
X948840Y-257640D01*
X944320Y-254760D01*
X939440Y-252500D01*
X934320Y-250900D01*
X929020Y-250020D01*
X923660Y-249840D01*
X918319Y-250360D01*
X913100Y-251620D01*
X908080Y-253540D01*
X903379Y-256119D01*
X899060Y-259300D01*
X895200Y-263040D01*
X891860Y-267260D01*
X889120Y-271880D01*
X887039Y-276820D01*
X885620Y-282000D01*
X884900Y-287320D01*
X884900Y-292780D01*
X887340Y-315460D01*
X887140Y-317220D01*
X886200Y-318720D01*
X830280Y-374620D01*
X829000Y-375500D01*
X827460Y-375800D01*
X670200Y-375800D01*
X667060Y-376140D01*
X664240Y-377040D01*
X661620Y-378560D01*
X659840Y-380080D01*
X655280Y-384620D01*
X654000Y-385500D01*
X652460Y-385800D01*
X650240Y-385800D01*
X649180Y-385660D01*
X648199Y-385240D01*
X643080Y-382180D01*
X641100Y-380780D01*
X637580Y-379159D01*
X633860Y-378160D01*
X630000Y-377819D01*
X626140Y-378160D01*
X622420Y-379159D01*
X618900Y-380780D01*
X615740Y-383000D01*
X613000Y-385740D01*
X610780Y-388900D01*
X609160Y-392420D01*
X608160Y-396140D01*
X607820Y-400000D01*
X608160Y-403860D01*
X609160Y-407580D01*
X610780Y-411100D01*
X613000Y-414260D01*
X615740Y-417000D01*
X618900Y-419219D01*
X622420Y-420840D01*
X626140Y-421840D01*
X630000Y-422180D01*
X633860Y-421840D01*
X637580Y-420840D01*
X641100Y-419219D01*
X643319Y-417660D01*
X648199Y-414760D01*
X649180Y-414340D01*
X650240Y-414200D01*
X659800Y-414200D01*
X662940Y-413860D01*
X665759Y-412960D01*
X668379Y-411440D01*
X670160Y-409920D01*
X674720Y-405379D01*
X676000Y-404500D01*
X677540Y-404200D01*
X834800Y-404200D01*
X837940Y-403860D01*
X840759Y-402960D01*
X843379Y-401440D01*
X845160Y-399920D01*
X909280Y-335800D01*
X910140Y-335140D01*
X911160Y-334739D01*
X934320Y-329099D01*
X939440Y-327500D01*
X943180Y-325780D01*
X944720Y-325400D01*
X946280Y-325660D01*
X947620Y-326500D01*
X948520Y-327800D01*
X948860Y-329360D01*
X948560Y-330920D01*
X947680Y-332239D01*
X865280Y-414620D01*
X864000Y-415500D01*
X862460Y-415800D01*
X720200Y-415800D01*
X717060Y-416140D01*
X714240Y-417040D01*
X711620Y-418560D01*
X709840Y-420080D01*
X660100Y-469820D01*
X658100Y-472280D01*
X656760Y-474920D01*
X655980Y-477840D01*
X655800Y-480160D01*
X655800Y-616120D01*
X655380Y-617900D01*
X654740Y-619160D01*
X653960Y-620240D01*
X652880Y-621000D01*
X651620Y-621360D01*
X649920Y-621540D01*
X647760Y-622300D01*
X645840Y-623520D01*
X644220Y-625120D01*
X643000Y-627060D01*
X642260Y-629200D01*
X641979Y-631700D01*
X641979Y-688319D01*
X642260Y-690819D01*
X643000Y-692960D01*
X644220Y-694900D01*
X645840Y-696500D01*
X647760Y-697720D01*
X649920Y-698480D01*
G37*
G36*
X1267380Y-693740D02*
G01*
X1312620Y-693740D01*
X1315100Y-693460D01*
X1317240Y-692720D01*
X1319180Y-691500D01*
X1320780Y-689880D01*
X1322000Y-687960D01*
X1322760Y-685800D01*
X1323040Y-683319D01*
X1323040Y-626680D01*
X1322760Y-624200D01*
X1322000Y-622040D01*
X1320780Y-620120D01*
X1319180Y-618500D01*
X1317240Y-617280D01*
X1315100Y-616540D01*
X1312620Y-616260D01*
X1267380Y-616260D01*
X1264880Y-616540D01*
X1262720Y-617280D01*
X1229720Y-632440D01*
X1228060Y-632800D01*
X1170180Y-632800D01*
X1166140Y-633160D01*
X1162420Y-634160D01*
X1158900Y-635780D01*
X1155740Y-638000D01*
X1153000Y-640740D01*
X1150780Y-643900D01*
X1149160Y-647420D01*
X1148160Y-651140D01*
X1147820Y-655000D01*
X1148160Y-658860D01*
X1149160Y-662580D01*
X1150780Y-666100D01*
X1153000Y-669260D01*
X1155740Y-672000D01*
X1158900Y-674220D01*
X1162420Y-675840D01*
X1166140Y-676840D01*
X1170180Y-677200D01*
X1228060Y-677200D01*
X1229720Y-677560D01*
X1262720Y-692720D01*
X1264880Y-693460D01*
G37*
G36*
X241160Y-672620D02*
G01*
X246280Y-669680D01*
X250960Y-666140D01*
X255180Y-662060D01*
X258840Y-657500D01*
X261940Y-652520D01*
X262540Y-651200D01*
X241200Y-651200D01*
G37*
G36*
X198800Y-672520D02*
G01*
X198800Y-651200D01*
X177460Y-651200D01*
X179540Y-655060D01*
X182920Y-659840D01*
X186860Y-664160D01*
X191320Y-667980D01*
X196200Y-671220D01*
G37*
G36*
X608920Y-643240D02*
G01*
X628040Y-643240D01*
X628040Y-631700D01*
X627760Y-629200D01*
X627020Y-627060D01*
X625800Y-625120D01*
X624180Y-623520D01*
X622260Y-622300D01*
X620100Y-621540D01*
X617620Y-621260D01*
X608920Y-621260D01*
G37*
G36*
X561980Y-643240D02*
G01*
X581100Y-643240D01*
X581100Y-621260D01*
X572400Y-621260D01*
X569920Y-621540D01*
X567760Y-622300D01*
X565840Y-623520D01*
X564220Y-625120D01*
X563000Y-627060D01*
X562260Y-629200D01*
X561980Y-631700D01*
G37*
G36*
X177460Y-608800D02*
G01*
X198800Y-608800D01*
X198800Y-587480D01*
X196200Y-588780D01*
X191320Y-592020D01*
X186860Y-595840D01*
X182920Y-600160D01*
X179540Y-604940D01*
G37*
G36*
X241200Y-608800D02*
G01*
X262540Y-608800D01*
X261940Y-607480D01*
X258840Y-602500D01*
X255180Y-597940D01*
X250960Y-593860D01*
X246280Y-590320D01*
X241200Y-587380D01*
G37*
G36*
X1303920Y-598760D02*
G01*
X1312620Y-598760D01*
X1315100Y-598480D01*
X1317260Y-597720D01*
X1319180Y-596500D01*
X1320800Y-594900D01*
X1322020Y-592960D01*
X1322760Y-590820D01*
X1323040Y-588320D01*
X1323040Y-576780D01*
X1303920Y-576780D01*
G37*
G36*
X1267400Y-598760D02*
G01*
X1276100Y-598760D01*
X1276100Y-576780D01*
X1256980Y-576780D01*
X1256980Y-588320D01*
X1257260Y-590820D01*
X1258000Y-592960D01*
X1259220Y-594900D01*
X1260840Y-596500D01*
X1262760Y-597720D01*
X1264920Y-598480D01*
G37*
G36*
X1347400Y-598760D02*
G01*
X1392620Y-598760D01*
X1395100Y-598480D01*
X1397260Y-597720D01*
X1399180Y-596500D01*
X1400800Y-594900D01*
X1402020Y-592960D01*
X1402760Y-590820D01*
X1403040Y-588320D01*
X1403040Y-578780D01*
X1403320Y-577340D01*
X1404079Y-576080D01*
X1405260Y-575200D01*
X1407280Y-574300D01*
X1408200Y-574200D01*
X1411819Y-574200D01*
X1413600Y-574620D01*
X1414760Y-575200D01*
X1415920Y-576080D01*
X1416699Y-577340D01*
X1416960Y-578780D01*
X1416960Y-588320D01*
X1417240Y-590800D01*
X1418000Y-592960D01*
X1419220Y-594880D01*
X1420820Y-596500D01*
X1422760Y-597720D01*
X1424900Y-598460D01*
X1427380Y-598740D01*
X1472620Y-598740D01*
X1475100Y-598460D01*
X1477240Y-597720D01*
X1479180Y-596500D01*
X1480780Y-594880D01*
X1482000Y-592960D01*
X1482760Y-590800D01*
X1483040Y-588320D01*
X1483040Y-531680D01*
X1482760Y-529200D01*
X1482000Y-527040D01*
X1480780Y-525120D01*
X1479180Y-523500D01*
X1477240Y-522280D01*
X1475100Y-521540D01*
X1472620Y-521260D01*
X1427380Y-521260D01*
X1424900Y-521540D01*
X1422760Y-522280D01*
X1420820Y-523500D01*
X1419220Y-525120D01*
X1418000Y-527040D01*
X1417240Y-529200D01*
X1416960Y-531680D01*
X1416960Y-541220D01*
X1416699Y-542660D01*
X1415920Y-543920D01*
X1414760Y-544800D01*
X1412740Y-545700D01*
X1411819Y-545800D01*
X1408200Y-545800D01*
X1406420Y-545380D01*
X1405260Y-544800D01*
X1404079Y-543920D01*
X1403320Y-542660D01*
X1403040Y-541220D01*
X1403040Y-531700D01*
X1402760Y-529200D01*
X1402020Y-527060D01*
X1400800Y-525120D01*
X1399180Y-523519D01*
X1397260Y-522299D01*
X1395100Y-521540D01*
X1392620Y-521260D01*
X1388779Y-521260D01*
X1387340Y-521000D01*
X1386100Y-520220D01*
X1385200Y-519060D01*
X1384319Y-517040D01*
X1384220Y-516120D01*
X1384220Y-505220D01*
X1383880Y-502060D01*
X1382960Y-499240D01*
X1381459Y-496640D01*
X1379940Y-494860D01*
X1360180Y-475100D01*
X1357720Y-473100D01*
X1355080Y-471760D01*
X1352160Y-470980D01*
X1349840Y-470800D01*
X1295240Y-470800D01*
X1294180Y-470660D01*
X1293200Y-470240D01*
X1288080Y-467180D01*
X1286100Y-465780D01*
X1282580Y-464159D01*
X1278860Y-463160D01*
X1275000Y-462819D01*
X1271140Y-463160D01*
X1267420Y-464159D01*
X1263900Y-465780D01*
X1260740Y-468000D01*
X1258000Y-470740D01*
X1255780Y-473900D01*
X1254160Y-477420D01*
X1253160Y-481140D01*
X1252820Y-485000D01*
X1253160Y-488860D01*
X1254160Y-492580D01*
X1255780Y-496100D01*
X1258000Y-499260D01*
X1260740Y-502000D01*
X1263900Y-504219D01*
X1267420Y-505840D01*
X1271140Y-506840D01*
X1275000Y-507180D01*
X1278860Y-506840D01*
X1282580Y-505840D01*
X1286100Y-504219D01*
X1288320Y-502660D01*
X1293200Y-499760D01*
X1294180Y-499340D01*
X1295240Y-499200D01*
X1342460Y-499200D01*
X1344000Y-499500D01*
X1345280Y-500379D01*
X1354640Y-509720D01*
X1355500Y-511019D01*
X1355820Y-512540D01*
X1355820Y-516120D01*
X1355380Y-517900D01*
X1354820Y-519060D01*
X1353920Y-520220D01*
X1352680Y-521000D01*
X1351240Y-521260D01*
X1347400Y-521260D01*
X1344920Y-521540D01*
X1342760Y-522299D01*
X1340840Y-523519D01*
X1339220Y-525120D01*
X1338000Y-527060D01*
X1337260Y-529200D01*
X1336980Y-531700D01*
X1336980Y-588320D01*
X1337260Y-590820D01*
X1338000Y-592960D01*
X1339220Y-594900D01*
X1340840Y-596500D01*
X1342760Y-597720D01*
X1344920Y-598480D01*
G37*
G36*
X218540Y-577580D02*
G01*
X224400Y-577400D01*
X230180Y-576500D01*
X235820Y-574880D01*
X241220Y-572600D01*
X246280Y-569680D01*
X250960Y-566140D01*
X255180Y-562060D01*
X258840Y-557500D01*
X261940Y-552520D01*
X264380Y-547200D01*
X266160Y-541600D01*
X267240Y-535840D01*
X267600Y-530000D01*
X267240Y-524159D01*
X266160Y-518400D01*
X264380Y-512800D01*
X261940Y-507480D01*
X258840Y-502500D01*
X255180Y-497939D01*
X250960Y-493860D01*
X246280Y-490319D01*
X241220Y-487400D01*
X235820Y-485120D01*
X231380Y-483840D01*
X229860Y-483040D01*
X228840Y-481680D01*
X228460Y-480000D01*
X228840Y-478320D01*
X229860Y-476960D01*
X231380Y-476160D01*
X235820Y-474880D01*
X241220Y-472600D01*
X246280Y-469680D01*
X251680Y-465540D01*
X273740Y-445260D01*
X275000Y-444480D01*
X276460Y-444200D01*
X319800Y-444200D01*
X322939Y-443860D01*
X325760Y-442960D01*
X328380Y-441440D01*
X330160Y-439920D01*
X354720Y-415379D01*
X356000Y-414500D01*
X357540Y-414200D01*
X479760Y-414200D01*
X480820Y-414340D01*
X481800Y-414760D01*
X486940Y-417819D01*
X488900Y-419219D01*
X492420Y-420840D01*
X496140Y-421840D01*
X500000Y-422180D01*
X503860Y-421840D01*
X507580Y-420840D01*
X511100Y-419219D01*
X514260Y-417000D01*
X517000Y-414260D01*
X519219Y-411100D01*
X520840Y-407580D01*
X521840Y-403860D01*
X522180Y-400000D01*
X521840Y-396140D01*
X520840Y-392420D01*
X519219Y-388900D01*
X517000Y-385740D01*
X514260Y-383000D01*
X511100Y-380780D01*
X507580Y-379159D01*
X503860Y-378160D01*
X500000Y-377819D01*
X496140Y-378160D01*
X492420Y-379159D01*
X488900Y-380780D01*
X486680Y-382340D01*
X481800Y-385240D01*
X480820Y-385660D01*
X479760Y-385800D01*
X350200Y-385800D01*
X347060Y-386140D01*
X344240Y-387040D01*
X341620Y-388560D01*
X339840Y-390080D01*
X315280Y-414620D01*
X314000Y-415500D01*
X312460Y-415800D01*
X276460Y-415800D01*
X275000Y-415520D01*
X273740Y-414739D01*
X251040Y-393920D01*
X246280Y-390319D01*
X241220Y-387400D01*
X235820Y-385120D01*
X231380Y-383840D01*
X229860Y-383040D01*
X228840Y-381680D01*
X228460Y-380000D01*
X228840Y-378320D01*
X229860Y-376960D01*
X231380Y-376160D01*
X235820Y-374880D01*
X241220Y-372600D01*
X246280Y-369680D01*
X251680Y-365540D01*
X273740Y-345260D01*
X275000Y-344480D01*
X276460Y-344200D01*
X302460Y-344200D01*
X304000Y-344500D01*
X305280Y-345379D01*
X319820Y-359900D01*
X322280Y-361900D01*
X324920Y-363240D01*
X327840Y-364020D01*
X330160Y-364200D01*
X784800Y-364200D01*
X787940Y-363860D01*
X790759Y-362960D01*
X793379Y-361440D01*
X795160Y-359920D01*
X817159Y-337920D01*
X818340Y-337100D01*
X841160Y-326800D01*
X844320Y-325240D01*
X848840Y-322360D01*
X852940Y-318900D01*
X856540Y-314900D01*
X859580Y-310480D01*
X862000Y-305700D01*
X863760Y-300620D01*
X864840Y-295360D01*
X865200Y-290000D01*
X864840Y-284640D01*
X863760Y-279380D01*
X862000Y-274300D01*
X859580Y-269520D01*
X856540Y-265100D01*
X852940Y-261100D01*
X848840Y-257640D01*
X844320Y-254760D01*
X839440Y-252500D01*
X834320Y-250900D01*
X829020Y-250020D01*
X823660Y-249840D01*
X818319Y-250360D01*
X813100Y-251620D01*
X808080Y-253540D01*
X803379Y-256119D01*
X799060Y-259300D01*
X795200Y-263040D01*
X791860Y-267260D01*
X789120Y-271880D01*
X787039Y-276820D01*
X785620Y-282000D01*
X784900Y-287320D01*
X784900Y-292680D01*
X785620Y-298000D01*
X786520Y-301680D01*
X791900Y-320100D01*
X792039Y-321500D01*
X791680Y-322879D01*
X790879Y-324040D01*
X780280Y-334620D01*
X779000Y-335500D01*
X777460Y-335800D01*
X739100Y-335800D01*
X737520Y-335480D01*
X736200Y-334560D01*
X735340Y-333180D01*
X735100Y-331599D01*
X735520Y-330040D01*
X736500Y-328760D01*
X737920Y-327980D01*
X739440Y-327500D01*
X744320Y-325240D01*
X748840Y-322360D01*
X752940Y-318900D01*
X756540Y-314900D01*
X759580Y-310480D01*
X762000Y-305700D01*
X763760Y-300620D01*
X764840Y-295360D01*
X765200Y-290000D01*
X764840Y-284640D01*
X763760Y-279380D01*
X762000Y-274300D01*
X759580Y-269520D01*
X756540Y-265100D01*
X752940Y-261100D01*
X748840Y-257640D01*
X744320Y-254760D01*
X739440Y-252500D01*
X734320Y-250900D01*
X729020Y-250020D01*
X723660Y-249840D01*
X718319Y-250360D01*
X713100Y-251620D01*
X708080Y-253540D01*
X703379Y-256119D01*
X699060Y-259300D01*
X695200Y-263040D01*
X691860Y-267260D01*
X689120Y-271880D01*
X687039Y-276820D01*
X685620Y-282000D01*
X684900Y-287320D01*
X684900Y-292680D01*
X685620Y-298000D01*
X687039Y-303180D01*
X689120Y-308120D01*
X691860Y-312740D01*
X695200Y-316960D01*
X699060Y-320700D01*
X703379Y-323880D01*
X708080Y-326460D01*
X712260Y-328060D01*
X713600Y-328920D01*
X714500Y-330200D01*
X714820Y-331740D01*
X714539Y-333300D01*
X713680Y-334600D01*
X712360Y-335500D01*
X710819Y-335800D01*
X337540Y-335800D01*
X336000Y-335500D01*
X334720Y-334620D01*
X320180Y-320100D01*
X317720Y-318100D01*
X315080Y-316760D01*
X312160Y-315980D01*
X309840Y-315800D01*
X276460Y-315800D01*
X275000Y-315520D01*
X273740Y-314740D01*
X251040Y-293920D01*
X246280Y-290320D01*
X241220Y-287400D01*
X235820Y-285120D01*
X230180Y-283500D01*
X224400Y-282600D01*
X218540Y-282420D01*
X212700Y-282960D01*
X206980Y-284220D01*
X201439Y-286180D01*
X196200Y-288780D01*
X191320Y-292020D01*
X186860Y-295840D01*
X182920Y-300160D01*
X179540Y-304940D01*
X176759Y-310100D01*
X174640Y-315580D01*
X173220Y-321260D01*
X172500Y-327080D01*
X172500Y-332920D01*
X173220Y-338740D01*
X174640Y-344420D01*
X176759Y-349900D01*
X179540Y-355060D01*
X182920Y-359840D01*
X186860Y-364159D01*
X191320Y-367980D01*
X196200Y-371220D01*
X201439Y-373820D01*
X206980Y-375780D01*
X208420Y-376100D01*
X209820Y-376700D01*
X210900Y-377800D01*
X211480Y-379240D01*
X211480Y-380760D01*
X210900Y-382200D01*
X209820Y-383300D01*
X208420Y-383900D01*
X206980Y-384219D01*
X201439Y-386180D01*
X196200Y-388780D01*
X191320Y-392020D01*
X186860Y-395840D01*
X182920Y-400160D01*
X179540Y-404940D01*
X176759Y-410100D01*
X174640Y-415580D01*
X173220Y-421260D01*
X172500Y-427080D01*
X172500Y-432920D01*
X173220Y-438740D01*
X174640Y-444420D01*
X176759Y-449900D01*
X179540Y-455060D01*
X182920Y-459840D01*
X186860Y-464159D01*
X191320Y-467980D01*
X196200Y-471220D01*
X201439Y-473820D01*
X206980Y-475780D01*
X208420Y-476100D01*
X209820Y-476700D01*
X210900Y-477800D01*
X211480Y-479240D01*
X211480Y-480760D01*
X210900Y-482200D01*
X209820Y-483300D01*
X208420Y-483900D01*
X206980Y-484219D01*
X201439Y-486180D01*
X196200Y-488780D01*
X191320Y-492020D01*
X186860Y-495840D01*
X182920Y-500160D01*
X179540Y-504940D01*
X176759Y-510100D01*
X174640Y-515580D01*
X173220Y-521260D01*
X172500Y-527080D01*
X172500Y-532920D01*
X173220Y-538740D01*
X174640Y-544420D01*
X176759Y-549900D01*
X179540Y-555060D01*
X182920Y-559840D01*
X186860Y-564160D01*
X191320Y-567980D01*
X196200Y-571220D01*
X201439Y-573820D01*
X206980Y-575780D01*
X212700Y-577040D01*
G37*
G36*
X1303920Y-543240D02*
G01*
X1323040Y-543240D01*
X1323040Y-531700D01*
X1322760Y-529200D01*
X1322020Y-527060D01*
X1320800Y-525120D01*
X1319180Y-523519D01*
X1317260Y-522299D01*
X1315100Y-521540D01*
X1312620Y-521260D01*
X1303920Y-521260D01*
G37*
G36*
X1256980Y-543240D02*
G01*
X1276100Y-543240D01*
X1276100Y-521260D01*
X1267400Y-521260D01*
X1264920Y-521540D01*
X1262760Y-522299D01*
X1260840Y-523519D01*
X1259220Y-525120D01*
X1258000Y-527060D01*
X1257260Y-529200D01*
X1256980Y-531700D01*
G37*
G36*
X1568540Y-327580D02*
G01*
X1574400Y-327400D01*
X1580180Y-326500D01*
X1585820Y-324880D01*
X1591220Y-322600D01*
X1596279Y-319680D01*
X1600960Y-316140D01*
X1605180Y-312060D01*
X1608839Y-307500D01*
X1611940Y-302520D01*
X1614379Y-297200D01*
X1616160Y-291600D01*
X1617240Y-285840D01*
X1617600Y-280000D01*
X1617240Y-274160D01*
X1616160Y-268400D01*
X1614379Y-262800D01*
X1611940Y-257480D01*
X1608839Y-252500D01*
X1605180Y-247940D01*
X1600960Y-243860D01*
X1596279Y-240320D01*
X1591220Y-237399D01*
X1585820Y-235120D01*
X1580180Y-233500D01*
X1574400Y-232600D01*
X1568540Y-232420D01*
X1562700Y-232960D01*
X1556980Y-234220D01*
X1551440Y-236180D01*
X1546200Y-238780D01*
X1541320Y-242020D01*
X1536860Y-245840D01*
X1532920Y-250159D01*
X1529540Y-254940D01*
X1526759Y-260100D01*
X1524640Y-265580D01*
X1523220Y-271260D01*
X1522500Y-277080D01*
X1522500Y-282920D01*
X1523220Y-288740D01*
X1524640Y-294420D01*
X1526759Y-299900D01*
X1529540Y-305060D01*
X1532920Y-309840D01*
X1536860Y-314160D01*
X1541320Y-317980D01*
X1546200Y-321220D01*
X1551440Y-323820D01*
X1556980Y-325780D01*
X1562700Y-327040D01*
G37*
G36*
X607500Y-326140D02*
G01*
X607500Y-307500D01*
X588860Y-307500D01*
X589120Y-308120D01*
X591860Y-312740D01*
X595200Y-316960D01*
X599060Y-320700D01*
X603380Y-323880D01*
G37*
G36*
X642500Y-326079D02*
G01*
X644320Y-325240D01*
X648840Y-322360D01*
X652940Y-318900D01*
X656540Y-314900D01*
X659580Y-310480D01*
X661080Y-307500D01*
X642500Y-307500D01*
G37*
G36*
X642500Y-272500D02*
G01*
X661080Y-272500D01*
X659580Y-269520D01*
X656540Y-265100D01*
X652940Y-261100D01*
X648840Y-257640D01*
X644320Y-254760D01*
X642500Y-253920D01*
G37*
G36*
X588860Y-272500D02*
G01*
X607500Y-272500D01*
X607500Y-253860D01*
X603380Y-256119D01*
X599060Y-259300D01*
X595200Y-263040D01*
X591860Y-267260D01*
X589120Y-271880D01*
G37*
G36*
X1165160Y-247440D02*
G01*
X1171600Y-247079D01*
X1177940Y-246000D01*
X1184140Y-244220D01*
X1190080Y-241740D01*
X1195720Y-238640D01*
X1200980Y-234899D01*
X1205780Y-230620D01*
X1210060Y-225820D01*
X1213800Y-220560D01*
X1216900Y-214920D01*
X1219380Y-208980D01*
X1221160Y-202780D01*
X1222240Y-196439D01*
X1222600Y-190000D01*
X1222240Y-183560D01*
X1221160Y-177220D01*
X1219380Y-171020D01*
X1216900Y-165080D01*
X1213800Y-159440D01*
X1210060Y-154180D01*
X1205780Y-149380D01*
X1200980Y-145100D01*
X1195720Y-141360D01*
X1190080Y-138260D01*
X1184140Y-135780D01*
X1177940Y-134000D01*
X1171600Y-132920D01*
X1165160Y-132560D01*
X1158720Y-132920D01*
X1152380Y-134000D01*
X1146180Y-135780D01*
X1140240Y-138260D01*
X1134600Y-141360D01*
X1129340Y-145100D01*
X1124540Y-149380D01*
X1120260Y-154180D01*
X1116520Y-159440D01*
X1113420Y-165080D01*
X1110940Y-171020D01*
X1109160Y-177220D01*
X1108080Y-183560D01*
X1107720Y-190000D01*
X1108080Y-196439D01*
X1109160Y-202780D01*
X1110940Y-208980D01*
X1113420Y-214920D01*
X1116520Y-220560D01*
X1120260Y-225820D01*
X1124540Y-230620D01*
X1129340Y-234899D01*
X1134600Y-238640D01*
X1140240Y-241740D01*
X1146180Y-244220D01*
X1152380Y-246000D01*
X1158720Y-247079D01*
G37*
G36*
X484840Y-247440D02*
G01*
X491280Y-247079D01*
X497620Y-246000D01*
X503820Y-244220D01*
X509760Y-241740D01*
X515400Y-238640D01*
X520660Y-234899D01*
X525460Y-230620D01*
X529740Y-225820D01*
X533480Y-220560D01*
X536580Y-214920D01*
X539060Y-208980D01*
X540840Y-202780D01*
X541920Y-196439D01*
X542280Y-190000D01*
X541920Y-183560D01*
X540840Y-177220D01*
X539060Y-171020D01*
X536580Y-165080D01*
X533480Y-159440D01*
X529740Y-154180D01*
X525460Y-149380D01*
X520660Y-145100D01*
X515400Y-141360D01*
X509760Y-138260D01*
X503820Y-135780D01*
X497620Y-134000D01*
X491280Y-132920D01*
X484840Y-132560D01*
X478400Y-132920D01*
X472060Y-134000D01*
X465860Y-135780D01*
X459920Y-138260D01*
X454280Y-141360D01*
X449020Y-145100D01*
X444219Y-149380D01*
X439940Y-154180D01*
X436200Y-159440D01*
X433100Y-165080D01*
X430620Y-171020D01*
X428840Y-177220D01*
X427760Y-183560D01*
X427400Y-190000D01*
X427760Y-196439D01*
X428840Y-202780D01*
X430620Y-208980D01*
X433100Y-214920D01*
X436200Y-220560D01*
X439940Y-225820D01*
X444219Y-230620D01*
X449020Y-234899D01*
X454280Y-238640D01*
X459920Y-241740D01*
X465860Y-244220D01*
X472060Y-246000D01*
X478400Y-247079D01*
G37*
G36*
X823660Y-230159D02*
G01*
X829020Y-229980D01*
X834320Y-229100D01*
X839440Y-227500D01*
X844320Y-225240D01*
X848840Y-222360D01*
X852940Y-218900D01*
X856540Y-214899D01*
X859580Y-210479D01*
X862000Y-205700D01*
X863760Y-200620D01*
X864840Y-195360D01*
X865200Y-190000D01*
X864840Y-184640D01*
X863760Y-179380D01*
X862000Y-174300D01*
X859580Y-169520D01*
X856540Y-165100D01*
X852940Y-161100D01*
X848840Y-157640D01*
X844320Y-154760D01*
X839440Y-152500D01*
X834320Y-150900D01*
X829020Y-150020D01*
X823660Y-149840D01*
X818319Y-150360D01*
X813100Y-151620D01*
X808080Y-153540D01*
X803379Y-156120D01*
X799060Y-159300D01*
X795200Y-163039D01*
X791860Y-167260D01*
X789120Y-171880D01*
X787039Y-176820D01*
X785620Y-182000D01*
X784900Y-187320D01*
X784900Y-192680D01*
X785620Y-198000D01*
X787039Y-203180D01*
X789120Y-208120D01*
X791860Y-212740D01*
X795200Y-216960D01*
X799060Y-220700D01*
X803379Y-223880D01*
X808080Y-226460D01*
X813100Y-228380D01*
X818319Y-229640D01*
G37*
G36*
X923660Y-230159D02*
G01*
X929020Y-229980D01*
X934320Y-229100D01*
X939440Y-227500D01*
X944320Y-225240D01*
X948840Y-222360D01*
X952940Y-218900D01*
X956540Y-214899D01*
X959580Y-210479D01*
X962000Y-205700D01*
X963760Y-200620D01*
X964840Y-195360D01*
X965200Y-190000D01*
X964840Y-184640D01*
X963760Y-179380D01*
X962000Y-174300D01*
X959580Y-169520D01*
X956540Y-165100D01*
X952940Y-161100D01*
X948840Y-157640D01*
X944320Y-154760D01*
X939440Y-152500D01*
X934320Y-150900D01*
X929020Y-150020D01*
X923660Y-149840D01*
X918319Y-150360D01*
X913100Y-151620D01*
X908080Y-153540D01*
X903379Y-156120D01*
X899060Y-159300D01*
X895200Y-163039D01*
X891860Y-167260D01*
X889120Y-171880D01*
X887039Y-176820D01*
X885620Y-182000D01*
X884900Y-187320D01*
X884900Y-192680D01*
X885620Y-198000D01*
X887039Y-203180D01*
X889120Y-208120D01*
X891860Y-212740D01*
X895200Y-216960D01*
X899060Y-220700D01*
X903379Y-223880D01*
X908080Y-226460D01*
X913100Y-228380D01*
X918319Y-229640D01*
G37*
G36*
X623660Y-230159D02*
G01*
X629020Y-229980D01*
X634320Y-229100D01*
X639440Y-227500D01*
X644320Y-225240D01*
X648840Y-222360D01*
X652940Y-218900D01*
X656540Y-214899D01*
X659580Y-210479D01*
X662000Y-205700D01*
X663760Y-200620D01*
X664840Y-195360D01*
X665200Y-190000D01*
X664840Y-184640D01*
X663760Y-179380D01*
X662000Y-174300D01*
X659580Y-169520D01*
X656540Y-165100D01*
X652940Y-161100D01*
X648840Y-157640D01*
X645819Y-155700D01*
X626400Y-140660D01*
X572360Y-86640D01*
X569580Y-84540D01*
X566560Y-83040D01*
X563340Y-82120D01*
X559820Y-81800D01*
X414300Y-81820D01*
X410840Y-82300D01*
X407660Y-83360D01*
X404720Y-85000D01*
X402000Y-87260D01*
X340260Y-149000D01*
X339040Y-149840D01*
X337580Y-150180D01*
X336120Y-149960D01*
X334840Y-149220D01*
X325680Y-141520D01*
X321100Y-138460D01*
X316140Y-136020D01*
X310920Y-134240D01*
X305500Y-133160D01*
X300000Y-132800D01*
X294500Y-133160D01*
X289080Y-134240D01*
X283860Y-136020D01*
X278900Y-138460D01*
X274320Y-141520D01*
X270160Y-145160D01*
X266520Y-149320D01*
X263460Y-153900D01*
X261020Y-158860D01*
X259240Y-164080D01*
X258160Y-169500D01*
X257800Y-175000D01*
X258160Y-180500D01*
X259240Y-185920D01*
X261020Y-191140D01*
X263460Y-196100D01*
X266520Y-200680D01*
X270160Y-204840D01*
X274320Y-208480D01*
X278900Y-211540D01*
X283860Y-213980D01*
X289080Y-215760D01*
X294500Y-216840D01*
X300000Y-217200D01*
X305500Y-216840D01*
X310920Y-215760D01*
X316140Y-213980D01*
X321100Y-211540D01*
X325680Y-208480D01*
X343860Y-193100D01*
X345180Y-192360D01*
X347340Y-191640D01*
X350280Y-190000D01*
X353000Y-187740D01*
X421360Y-119380D01*
X422660Y-118500D01*
X424200Y-118200D01*
X550800Y-118200D01*
X552340Y-118500D01*
X553640Y-119380D01*
X590240Y-155980D01*
X591020Y-157080D01*
X591400Y-158400D01*
X591300Y-159760D01*
X587420Y-175760D01*
X587040Y-176820D01*
X585620Y-182000D01*
X584900Y-187320D01*
X584900Y-192680D01*
X585620Y-198000D01*
X587040Y-203180D01*
X589120Y-208120D01*
X591860Y-212740D01*
X595200Y-216960D01*
X599060Y-220700D01*
X603380Y-223880D01*
X608080Y-226460D01*
X613100Y-228380D01*
X618320Y-229640D01*
G37*
G36*
X723660Y-230159D02*
G01*
X729020Y-229980D01*
X734320Y-229100D01*
X739440Y-227500D01*
X744320Y-225240D01*
X748840Y-222360D01*
X752940Y-218900D01*
X756540Y-214899D01*
X759580Y-210479D01*
X762000Y-205700D01*
X763760Y-200620D01*
X764840Y-195360D01*
X765200Y-190000D01*
X764840Y-184640D01*
X763760Y-179380D01*
X762000Y-174300D01*
X759580Y-169520D01*
X756540Y-165100D01*
X752940Y-161100D01*
X748840Y-157640D01*
X744320Y-154760D01*
X739440Y-152500D01*
X735620Y-151280D01*
X714659Y-143420D01*
X713240Y-142500D01*
X612360Y-41640D01*
X609580Y-39540D01*
X606560Y-38040D01*
X603340Y-37120D01*
X599820Y-36800D01*
X384300Y-36820D01*
X380840Y-37300D01*
X377660Y-38360D01*
X374720Y-40000D01*
X372000Y-42260D01*
X358640Y-55620D01*
X357340Y-56500D01*
X355800Y-56800D01*
X348120Y-56800D01*
X346900Y-56600D01*
X345800Y-56060D01*
X327100Y-42699D01*
X325720Y-41540D01*
X321100Y-38460D01*
X316140Y-36020D01*
X310920Y-34240D01*
X305500Y-33160D01*
X300000Y-32800D01*
X294500Y-33160D01*
X289080Y-34240D01*
X283860Y-36020D01*
X278900Y-38460D01*
X274320Y-41520D01*
X270160Y-45160D01*
X266520Y-49320D01*
X263460Y-53900D01*
X261020Y-58860D01*
X259240Y-64080D01*
X258160Y-69500D01*
X257800Y-75000D01*
X258160Y-80500D01*
X259240Y-85920D01*
X261020Y-91140D01*
X263460Y-96100D01*
X266520Y-100680D01*
X270160Y-104840D01*
X274320Y-108480D01*
X278900Y-111540D01*
X283860Y-113980D01*
X289080Y-115760D01*
X294500Y-116840D01*
X300000Y-117200D01*
X305500Y-116840D01*
X310920Y-115760D01*
X316140Y-113980D01*
X321100Y-111540D01*
X325720Y-108460D01*
X327100Y-107300D01*
X345800Y-93940D01*
X346900Y-93400D01*
X348120Y-93200D01*
X365700Y-93180D01*
X369159Y-92700D01*
X372340Y-91640D01*
X375280Y-90000D01*
X378000Y-87739D01*
X391360Y-74380D01*
X392660Y-73500D01*
X394200Y-73200D01*
X590800Y-73200D01*
X592340Y-73500D01*
X593640Y-74380D01*
X683600Y-164340D01*
X684460Y-165620D01*
X684760Y-167120D01*
X684980Y-186380D01*
X684900Y-187320D01*
X684900Y-192680D01*
X685620Y-198000D01*
X687039Y-203180D01*
X689120Y-208120D01*
X691860Y-212740D01*
X695200Y-216960D01*
X699060Y-220700D01*
X703379Y-223880D01*
X708080Y-226460D01*
X713100Y-228380D01*
X718319Y-229640D01*
G37*
G36*
X1545000Y-155200D02*
G01*
X1551060Y-154820D01*
X1557020Y-153740D01*
X1562800Y-151940D01*
X1568320Y-149440D01*
X1573520Y-146300D01*
X1578280Y-142560D01*
X1582560Y-138280D01*
X1586300Y-133520D01*
X1589440Y-128320D01*
X1591940Y-122800D01*
X1593740Y-117020D01*
X1594820Y-111060D01*
X1595200Y-105000D01*
X1594820Y-98940D01*
X1593740Y-92980D01*
X1591940Y-87200D01*
X1589440Y-81679D01*
X1586300Y-76480D01*
X1582560Y-71720D01*
X1578280Y-67440D01*
X1573520Y-63700D01*
X1568320Y-60560D01*
X1562800Y-58060D01*
X1557020Y-56260D01*
X1551060Y-55180D01*
X1545000Y-54800D01*
X1538940Y-55180D01*
X1532980Y-56260D01*
X1527200Y-58060D01*
X1521680Y-60560D01*
X1516480Y-63700D01*
X1511720Y-67440D01*
X1507440Y-71720D01*
X1503700Y-76480D01*
X1500560Y-81679D01*
X1498060Y-87200D01*
X1496260Y-92980D01*
X1495180Y-98940D01*
X1494800Y-105000D01*
X1495180Y-111060D01*
X1496260Y-117020D01*
X1498060Y-122800D01*
X1500560Y-128320D01*
X1503700Y-133520D01*
X1507440Y-138280D01*
X1511720Y-142560D01*
X1516480Y-146300D01*
X1521680Y-149440D01*
X1527200Y-151940D01*
X1532980Y-153740D01*
X1538940Y-154820D01*
G37*
G36*
X105000Y-155200D02*
G01*
X111060Y-154820D01*
X117020Y-153740D01*
X122800Y-151940D01*
X128320Y-149440D01*
X133520Y-146300D01*
X138280Y-142560D01*
X142560Y-138280D01*
X146300Y-133520D01*
X149440Y-128320D01*
X151940Y-122800D01*
X153740Y-117020D01*
X154820Y-111060D01*
X155200Y-105000D01*
X154820Y-98940D01*
X153740Y-92980D01*
X151940Y-87200D01*
X149440Y-81679D01*
X146300Y-76480D01*
X142560Y-71720D01*
X138280Y-67440D01*
X133520Y-63700D01*
X128320Y-60560D01*
X122800Y-58060D01*
X117020Y-56260D01*
X111060Y-55180D01*
X105000Y-54800D01*
X98940Y-55180D01*
X92980Y-56260D01*
X87200Y-58060D01*
X81679Y-60560D01*
X76480Y-63700D01*
X71720Y-67440D01*
X67440Y-71720D01*
X63700Y-76480D01*
X60560Y-81679D01*
X58060Y-87200D01*
X56260Y-92980D01*
X55180Y-98940D01*
X54800Y-105000D01*
X55180Y-111060D01*
X56260Y-117020D01*
X58060Y-122800D01*
X60560Y-128320D01*
X63700Y-133520D01*
X67440Y-138280D01*
X71720Y-142560D01*
X76480Y-146300D01*
X81679Y-149440D01*
X87200Y-151940D01*
X92980Y-153740D01*
X98940Y-154820D01*
G37*

%LPD*%
G36*
X1038780Y-920000D02*
G01*
X1038780Y-940000D01*
X1050780Y-934000D01*
X1050780Y-926000D01*
G37*
G36*
X1511220Y-920000D02*
G01*
X1499220Y-926000D01*
X1499220Y-934000D01*
X1511220Y-940000D01*
G37*
G36*
X1546600Y-892400D02*
G01*
X1540600Y-904400D01*
X1560600Y-904400D01*
X1554600Y-892400D01*
G37*
G36*
X861000Y-894460D02*
G01*
X855000Y-906460D01*
X875000Y-906460D01*
X869000Y-894460D01*
G37*
G36*
X775000Y-963540D02*
G01*
X781000Y-975540D01*
X789000Y-975540D01*
X795000Y-963540D01*
G37*
G36*
X762159Y-925000D02*
G01*
X750160Y-931000D01*
X750160Y-939000D01*
X762159Y-945000D01*
G37*
G36*
X781000Y-1179460D02*
G01*
X775000Y-1191460D01*
X795000Y-1191460D01*
X789000Y-1179460D01*
G37*
G36*
X854820Y-1248540D02*
G01*
X860740Y-1260540D01*
X868740Y-1260540D01*
X874820Y-1248540D01*
G37*
G36*
X1520000Y-588540D02*
G01*
X1526000Y-595000D01*
X1534000Y-595000D01*
X1540000Y-588540D01*
G37*
G36*
X1427160Y-550000D02*
G01*
X1415160Y-556000D01*
X1415160Y-564000D01*
X1427160Y-570000D01*
G37*
G36*
X831000Y-619460D02*
G01*
X825000Y-631460D01*
X845000Y-631460D01*
X839000Y-619460D01*
G37*
G36*
X825000Y-688540D02*
G01*
X831000Y-700540D01*
X839000Y-700540D01*
X845000Y-688540D01*
G37*
G36*
X732159Y-650000D02*
G01*
X720160Y-656000D01*
X720160Y-664000D01*
X732159Y-670000D01*
G37*
G36*
X861000Y-1084460D02*
G01*
X855000Y-1096460D01*
X875000Y-1096460D01*
X869000Y-1084460D01*
G37*
G36*
X853000Y-1060460D02*
G01*
X842159Y-1096460D01*
X887840Y-1096460D01*
X877000Y-1060460D01*
G37*
G36*
X775000Y-1153540D02*
G01*
X781000Y-1165540D01*
X789000Y-1165540D01*
X795000Y-1153540D01*
G37*
G36*
X762159Y-1115000D02*
G01*
X750160Y-1121000D01*
X750160Y-1129000D01*
X762159Y-1135000D01*
G37*
G36*
X855000Y-1058540D02*
G01*
X861000Y-1070540D01*
X869000Y-1070540D01*
X875000Y-1058540D01*
G37*
G36*
X887840Y-1001460D02*
G01*
X887840Y-1058540D01*
X890000Y-1042000D01*
X890000Y-1018000D01*
G37*
G36*
X842159Y-1058540D02*
G01*
X853000Y-1094540D01*
X877000Y-1094540D01*
X887840Y-1058540D01*
G37*
G36*
X781000Y-989460D02*
G01*
X775000Y-1001460D01*
X795000Y-1001460D01*
X789000Y-989460D01*
G37*
G36*
X732159Y-536460D02*
G01*
X705000Y-553000D01*
X705000Y-577000D01*
X732159Y-593540D01*
G37*
G36*
X825000Y-593540D02*
G01*
X831000Y-605540D01*
X839000Y-605540D01*
X845000Y-593540D01*
G37*
G36*
X1267160Y-626460D02*
G01*
X1231160Y-643000D01*
X1231160Y-667000D01*
X1267160Y-683540D01*
G37*
G36*
X1392840Y-645000D02*
G01*
X1392840Y-665000D01*
X1404840Y-659000D01*
X1404840Y-651000D01*
G37*
G36*
X1392840Y-645000D02*
G01*
X1392840Y-665000D01*
X1404840Y-659000D01*
X1404840Y-651000D01*
G37*
G36*
X697840Y-650000D02*
G01*
X697840Y-670000D01*
X709840Y-664000D01*
X709840Y-656000D01*
G37*
G36*
X666000Y-619460D02*
G01*
X660000Y-631460D01*
X680000Y-631460D01*
X674000Y-619460D01*
G37*
G36*
X860639Y-1274460D02*
G01*
X854560Y-1286459D01*
X874560Y-1286459D01*
X868640Y-1274460D01*
G37*
G36*
X855000Y-868540D02*
G01*
X861000Y-880540D01*
X869000Y-880540D01*
X875000Y-868540D01*
G37*
G36*
X899840Y-799500D02*
G01*
X887840Y-811460D01*
X887840Y-827159D01*
X899840Y-810819D01*
G37*
G36*
X1392840Y-550000D02*
G01*
X1392840Y-570000D01*
X1404840Y-564000D01*
X1404840Y-556000D01*
G37*
G36*
X1366000Y-519460D02*
G01*
X1360000Y-531460D01*
X1380000Y-531460D01*
X1374000Y-519460D01*
G37*
G36*
X492060Y-391000D02*
G01*
X483660Y-396000D01*
X483660Y-404000D01*
X492060Y-409000D01*
G37*
G36*
X637940Y-391000D02*
G01*
X637940Y-409000D01*
X646340Y-404000D01*
X646340Y-396000D01*
G37*
G36*
X1006000Y-773660D02*
G01*
X1001000Y-782060D01*
X1019000Y-782060D01*
X1014000Y-773660D01*
G37*
G36*
X897940Y-471000D02*
G01*
X897940Y-489000D01*
X906340Y-484000D01*
X906340Y-476000D01*
G37*
G36*
X926000Y-522939D02*
G01*
X931000Y-531340D01*
X939000Y-531340D01*
X944000Y-522939D01*
G37*
G36*
X927060Y-1261000D02*
G01*
X918660Y-1266000D01*
X918660Y-1274000D01*
X927060Y-1279000D01*
G37*
G36*
X1186340Y-643000D02*
G01*
X1177940Y-646000D01*
X1177940Y-664000D01*
X1186340Y-667000D01*
G37*
G36*
X1282940Y-476000D02*
G01*
X1282940Y-494000D01*
X1291339Y-489000D01*
X1291339Y-481000D01*
G37*
G36*
X721340Y-553000D02*
G01*
X712940Y-556000D01*
X712940Y-574000D01*
X721340Y-577000D01*
G37*
G36*
X918020Y-989240D02*
G01*
X909960Y-993060D01*
X926940Y-1010040D01*
X930759Y-1001979D01*
G37*
G36*
X715699Y-906720D02*
G01*
X711919Y-959740D01*
X738259Y-939000D01*
X738840Y-931000D01*
G37*
G36*
X711919Y-1100260D02*
G01*
X715699Y-1153260D01*
X738840Y-1129000D01*
X738259Y-1121000D01*
G37*
G36*
X143000Y-1101840D02*
G01*
X143000Y-1155000D01*
X167820Y-1132420D01*
X167820Y-1124420D01*
G37*
G36*
X321160Y-151000D02*
G01*
X321160Y-199000D01*
X340000Y-183000D01*
X340000Y-167000D01*
G37*
G36*
X321160Y-51000D02*
G01*
X321160Y-99000D01*
X343560Y-83000D01*
X343560Y-67000D01*
G37*
G36*
X619840Y-148520D02*
G01*
X603100Y-154400D01*
X597200Y-178740D01*
X639660Y-163820D01*
G37*
G36*
X708199Y-151900D02*
G01*
X694900Y-161220D01*
X695180Y-186660D01*
X732039Y-160840D01*
G37*
G36*
X796260Y-298600D02*
G01*
X804040Y-325300D01*
X811780Y-328880D01*
X837120Y-317440D01*
G37*
G36*
X895180Y-293340D02*
G01*
X898240Y-321120D01*
X904880Y-325780D01*
X932039Y-319160D01*
G37*
G36*
X995060Y-188120D02*
G01*
X993300Y-216060D01*
X998940Y-221700D01*
X1026880Y-219940D01*
G37*
G36*
X244740Y-401940D02*
G01*
X244740Y-458060D01*
X270920Y-434000D01*
X270920Y-426000D01*
G37*
G36*
X244740Y-301940D02*
G01*
X244740Y-358060D01*
X270920Y-334000D01*
X270920Y-326000D01*
G37*
D11*
X1369399Y-560000D02*
G01*
X1450000Y-560000D01*
X999399Y-930000D02*
G01*
X1550600Y-930000D01*
X864399Y-1315000D02*
G01*
X865000Y-1220000D01*
X785000Y-1220000D02*
G01*
X785000Y-1125000D01*
X865000Y-1125000D02*
G01*
X865000Y-1030000D01*
X785000Y-1030000D02*
G01*
X785000Y-935000D01*
X785000Y-935000D02*
G01*
X693900Y-935000D01*
X690399Y-931599D01*
X785000Y-1125000D02*
G01*
X693800Y-1125000D01*
X690399Y-1128400D01*
X675000Y-660000D02*
G01*
X755000Y-660000D01*
X835000Y-565000D02*
G01*
X835000Y-660000D01*
X865000Y-935000D02*
G01*
X865000Y-840000D01*
X119600Y-1128400D02*
G01*
X281599Y-1128400D01*
X650000Y-760000D01*
X780000Y-760000D01*
X835000Y-705000D01*
X835000Y-660000D01*
D12*
X930000Y-990000D02*
G01*
X890000Y-1030000D01*
X865000Y-1030000D01*
X865000Y-1125000D02*
G01*
X865000Y-1030000D01*
X705000Y-565000D02*
G01*
X755000Y-565000D01*
D11*
X1275000Y-485000D02*
G01*
X1350000Y-485000D01*
X1370000Y-505000D01*
X1370000Y-560000D01*
D12*
X1170000Y-655000D02*
G01*
X1290000Y-655000D01*
D11*
X500000Y-400000D02*
G01*
X350000Y-400000D01*
X320000Y-430000D01*
X215000Y-430000D01*
X825000Y-290000D02*
G01*
X825000Y-310000D01*
X785000Y-350000D01*
X330000Y-350000D01*
X310000Y-330000D01*
X215000Y-330000D01*
X864705Y-1266648D02*
G01*
X868056Y-1270000D01*
X935000Y-1270000D01*
X865000Y-840000D02*
G01*
X935000Y-770000D01*
X935000Y-515000D01*
X890000Y-480000D02*
G01*
X945000Y-480000D01*
X1010000Y-545000D01*
X1010000Y-790000D01*
D13*
X625000Y-190000D02*
G01*
X625000Y-165000D01*
X560000Y-100000D01*
X415000Y-100000D01*
X340000Y-175000D01*
X300000Y-175000D01*
D11*
X1025000Y-190000D02*
G01*
X975000Y-240000D01*
X975000Y-325000D01*
X870000Y-430000D01*
X720000Y-430000D01*
X670000Y-480000D01*
X670000Y-655000D01*
X675000Y-660000D01*
D13*
X725000Y-190000D02*
G01*
X725000Y-180000D01*
X600000Y-55000D01*
X385000Y-55000D01*
X365000Y-75000D01*
X300000Y-75000D01*
D11*
X925000Y-290000D02*
G01*
X925000Y-300000D01*
X835000Y-390000D01*
X670000Y-390000D01*
X660000Y-400000D01*
X630000Y-400000D01*
X1370000Y-655000D02*
G01*
X1430000Y-655000D01*
X1550600Y-775599D01*
X1550600Y-930000D01*
X1530000Y-560000D02*
G01*
X1530000Y-595000D01*
X1470000Y-655000D01*
X1370000Y-655000D01*
D14*
G01*
X1370010Y-560010D03*
G01*
X1290010Y-560010D03*
G01*
X865000Y-840000D03*
G01*
X785000Y-840000D03*
G01*
X865010Y-1315010D03*
G01*
X785010Y-1315010D03*
G01*
X675010Y-660010D03*
G01*
X595010Y-660010D03*
G01*
X1370000Y-655000D03*
G01*
X1290000Y-655000D03*
G01*
X835000Y-565000D03*
G01*
X755000Y-565000D03*
G36*
X762165Y-1001457D02*
G01*
X807834Y-1001457D01*
X807834Y-1058542D01*
X762165Y-1058542D01*
G37*
G36*
X842165Y-1001457D02*
G01*
X887834Y-1001457D01*
X887834Y-1058542D01*
X842165Y-1058542D01*
G37*
G36*
X762165Y-1096457D02*
G01*
X807834Y-1096457D01*
X807834Y-1153542D01*
X762165Y-1153542D01*
G37*
G36*
X842165Y-1096457D02*
G01*
X887834Y-1096457D01*
X887834Y-1153542D01*
X842165Y-1153542D01*
G37*
G36*
X732165Y-631457D02*
G01*
X777834Y-631457D01*
X777834Y-688542D01*
X732165Y-688542D01*
G37*
G36*
X812165Y-631457D02*
G01*
X857834Y-631457D01*
X857834Y-688542D01*
X812165Y-688542D01*
G37*
G36*
X1427165Y-531457D02*
G01*
X1472834Y-531457D01*
X1472834Y-588542D01*
X1427165Y-588542D01*
G37*
G36*
X1507165Y-531457D02*
G01*
X1552834Y-531457D01*
X1552834Y-588542D01*
X1507165Y-588542D01*
G37*
G01*
X865000Y-1220000D03*
G01*
X785000Y-1220000D03*
G36*
X762165Y-906457D02*
G01*
X807834Y-906457D01*
X807834Y-963542D01*
X762165Y-963542D01*
G37*
G36*
X842165Y-906457D02*
G01*
X887834Y-906457D01*
X887834Y-963542D01*
X842165Y-963542D01*
G37*
D15*
G01*
X1550590Y-1130000D03*
G01*
X999409Y-1130000D03*
G01*
X1550590Y-930000D03*
G01*
X999409Y-930000D03*
D16*
G01*
X1025000Y-290000D03*
G01*
X1025000Y-190000D03*
G01*
X925000Y-290000D03*
G01*
X925000Y-190000D03*
G01*
X825000Y-290000D03*
G01*
X825000Y-190000D03*
G01*
X725000Y-290000D03*
G01*
X725000Y-190000D03*
G01*
X625000Y-290000D03*
G01*
X625000Y-190000D03*
D17*
G01*
X220000Y-330000D03*
G01*
X220000Y-430000D03*
G01*
X220000Y-530000D03*
G01*
X220000Y-630000D03*
G01*
X1570000Y-280000D03*
G01*
X1570000Y-680000D03*
D18*
G01*
X300000Y-75000D03*
G01*
X300000Y-175000D03*
D19*
G01*
X119569Y-1128420D03*
G01*
X119569Y-931570D03*
G01*
X690429Y-1128420D03*
G01*
X690429Y-1030000D03*
G01*
X690429Y-931570D03*
D12*
G01*
X930000Y-990000D03*
G01*
X705000Y-565000D03*
G01*
X1275000Y-485000D03*
G01*
X1170000Y-655000D03*
G01*
X935000Y-1270000D03*
G01*
X935000Y-515000D03*
G01*
X890000Y-480000D03*
G01*
X1010000Y-790000D03*
G01*
X630000Y-400000D03*
G01*
X500000Y-400000D03*
D20*
X367601Y-1254409D02*
G01*
X422718Y-1254409D01*
X367601Y-805590D02*
G01*
X422718Y-805590D01*
M02*
