G04 Layer: BottomLayer*
G04 EasyEDA v6.4.25, 2021-09-30T02:39:23--7:00*
G04 cb1d7dd1d9244e3faa1512210410d729,1c607ed5ed934db7a0414c4b005609ca,10*
G04 Gerber Generator version 0.2*
G04 Scale: 100 percent, Rotated: No, Reflected: No *
G04 Dimensions in inches *
G04 leading zeros omitted , absolute positions ,3 integer and 6 decimal *
%FSLAX36Y36*%
%MOIN*%

%ADD10C,0.0100*%
%ADD12C,0.0080*%
%ADD13C,0.0240*%
%ADD16C,0.0630*%
%ADD17C,0.0748*%
%ADD18C,0.0709*%
%ADD19C,0.0600*%
%ADD20C,0.0945*%

%LPD*%
G36*
X115120Y-1459800D02*
G01*
X106180Y-1459420D01*
X97579Y-1458320D01*
X89120Y-1456540D01*
X80820Y-1454060D01*
X72760Y-1450900D01*
X64980Y-1447080D01*
X57539Y-1442640D01*
X50500Y-1437580D01*
X43900Y-1431980D01*
X37800Y-1425840D01*
X32200Y-1419220D01*
X27180Y-1412180D01*
X22759Y-1404720D01*
X18980Y-1396940D01*
X15840Y-1388860D01*
X13380Y-1380560D01*
X11620Y-1372080D01*
X10560Y-1363480D01*
X10200Y-1354720D01*
X10200Y-115280D01*
X10580Y-106180D01*
X11680Y-97579D01*
X13460Y-89120D01*
X15940Y-80820D01*
X19100Y-72760D01*
X22919Y-64980D01*
X27360Y-57539D01*
X32420Y-50500D01*
X38020Y-43900D01*
X44160Y-37800D01*
X50780Y-32200D01*
X57820Y-27180D01*
X65279Y-22759D01*
X73060Y-18980D01*
X81140Y-15840D01*
X89440Y-13380D01*
X97920Y-11620D01*
X106519Y-10560D01*
X115280Y-10200D01*
X1534720Y-10200D01*
X1543820Y-10580D01*
X1552420Y-11680D01*
X1560880Y-13460D01*
X1569180Y-15940D01*
X1577240Y-19100D01*
X1585020Y-22919D01*
X1592460Y-27360D01*
X1599500Y-32420D01*
X1606100Y-38020D01*
X1612200Y-44160D01*
X1617800Y-50780D01*
X1622820Y-57820D01*
X1627240Y-65279D01*
X1631020Y-73060D01*
X1634160Y-81140D01*
X1636620Y-89440D01*
X1638380Y-97920D01*
X1639440Y-106519D01*
X1639800Y-115280D01*
X1639800Y-1354720D01*
X1639420Y-1363820D01*
X1638320Y-1372420D01*
X1636540Y-1380880D01*
X1634060Y-1389180D01*
X1630900Y-1397240D01*
X1627080Y-1405020D01*
X1622640Y-1412460D01*
X1617580Y-1419500D01*
X1611980Y-1426100D01*
X1605840Y-1432200D01*
X1599220Y-1437800D01*
X1592180Y-1442820D01*
X1584720Y-1447240D01*
X1576940Y-1451020D01*
X1568860Y-1454160D01*
X1560560Y-1456620D01*
X1552080Y-1458380D01*
X1543480Y-1459440D01*
X1534720Y-1459800D01*
G37*

%LPC*%
G36*
X1545000Y-1415200D02*
G01*
X1551060Y-1414820D01*
X1557020Y-1413740D01*
X1562800Y-1411940D01*
X1568320Y-1409440D01*
X1573520Y-1406300D01*
X1578280Y-1402560D01*
X1582560Y-1398280D01*
X1586300Y-1393520D01*
X1589440Y-1388320D01*
X1591940Y-1382800D01*
X1593740Y-1377020D01*
X1594820Y-1371060D01*
X1595200Y-1365000D01*
X1594820Y-1358940D01*
X1593740Y-1352980D01*
X1591940Y-1347200D01*
X1589440Y-1341680D01*
X1586300Y-1336480D01*
X1582560Y-1331720D01*
X1578280Y-1327440D01*
X1573520Y-1323700D01*
X1568320Y-1320560D01*
X1562800Y-1318060D01*
X1557020Y-1316260D01*
X1551060Y-1315180D01*
X1545000Y-1314800D01*
X1538940Y-1315180D01*
X1532980Y-1316260D01*
X1527200Y-1318060D01*
X1521680Y-1320560D01*
X1516480Y-1323700D01*
X1511720Y-1327440D01*
X1507440Y-1331720D01*
X1503700Y-1336480D01*
X1500560Y-1341680D01*
X1498060Y-1347200D01*
X1496260Y-1352980D01*
X1495180Y-1358940D01*
X1494800Y-1365000D01*
X1495180Y-1371060D01*
X1496260Y-1377020D01*
X1498060Y-1382800D01*
X1500560Y-1388320D01*
X1503700Y-1393520D01*
X1507440Y-1398280D01*
X1511720Y-1402560D01*
X1516480Y-1406300D01*
X1521680Y-1409440D01*
X1527200Y-1411940D01*
X1532980Y-1413740D01*
X1538940Y-1414820D01*
G37*
G36*
X105000Y-1415200D02*
G01*
X111060Y-1414820D01*
X117020Y-1413740D01*
X122800Y-1411940D01*
X128320Y-1409440D01*
X133520Y-1406300D01*
X138280Y-1402560D01*
X142560Y-1398280D01*
X146300Y-1393520D01*
X149440Y-1388320D01*
X151940Y-1382800D01*
X153740Y-1377020D01*
X154820Y-1371060D01*
X155200Y-1365000D01*
X154820Y-1358940D01*
X153740Y-1352980D01*
X151940Y-1347200D01*
X149440Y-1341680D01*
X146300Y-1336480D01*
X142560Y-1331720D01*
X138280Y-1327440D01*
X133520Y-1323700D01*
X128320Y-1320560D01*
X122800Y-1318060D01*
X117020Y-1316260D01*
X111060Y-1315180D01*
X105000Y-1314800D01*
X98940Y-1315180D01*
X92980Y-1316260D01*
X87200Y-1318060D01*
X81679Y-1320560D01*
X76480Y-1323700D01*
X71720Y-1327440D01*
X67440Y-1331720D01*
X63700Y-1336480D01*
X60560Y-1341680D01*
X58060Y-1347200D01*
X56260Y-1352980D01*
X55180Y-1358940D01*
X54800Y-1365000D01*
X55180Y-1371060D01*
X56260Y-1377020D01*
X58060Y-1382800D01*
X60560Y-1388320D01*
X63700Y-1393520D01*
X67440Y-1398280D01*
X71720Y-1402560D01*
X76480Y-1406300D01*
X81679Y-1409440D01*
X87200Y-1411940D01*
X92980Y-1413740D01*
X98940Y-1414820D01*
G37*
G36*
X367720Y-1311860D02*
G01*
X422600Y-1311860D01*
X429159Y-1311480D01*
X435500Y-1310400D01*
X441680Y-1308620D01*
X447640Y-1306160D01*
X453280Y-1303040D01*
X458540Y-1299319D01*
X463340Y-1295020D01*
X467620Y-1290220D01*
X471360Y-1284960D01*
X474460Y-1279340D01*
X476940Y-1273380D01*
X478720Y-1267200D01*
X479799Y-1260840D01*
X480160Y-1254420D01*
X479799Y-1247980D01*
X478720Y-1241620D01*
X476940Y-1235440D01*
X474460Y-1229480D01*
X471360Y-1223860D01*
X467620Y-1218600D01*
X463340Y-1213800D01*
X458540Y-1209500D01*
X453280Y-1205780D01*
X447640Y-1202660D01*
X441680Y-1200200D01*
X435500Y-1198420D01*
X429159Y-1197340D01*
X422600Y-1196960D01*
X367720Y-1196960D01*
X361180Y-1197340D01*
X354820Y-1198420D01*
X348640Y-1200200D01*
X342680Y-1202660D01*
X337040Y-1205780D01*
X331780Y-1209500D01*
X326980Y-1213800D01*
X322700Y-1218600D01*
X318960Y-1223860D01*
X315860Y-1229480D01*
X313380Y-1235440D01*
X311600Y-1241620D01*
X310520Y-1247980D01*
X310160Y-1254420D01*
X310520Y-1260840D01*
X311600Y-1267200D01*
X313380Y-1273380D01*
X315860Y-1279340D01*
X318960Y-1284960D01*
X322700Y-1290220D01*
X326980Y-1295020D01*
X331780Y-1299319D01*
X337040Y-1303040D01*
X342680Y-1306160D01*
X348640Y-1308620D01*
X354820Y-1310400D01*
X361180Y-1311480D01*
G37*
G36*
X935000Y-1292180D02*
G01*
X938860Y-1291840D01*
X942580Y-1290840D01*
X946100Y-1289220D01*
X949260Y-1287000D01*
X952000Y-1284259D01*
X954220Y-1281100D01*
X955840Y-1277580D01*
X956840Y-1273860D01*
X957000Y-1272720D01*
X958300Y-1267580D01*
X958700Y-1266580D01*
X959360Y-1265720D01*
X1019900Y-1205180D01*
X1021900Y-1202720D01*
X1023240Y-1200080D01*
X1024020Y-1197160D01*
X1024200Y-1194840D01*
X1024200Y-810240D01*
X1024340Y-809180D01*
X1024760Y-808199D01*
X1027820Y-803080D01*
X1029220Y-801100D01*
X1030840Y-797580D01*
X1031840Y-793860D01*
X1032180Y-790000D01*
X1031840Y-786140D01*
X1030840Y-782420D01*
X1029220Y-778900D01*
X1027000Y-775740D01*
X1024260Y-773000D01*
X1021100Y-770780D01*
X1017580Y-769160D01*
X1013860Y-768160D01*
X1010000Y-767820D01*
X1006140Y-768160D01*
X1002420Y-769160D01*
X996900Y-771740D01*
X995160Y-771660D01*
X993620Y-770860D01*
X992580Y-769500D01*
X992200Y-767800D01*
X992200Y-575860D01*
X992500Y-574320D01*
X993379Y-573020D01*
X1022180Y-544220D01*
X1023460Y-543360D01*
X1025000Y-543060D01*
X1026540Y-543360D01*
X1027820Y-544220D01*
X1154240Y-670639D01*
X1155740Y-672000D01*
X1157260Y-673180D01*
X1158900Y-674220D01*
X1160620Y-675120D01*
X1162400Y-675860D01*
X1164260Y-676440D01*
X1166140Y-676860D01*
X1168060Y-677120D01*
X1170000Y-677200D01*
X1171940Y-677120D01*
X1173860Y-676860D01*
X1175740Y-676440D01*
X1177600Y-675860D01*
X1179380Y-675120D01*
X1181100Y-674220D01*
X1182740Y-673180D01*
X1184260Y-672000D01*
X1185700Y-670699D01*
X1187000Y-669260D01*
X1188180Y-667740D01*
X1189220Y-666100D01*
X1190120Y-664380D01*
X1190860Y-662600D01*
X1191440Y-660740D01*
X1191860Y-658860D01*
X1192120Y-656940D01*
X1192200Y-655000D01*
X1192120Y-653060D01*
X1191860Y-651140D01*
X1191440Y-649260D01*
X1190860Y-647400D01*
X1190120Y-645620D01*
X1189220Y-643900D01*
X1188180Y-642260D01*
X1187000Y-640740D01*
X1185640Y-639240D01*
X1048379Y-501980D01*
X1047500Y-500680D01*
X1047200Y-499140D01*
X1047200Y-334200D01*
X1047620Y-332400D01*
X1055920Y-315820D01*
X1059580Y-310480D01*
X1062000Y-305700D01*
X1063760Y-300620D01*
X1064840Y-295360D01*
X1065200Y-290000D01*
X1064840Y-284840D01*
X1065060Y-283260D01*
X1065880Y-281880D01*
X1067180Y-280940D01*
X1068740Y-280580D01*
X1070320Y-280860D01*
X1071660Y-281740D01*
X1256720Y-466800D01*
X1257520Y-467939D01*
X1257880Y-469280D01*
X1257760Y-470680D01*
X1257180Y-471920D01*
X1255780Y-473900D01*
X1254160Y-477420D01*
X1253160Y-481140D01*
X1252820Y-485000D01*
X1253160Y-488860D01*
X1254160Y-492580D01*
X1255780Y-496100D01*
X1258000Y-499260D01*
X1260740Y-502000D01*
X1263900Y-504219D01*
X1267420Y-505840D01*
X1271140Y-506840D01*
X1275000Y-507180D01*
X1278860Y-506840D01*
X1282580Y-505840D01*
X1286100Y-504219D01*
X1289259Y-502000D01*
X1292000Y-499260D01*
X1294220Y-496100D01*
X1295840Y-492580D01*
X1296840Y-488860D01*
X1297180Y-485000D01*
X1296840Y-481140D01*
X1295840Y-477420D01*
X1294220Y-473900D01*
X1292660Y-471680D01*
X1289740Y-466760D01*
X1289199Y-465120D01*
X1288860Y-462060D01*
X1287960Y-459240D01*
X1286440Y-456620D01*
X1284920Y-454840D01*
X1060180Y-230100D01*
X1057720Y-228100D01*
X1055080Y-226759D01*
X1053780Y-226420D01*
X1052240Y-225620D01*
X1051180Y-224240D01*
X1050800Y-222560D01*
X1051180Y-220859D01*
X1052220Y-219500D01*
X1052940Y-218900D01*
X1056540Y-214899D01*
X1059580Y-210479D01*
X1062000Y-205700D01*
X1063760Y-200620D01*
X1064840Y-195360D01*
X1065200Y-190000D01*
X1064840Y-184640D01*
X1063760Y-179380D01*
X1062000Y-174300D01*
X1059580Y-169520D01*
X1056540Y-165100D01*
X1052940Y-161100D01*
X1048840Y-157640D01*
X1044320Y-154760D01*
X1039440Y-152500D01*
X1034320Y-150900D01*
X1029020Y-150020D01*
X1023660Y-149840D01*
X1018319Y-150360D01*
X1013100Y-151620D01*
X1008080Y-153540D01*
X1003379Y-156120D01*
X999060Y-159300D01*
X995200Y-163039D01*
X991860Y-167260D01*
X989120Y-171880D01*
X987039Y-176820D01*
X985620Y-182000D01*
X984900Y-187320D01*
X984900Y-192680D01*
X985620Y-198000D01*
X987039Y-203180D01*
X989120Y-208120D01*
X991860Y-212740D01*
X995200Y-216960D01*
X997220Y-218920D01*
X998120Y-220219D01*
X998439Y-221759D01*
X998160Y-223299D01*
X997280Y-224620D01*
X995980Y-225500D01*
X994440Y-225799D01*
X982540Y-225799D01*
X981000Y-225500D01*
X979720Y-224620D01*
X967720Y-212640D01*
X966900Y-211439D01*
X966540Y-210060D01*
X965120Y-187540D01*
X964840Y-184700D01*
X963760Y-179380D01*
X962000Y-174300D01*
X959580Y-169520D01*
X956540Y-165100D01*
X952940Y-161100D01*
X948840Y-157640D01*
X944320Y-154760D01*
X939440Y-152500D01*
X934320Y-150900D01*
X929020Y-150020D01*
X923660Y-149840D01*
X918319Y-150360D01*
X913100Y-151620D01*
X908080Y-153540D01*
X903379Y-156120D01*
X899060Y-159300D01*
X895200Y-163039D01*
X891860Y-167260D01*
X889120Y-171880D01*
X887039Y-176820D01*
X885620Y-182000D01*
X884900Y-187320D01*
X884900Y-192680D01*
X885620Y-198000D01*
X887039Y-203180D01*
X889120Y-208120D01*
X891860Y-212740D01*
X895200Y-216960D01*
X899060Y-220700D01*
X903379Y-223880D01*
X908080Y-226460D01*
X913100Y-228380D01*
X918319Y-229640D01*
X922700Y-230140D01*
X945060Y-231540D01*
X946440Y-231900D01*
X947640Y-232719D01*
X964820Y-249899D01*
X967280Y-251900D01*
X969920Y-253240D01*
X972840Y-254020D01*
X975160Y-254200D01*
X994440Y-254200D01*
X995980Y-254500D01*
X997280Y-255380D01*
X998160Y-256700D01*
X998439Y-258240D01*
X998120Y-259780D01*
X997220Y-261080D01*
X995200Y-263040D01*
X991860Y-267260D01*
X989120Y-271880D01*
X987039Y-276820D01*
X985620Y-282000D01*
X984900Y-287320D01*
X984900Y-292680D01*
X985620Y-298000D01*
X987039Y-303180D01*
X989120Y-308120D01*
X991860Y-312740D01*
X993480Y-314780D01*
X993900Y-315480D01*
X1002380Y-332400D01*
X1002800Y-334200D01*
X1002800Y-499140D01*
X1002500Y-500680D01*
X1001620Y-501980D01*
X961979Y-541620D01*
X960680Y-542500D01*
X959140Y-542800D01*
X945720Y-542800D01*
X944220Y-542500D01*
X942920Y-541660D01*
X942060Y-540400D01*
X941720Y-538900D01*
X941979Y-537380D01*
X942780Y-536080D01*
X944020Y-535180D01*
X946100Y-534220D01*
X949260Y-532000D01*
X952000Y-529260D01*
X954220Y-526100D01*
X955840Y-522580D01*
X956840Y-518860D01*
X957180Y-515000D01*
X956840Y-511140D01*
X955840Y-507420D01*
X954220Y-503900D01*
X952660Y-501680D01*
X949760Y-496800D01*
X949340Y-495820D01*
X949200Y-494760D01*
X949200Y-435200D01*
X948860Y-432060D01*
X947960Y-429240D01*
X946440Y-426620D01*
X944920Y-424840D01*
X885380Y-365280D01*
X884500Y-364000D01*
X884200Y-362460D01*
X884200Y-314400D01*
X884580Y-312720D01*
X885620Y-311360D01*
X887140Y-310540D01*
X888860Y-310460D01*
X890460Y-311100D01*
X891860Y-312740D01*
X895200Y-316960D01*
X899060Y-320700D01*
X903379Y-323880D01*
X908080Y-326460D01*
X913100Y-328380D01*
X918319Y-329640D01*
X923660Y-330160D01*
X929020Y-329980D01*
X934320Y-329099D01*
X939440Y-327500D01*
X944320Y-325240D01*
X948840Y-322360D01*
X952940Y-318900D01*
X956540Y-314900D01*
X959580Y-310480D01*
X962000Y-305700D01*
X963760Y-300620D01*
X964840Y-295360D01*
X965200Y-290000D01*
X964840Y-284640D01*
X963760Y-279380D01*
X962000Y-274300D01*
X959580Y-269520D01*
X956540Y-265100D01*
X952940Y-261100D01*
X948840Y-257640D01*
X944320Y-254760D01*
X939440Y-252500D01*
X934320Y-250900D01*
X929020Y-250020D01*
X923660Y-249840D01*
X918319Y-250360D01*
X913100Y-251620D01*
X908080Y-253540D01*
X903379Y-256119D01*
X899060Y-259300D01*
X895200Y-263040D01*
X891860Y-267260D01*
X890460Y-268900D01*
X888860Y-269540D01*
X887140Y-269460D01*
X885620Y-268640D01*
X884580Y-267280D01*
X884200Y-265600D01*
X884200Y-235200D01*
X883860Y-232060D01*
X882960Y-229240D01*
X881440Y-226620D01*
X879920Y-224840D01*
X867720Y-212640D01*
X866900Y-211439D01*
X866540Y-210060D01*
X865120Y-187540D01*
X864840Y-184700D01*
X863760Y-179380D01*
X862000Y-174300D01*
X859580Y-169520D01*
X856540Y-165100D01*
X852940Y-161100D01*
X848840Y-157640D01*
X844320Y-154760D01*
X839440Y-152500D01*
X834320Y-150900D01*
X829020Y-150020D01*
X823660Y-149840D01*
X818319Y-150360D01*
X813100Y-151620D01*
X808080Y-153540D01*
X803379Y-156120D01*
X799060Y-159300D01*
X795200Y-163039D01*
X791860Y-167260D01*
X789120Y-171880D01*
X787039Y-176820D01*
X785620Y-182000D01*
X784900Y-187320D01*
X784900Y-192680D01*
X785620Y-198000D01*
X787039Y-203180D01*
X789120Y-208120D01*
X791860Y-212740D01*
X795200Y-216960D01*
X799060Y-220700D01*
X803379Y-223880D01*
X808080Y-226460D01*
X813100Y-228380D01*
X818319Y-229640D01*
X822700Y-230140D01*
X845060Y-231540D01*
X846440Y-231900D01*
X847640Y-232719D01*
X854620Y-239720D01*
X855500Y-241000D01*
X855800Y-242540D01*
X855800Y-254899D01*
X855520Y-256380D01*
X854700Y-257659D01*
X853480Y-258540D01*
X852020Y-258900D01*
X850540Y-258700D01*
X844320Y-254760D01*
X839440Y-252500D01*
X834320Y-250900D01*
X829020Y-250020D01*
X823660Y-249840D01*
X818319Y-250360D01*
X813100Y-251620D01*
X808080Y-253540D01*
X803379Y-256119D01*
X799060Y-259300D01*
X795200Y-263040D01*
X791860Y-267260D01*
X789120Y-271880D01*
X787039Y-276820D01*
X785620Y-282000D01*
X784900Y-287320D01*
X784900Y-292680D01*
X785620Y-298000D01*
X787039Y-303180D01*
X789120Y-308120D01*
X791860Y-312740D01*
X795200Y-316960D01*
X799060Y-320700D01*
X803379Y-323880D01*
X808080Y-326460D01*
X813100Y-328380D01*
X818319Y-329640D01*
X823660Y-330160D01*
X829020Y-329980D01*
X834320Y-329099D01*
X839440Y-327500D01*
X844320Y-325240D01*
X850540Y-321300D01*
X852020Y-321100D01*
X853480Y-321460D01*
X854700Y-322340D01*
X855520Y-323620D01*
X855800Y-325100D01*
X855800Y-369799D01*
X856140Y-372939D01*
X857039Y-375760D01*
X858560Y-378380D01*
X860080Y-380160D01*
X919620Y-439720D01*
X920500Y-441000D01*
X920800Y-442540D01*
X920800Y-494760D01*
X920660Y-495820D01*
X920240Y-496800D01*
X917180Y-501940D01*
X915780Y-503900D01*
X914160Y-507420D01*
X913160Y-511140D01*
X912820Y-515000D01*
X913160Y-518860D01*
X914160Y-522580D01*
X915780Y-526100D01*
X918000Y-529260D01*
X920740Y-532000D01*
X923900Y-534220D01*
X925980Y-535180D01*
X927220Y-536080D01*
X928020Y-537380D01*
X928280Y-538900D01*
X927940Y-540400D01*
X927080Y-541660D01*
X925780Y-542500D01*
X924280Y-542800D01*
X550860Y-542800D01*
X549320Y-542500D01*
X548020Y-541620D01*
X520760Y-514360D01*
X519260Y-513000D01*
X517740Y-511820D01*
X516100Y-510780D01*
X514380Y-509880D01*
X512600Y-509140D01*
X510740Y-508560D01*
X508860Y-508140D01*
X506940Y-507879D01*
X504920Y-507800D01*
X274920Y-507800D01*
X273840Y-507640D01*
X272840Y-507220D01*
X250740Y-493660D01*
X246280Y-490319D01*
X241220Y-487400D01*
X235820Y-485120D01*
X231380Y-483840D01*
X229860Y-483040D01*
X228840Y-481680D01*
X228460Y-480000D01*
X228840Y-478320D01*
X229860Y-476960D01*
X231380Y-476160D01*
X235820Y-474880D01*
X241220Y-472600D01*
X246280Y-469680D01*
X250960Y-466140D01*
X255180Y-462060D01*
X258840Y-457500D01*
X261940Y-452520D01*
X264380Y-447200D01*
X266160Y-441599D01*
X267240Y-435840D01*
X267600Y-430000D01*
X267240Y-424159D01*
X266160Y-418400D01*
X264380Y-412800D01*
X261940Y-407480D01*
X258840Y-402500D01*
X255180Y-397939D01*
X250960Y-393860D01*
X246280Y-390319D01*
X241220Y-387400D01*
X235820Y-385120D01*
X231380Y-383840D01*
X229860Y-383040D01*
X228840Y-381680D01*
X228460Y-380000D01*
X228840Y-378320D01*
X229860Y-376960D01*
X231380Y-376160D01*
X235820Y-374880D01*
X241220Y-372600D01*
X246280Y-369680D01*
X250960Y-366140D01*
X255180Y-362060D01*
X258840Y-357500D01*
X261940Y-352520D01*
X264380Y-347200D01*
X266160Y-341599D01*
X267240Y-335840D01*
X267600Y-330000D01*
X267240Y-324159D01*
X266160Y-318400D01*
X264380Y-312800D01*
X261940Y-307480D01*
X258840Y-302500D01*
X255180Y-297940D01*
X250960Y-293860D01*
X246280Y-290320D01*
X241220Y-287400D01*
X235820Y-285120D01*
X230180Y-283500D01*
X224400Y-282600D01*
X218540Y-282420D01*
X212700Y-282960D01*
X206980Y-284220D01*
X201439Y-286180D01*
X196200Y-288780D01*
X191320Y-292020D01*
X186860Y-295840D01*
X182920Y-300160D01*
X179540Y-304940D01*
X176759Y-310100D01*
X174640Y-315580D01*
X173220Y-321260D01*
X172500Y-327080D01*
X172500Y-332920D01*
X173220Y-338740D01*
X174640Y-344420D01*
X176759Y-349900D01*
X179540Y-355060D01*
X182920Y-359840D01*
X186860Y-364159D01*
X191320Y-367980D01*
X196200Y-371220D01*
X201439Y-373820D01*
X206980Y-375780D01*
X208420Y-376100D01*
X209820Y-376700D01*
X210900Y-377800D01*
X211480Y-379240D01*
X211480Y-380760D01*
X210900Y-382200D01*
X209820Y-383300D01*
X208420Y-383900D01*
X206980Y-384219D01*
X201439Y-386180D01*
X196200Y-388780D01*
X191320Y-392020D01*
X186860Y-395840D01*
X182920Y-400160D01*
X179540Y-404940D01*
X176759Y-410100D01*
X174640Y-415580D01*
X173220Y-421260D01*
X172500Y-427080D01*
X172500Y-432920D01*
X173220Y-438740D01*
X174640Y-444420D01*
X176759Y-449900D01*
X179540Y-455060D01*
X182920Y-459840D01*
X186860Y-464159D01*
X191320Y-467980D01*
X196200Y-471220D01*
X201439Y-473820D01*
X206980Y-475780D01*
X208420Y-476100D01*
X209820Y-476700D01*
X210900Y-477800D01*
X211480Y-479240D01*
X211480Y-480760D01*
X210900Y-482200D01*
X209820Y-483300D01*
X208420Y-483900D01*
X206980Y-484219D01*
X201439Y-486180D01*
X196200Y-488780D01*
X191320Y-492020D01*
X186860Y-495840D01*
X182920Y-500160D01*
X179540Y-504940D01*
X176759Y-510100D01*
X174640Y-515580D01*
X173220Y-521260D01*
X172500Y-527080D01*
X172500Y-532920D01*
X173220Y-538740D01*
X174640Y-544420D01*
X176759Y-549900D01*
X179540Y-555060D01*
X182920Y-559840D01*
X186860Y-564160D01*
X191320Y-567980D01*
X196200Y-571220D01*
X201439Y-573820D01*
X206980Y-575780D01*
X212700Y-577040D01*
X218540Y-577580D01*
X224400Y-577400D01*
X230180Y-576500D01*
X235820Y-574880D01*
X241220Y-572600D01*
X246280Y-569680D01*
X250740Y-566340D01*
X272840Y-552780D01*
X273840Y-552360D01*
X274920Y-552200D01*
X494140Y-552200D01*
X495680Y-552500D01*
X496980Y-553380D01*
X524240Y-580640D01*
X525740Y-582000D01*
X527260Y-583180D01*
X528900Y-584220D01*
X530620Y-585120D01*
X532400Y-585860D01*
X534260Y-586440D01*
X536140Y-586860D01*
X538060Y-587120D01*
X540080Y-587200D01*
X943800Y-587200D01*
X945340Y-587500D01*
X946620Y-588380D01*
X947500Y-589660D01*
X947800Y-591200D01*
X947800Y-814140D01*
X947500Y-815680D01*
X946620Y-816979D01*
X919360Y-844240D01*
X918000Y-845740D01*
X916820Y-847260D01*
X915780Y-848900D01*
X914880Y-850620D01*
X914140Y-852400D01*
X913560Y-854260D01*
X913139Y-856140D01*
X912880Y-858060D01*
X912800Y-860080D01*
X912800Y-974659D01*
X912620Y-975819D01*
X912140Y-976880D01*
X910759Y-978940D01*
X909880Y-980620D01*
X909140Y-982400D01*
X908560Y-984260D01*
X908139Y-986140D01*
X907880Y-988060D01*
X907800Y-990000D01*
X907880Y-991940D01*
X908139Y-993860D01*
X908560Y-995740D01*
X909140Y-997600D01*
X909880Y-999380D01*
X910780Y-1001100D01*
X911820Y-1002740D01*
X913000Y-1004260D01*
X914300Y-1005699D01*
X915740Y-1007000D01*
X917260Y-1008180D01*
X918900Y-1009220D01*
X920620Y-1010120D01*
X922400Y-1010860D01*
X924260Y-1011440D01*
X926140Y-1011860D01*
X928060Y-1012120D01*
X930000Y-1012200D01*
X931940Y-1012120D01*
X933860Y-1011860D01*
X935740Y-1011440D01*
X937600Y-1010860D01*
X939380Y-1010120D01*
X941100Y-1009220D01*
X942740Y-1008180D01*
X944260Y-1007000D01*
X945759Y-1005639D01*
X950639Y-1000759D01*
X952000Y-999260D01*
X953180Y-997740D01*
X954220Y-996100D01*
X955120Y-994380D01*
X955860Y-992600D01*
X956440Y-990740D01*
X956860Y-988860D01*
X957120Y-986940D01*
X957200Y-984920D01*
X957200Y-870860D01*
X957500Y-869320D01*
X958379Y-868020D01*
X985639Y-840759D01*
X986979Y-839300D01*
X988580Y-837120D01*
X989820Y-836020D01*
X991400Y-835520D01*
X993060Y-835699D01*
X994479Y-836540D01*
X995460Y-837880D01*
X995800Y-839500D01*
X995800Y-1187460D01*
X995500Y-1189000D01*
X994620Y-1190280D01*
X939280Y-1245640D01*
X938420Y-1246300D01*
X937420Y-1246700D01*
X932280Y-1248000D01*
X931140Y-1248160D01*
X927420Y-1249160D01*
X923900Y-1250780D01*
X920740Y-1253000D01*
X918000Y-1255740D01*
X915780Y-1258900D01*
X914160Y-1262420D01*
X913160Y-1266140D01*
X912820Y-1270000D01*
X913160Y-1273860D01*
X914160Y-1277580D01*
X915780Y-1281100D01*
X918000Y-1284259D01*
X920740Y-1287000D01*
X923900Y-1289220D01*
X927420Y-1290840D01*
X931140Y-1291840D01*
G37*
G36*
X690420Y-1174040D02*
G01*
X696140Y-1173680D01*
X701780Y-1172620D01*
X707220Y-1170840D01*
X712420Y-1168400D01*
X717240Y-1165340D01*
X721660Y-1161680D01*
X725580Y-1157500D01*
X728960Y-1152860D01*
X731720Y-1147840D01*
X733820Y-1142520D01*
X735240Y-1136960D01*
X735960Y-1131280D01*
X735960Y-1125560D01*
X735240Y-1119880D01*
X733820Y-1114320D01*
X731720Y-1109000D01*
X728960Y-1103980D01*
X725580Y-1099340D01*
X721660Y-1095160D01*
X717240Y-1091500D01*
X712420Y-1088440D01*
X707220Y-1086000D01*
X701780Y-1084220D01*
X696140Y-1083160D01*
X690440Y-1082800D01*
X684560Y-1083180D01*
X679080Y-1084220D01*
X673640Y-1086000D01*
X668439Y-1088440D01*
X663620Y-1091500D01*
X659200Y-1095160D01*
X655280Y-1099340D01*
X651900Y-1103980D01*
X649140Y-1109000D01*
X647039Y-1114320D01*
X645620Y-1119880D01*
X644900Y-1125560D01*
X644900Y-1131280D01*
X645620Y-1136960D01*
X647039Y-1142520D01*
X649140Y-1147840D01*
X651900Y-1152860D01*
X655280Y-1157500D01*
X659200Y-1161680D01*
X663620Y-1165340D01*
X668439Y-1168400D01*
X673640Y-1170840D01*
X679080Y-1172620D01*
X684720Y-1173680D01*
G37*
G36*
X119580Y-1174040D02*
G01*
X125280Y-1173680D01*
X130920Y-1172620D01*
X136360Y-1170840D01*
X141560Y-1168400D01*
X146380Y-1165340D01*
X150800Y-1161680D01*
X154720Y-1157500D01*
X158100Y-1152860D01*
X160859Y-1147840D01*
X162960Y-1142520D01*
X164380Y-1136960D01*
X165100Y-1131280D01*
X165100Y-1125560D01*
X164380Y-1119880D01*
X162960Y-1114320D01*
X160859Y-1109000D01*
X158100Y-1103980D01*
X154720Y-1099340D01*
X150800Y-1095160D01*
X146380Y-1091500D01*
X141560Y-1088440D01*
X136360Y-1086000D01*
X130920Y-1084220D01*
X125280Y-1083160D01*
X119580Y-1082800D01*
X113859Y-1083160D01*
X108219Y-1084220D01*
X102780Y-1086000D01*
X97579Y-1088440D01*
X92760Y-1091500D01*
X88340Y-1095160D01*
X84420Y-1099340D01*
X81039Y-1103980D01*
X78280Y-1109000D01*
X76180Y-1114320D01*
X74760Y-1119880D01*
X74040Y-1125560D01*
X74040Y-1131280D01*
X74760Y-1136960D01*
X76180Y-1142520D01*
X78280Y-1147840D01*
X81039Y-1152860D01*
X84420Y-1157500D01*
X88340Y-1161680D01*
X92760Y-1165340D01*
X97579Y-1168400D01*
X102780Y-1170840D01*
X108219Y-1172620D01*
X113859Y-1173680D01*
G37*
G36*
X710639Y-1070820D02*
G01*
X712420Y-1069980D01*
X717240Y-1066920D01*
X721660Y-1063260D01*
X725580Y-1059080D01*
X728960Y-1054440D01*
X731280Y-1050220D01*
X710639Y-1050220D01*
G37*
G36*
X670220Y-1070820D02*
G01*
X670220Y-1050220D01*
X649580Y-1050220D01*
X651900Y-1054440D01*
X655280Y-1059080D01*
X659200Y-1063260D01*
X663620Y-1066920D01*
X668439Y-1069980D01*
G37*
G36*
X649580Y-1009780D02*
G01*
X670220Y-1009780D01*
X670220Y-989180D01*
X668439Y-990020D01*
X663620Y-993080D01*
X659200Y-996740D01*
X655280Y-1000920D01*
X651900Y-1005560D01*
G37*
G36*
X710639Y-1009780D02*
G01*
X731280Y-1009780D01*
X728960Y-1005560D01*
X725580Y-1000920D01*
X721660Y-996740D01*
X717240Y-993080D01*
X712420Y-990020D01*
X710639Y-989180D01*
G37*
G36*
X690420Y-977200D02*
G01*
X696280Y-976800D01*
X701780Y-975759D01*
X707220Y-974000D01*
X712420Y-971560D01*
X717240Y-968480D01*
X721660Y-964820D01*
X725580Y-960660D01*
X728960Y-956020D01*
X731720Y-951000D01*
X733820Y-945660D01*
X735240Y-940120D01*
X735960Y-934440D01*
X735960Y-928700D01*
X735240Y-923020D01*
X733820Y-917480D01*
X731720Y-912140D01*
X728960Y-907120D01*
X725580Y-902480D01*
X721660Y-898319D01*
X717240Y-894659D01*
X712420Y-891580D01*
X707220Y-889140D01*
X701780Y-887380D01*
X696140Y-886300D01*
X690420Y-885939D01*
X684720Y-886300D01*
X679080Y-887380D01*
X673640Y-889140D01*
X668439Y-891580D01*
X663620Y-894659D01*
X659200Y-898319D01*
X655280Y-902480D01*
X651900Y-907120D01*
X649140Y-912140D01*
X647039Y-917480D01*
X645620Y-923020D01*
X644900Y-928700D01*
X644900Y-934440D01*
X645620Y-940120D01*
X647039Y-945660D01*
X649140Y-951000D01*
X651900Y-956020D01*
X655280Y-960660D01*
X659200Y-964820D01*
X663620Y-968480D01*
X668439Y-971560D01*
X673640Y-974000D01*
X679080Y-975759D01*
X684720Y-976840D01*
G37*
G36*
X139780Y-972380D02*
G01*
X141560Y-971560D01*
X146380Y-968480D01*
X150800Y-964820D01*
X154720Y-960660D01*
X158100Y-956020D01*
X160420Y-951780D01*
X139780Y-951780D01*
G37*
G36*
X99360Y-972380D02*
G01*
X99360Y-951780D01*
X78720Y-951780D01*
X81039Y-956020D01*
X84420Y-960660D01*
X88340Y-964820D01*
X92760Y-968480D01*
X97579Y-971560D01*
G37*
G36*
X139780Y-911360D02*
G01*
X160420Y-911360D01*
X158100Y-907120D01*
X154720Y-902480D01*
X150800Y-898319D01*
X146380Y-894659D01*
X141560Y-891580D01*
X139780Y-890759D01*
G37*
G36*
X78720Y-911360D02*
G01*
X99360Y-911360D01*
X99360Y-890759D01*
X97579Y-891580D01*
X92760Y-894659D01*
X88340Y-898319D01*
X84420Y-902480D01*
X81039Y-907120D01*
G37*
G36*
X367720Y-863040D02*
G01*
X422600Y-863040D01*
X429159Y-862660D01*
X435500Y-861580D01*
X441680Y-859800D01*
X447640Y-857340D01*
X453280Y-854220D01*
X458540Y-850500D01*
X463340Y-846200D01*
X467620Y-841400D01*
X471360Y-836140D01*
X474460Y-830520D01*
X476940Y-824560D01*
X478720Y-818379D01*
X479799Y-812020D01*
X480160Y-805600D01*
X479799Y-799160D01*
X478720Y-792800D01*
X476940Y-786620D01*
X474460Y-780660D01*
X471360Y-775040D01*
X467620Y-769780D01*
X463340Y-764980D01*
X458540Y-760680D01*
X453280Y-756960D01*
X447640Y-753840D01*
X441680Y-751380D01*
X435500Y-749599D01*
X429159Y-748520D01*
X422600Y-748139D01*
X367720Y-748139D01*
X361180Y-748520D01*
X354820Y-749599D01*
X348640Y-751380D01*
X342680Y-753840D01*
X337040Y-756960D01*
X331780Y-760680D01*
X326980Y-764980D01*
X322700Y-769780D01*
X318960Y-775040D01*
X315860Y-780660D01*
X313380Y-786620D01*
X311600Y-792800D01*
X310520Y-799160D01*
X310160Y-805600D01*
X310520Y-812020D01*
X311600Y-818379D01*
X313380Y-824560D01*
X315860Y-830520D01*
X318960Y-836140D01*
X322700Y-841400D01*
X326980Y-846200D01*
X331780Y-850500D01*
X337040Y-854220D01*
X342680Y-857340D01*
X348640Y-859800D01*
X354820Y-861580D01*
X361180Y-862660D01*
G37*
G36*
X1568540Y-727580D02*
G01*
X1574400Y-727400D01*
X1580180Y-726500D01*
X1585820Y-724880D01*
X1591220Y-722600D01*
X1596279Y-719680D01*
X1600960Y-716140D01*
X1605180Y-712060D01*
X1608839Y-707500D01*
X1611940Y-702520D01*
X1614379Y-697200D01*
X1616160Y-691600D01*
X1617240Y-685840D01*
X1617600Y-680000D01*
X1617240Y-674160D01*
X1616160Y-668400D01*
X1614379Y-662800D01*
X1611940Y-657480D01*
X1608839Y-652500D01*
X1605180Y-647940D01*
X1600960Y-643860D01*
X1596279Y-640320D01*
X1591220Y-637400D01*
X1585820Y-635120D01*
X1580180Y-633500D01*
X1574400Y-632600D01*
X1568540Y-632420D01*
X1562700Y-632960D01*
X1556980Y-634220D01*
X1551440Y-636180D01*
X1546200Y-638780D01*
X1541320Y-642020D01*
X1536860Y-645840D01*
X1532920Y-650160D01*
X1529540Y-654940D01*
X1526759Y-660100D01*
X1524640Y-665580D01*
X1523220Y-671260D01*
X1522500Y-677080D01*
X1522500Y-682920D01*
X1523220Y-688740D01*
X1524640Y-694419D01*
X1526759Y-699900D01*
X1529540Y-705060D01*
X1532920Y-709840D01*
X1536860Y-714160D01*
X1541320Y-717980D01*
X1546200Y-721220D01*
X1551440Y-723820D01*
X1556980Y-725780D01*
X1562700Y-727039D01*
G37*
G36*
X241160Y-672620D02*
G01*
X246280Y-669680D01*
X250960Y-666140D01*
X255180Y-662060D01*
X258840Y-657500D01*
X261940Y-652520D01*
X262540Y-651200D01*
X241200Y-651200D01*
G37*
G36*
X198800Y-672520D02*
G01*
X198800Y-651200D01*
X177460Y-651200D01*
X179540Y-655060D01*
X182920Y-659840D01*
X186860Y-664160D01*
X191320Y-667980D01*
X196200Y-671220D01*
G37*
G36*
X177460Y-608800D02*
G01*
X198800Y-608800D01*
X198800Y-587480D01*
X196200Y-588780D01*
X191320Y-592020D01*
X186860Y-595840D01*
X182920Y-600160D01*
X179540Y-604940D01*
G37*
G36*
X241200Y-608800D02*
G01*
X262540Y-608800D01*
X261940Y-607480D01*
X258840Y-602500D01*
X255180Y-597940D01*
X250960Y-593860D01*
X246280Y-590320D01*
X241200Y-587380D01*
G37*
G36*
X890000Y-502180D02*
G01*
X893860Y-501840D01*
X897580Y-500840D01*
X901100Y-499219D01*
X904260Y-497000D01*
X907000Y-494260D01*
X909220Y-491100D01*
X910840Y-487580D01*
X911840Y-483860D01*
X912180Y-480000D01*
X911840Y-476140D01*
X910840Y-472420D01*
X909220Y-468900D01*
X907660Y-466680D01*
X904760Y-461800D01*
X904340Y-460820D01*
X904200Y-459760D01*
X904200Y-455200D01*
X903860Y-452060D01*
X902960Y-449240D01*
X901440Y-446620D01*
X899920Y-444840D01*
X855180Y-400100D01*
X852720Y-398100D01*
X850080Y-396760D01*
X847159Y-395980D01*
X844840Y-395800D01*
X777540Y-395800D01*
X776000Y-395500D01*
X774720Y-394620D01*
X740380Y-360280D01*
X739500Y-359000D01*
X739200Y-357460D01*
X739200Y-336200D01*
X739460Y-334799D01*
X740200Y-333560D01*
X756500Y-314980D01*
X759580Y-310480D01*
X762000Y-305700D01*
X763760Y-300620D01*
X764840Y-295360D01*
X765200Y-290000D01*
X764840Y-284640D01*
X763760Y-279380D01*
X762000Y-274300D01*
X759580Y-269520D01*
X756540Y-265100D01*
X752940Y-261100D01*
X748840Y-257640D01*
X744320Y-254760D01*
X739440Y-252500D01*
X734320Y-250900D01*
X729020Y-250020D01*
X723660Y-249840D01*
X718319Y-250360D01*
X713100Y-251620D01*
X708080Y-253540D01*
X703379Y-256119D01*
X699060Y-259300D01*
X695200Y-263040D01*
X691860Y-267260D01*
X689120Y-271880D01*
X687039Y-276820D01*
X685620Y-282000D01*
X684900Y-287320D01*
X684900Y-292680D01*
X685620Y-298000D01*
X687039Y-303180D01*
X689120Y-308120D01*
X691880Y-312760D01*
X694920Y-316680D01*
X709800Y-333560D01*
X710540Y-334799D01*
X710800Y-336200D01*
X710800Y-364799D01*
X711140Y-367939D01*
X712039Y-370760D01*
X713560Y-373380D01*
X715080Y-375160D01*
X759820Y-419900D01*
X762280Y-421900D01*
X764920Y-423240D01*
X767840Y-424020D01*
X770160Y-424200D01*
X837460Y-424200D01*
X839000Y-424500D01*
X840280Y-425379D01*
X873600Y-458680D01*
X874520Y-460140D01*
X874740Y-461880D01*
X874200Y-463540D01*
X872180Y-466940D01*
X870780Y-468900D01*
X869160Y-472420D01*
X868160Y-476140D01*
X867820Y-480000D01*
X868160Y-483860D01*
X869160Y-487580D01*
X870780Y-491100D01*
X873000Y-494260D01*
X875740Y-497000D01*
X878900Y-499219D01*
X882420Y-500840D01*
X886140Y-501840D01*
G37*
G36*
X500000Y-422180D02*
G01*
X503860Y-421840D01*
X507580Y-420840D01*
X511100Y-419219D01*
X513320Y-417660D01*
X518200Y-414760D01*
X519180Y-414340D01*
X520240Y-414200D01*
X609760Y-414200D01*
X610820Y-414340D01*
X611800Y-414760D01*
X616940Y-417819D01*
X618900Y-419219D01*
X622420Y-420840D01*
X626140Y-421840D01*
X630000Y-422180D01*
X633860Y-421840D01*
X637580Y-420840D01*
X641100Y-419219D01*
X644260Y-417000D01*
X647000Y-414260D01*
X649220Y-411100D01*
X650840Y-407580D01*
X651840Y-403860D01*
X652180Y-400000D01*
X651840Y-396140D01*
X650840Y-392420D01*
X649220Y-388900D01*
X647000Y-385740D01*
X644260Y-383000D01*
X641100Y-380780D01*
X637580Y-379159D01*
X633860Y-378160D01*
X630000Y-377819D01*
X626140Y-378160D01*
X622420Y-379159D01*
X618900Y-380780D01*
X616680Y-382340D01*
X611800Y-385240D01*
X610820Y-385660D01*
X609760Y-385800D01*
X520240Y-385800D01*
X519180Y-385660D01*
X518200Y-385240D01*
X513080Y-382180D01*
X511100Y-380780D01*
X507580Y-379159D01*
X503860Y-378160D01*
X500000Y-377819D01*
X496140Y-378160D01*
X492420Y-379159D01*
X488900Y-380780D01*
X485740Y-383000D01*
X483000Y-385740D01*
X480780Y-388900D01*
X479159Y-392420D01*
X478160Y-396140D01*
X477819Y-400000D01*
X478160Y-403860D01*
X479159Y-407580D01*
X480780Y-411100D01*
X483000Y-414260D01*
X485740Y-417000D01*
X488900Y-419219D01*
X492420Y-420840D01*
X496140Y-421840D01*
G37*
G36*
X1358240Y-400500D02*
G01*
X1360840Y-399219D01*
X1365380Y-396180D01*
X1369480Y-392580D01*
X1373080Y-388480D01*
X1376100Y-383960D01*
X1377380Y-381360D01*
X1358240Y-381360D01*
G37*
G36*
X1321759Y-400500D02*
G01*
X1321759Y-381360D01*
X1302620Y-381360D01*
X1303899Y-383960D01*
X1306920Y-388480D01*
X1310520Y-392580D01*
X1314620Y-396180D01*
X1319160Y-399219D01*
G37*
G36*
X1302620Y-344860D02*
G01*
X1321759Y-344860D01*
X1321759Y-327680D01*
X1322040Y-326200D01*
X1322860Y-324940D01*
X1324079Y-324060D01*
X1325540Y-323700D01*
X1327040Y-323900D01*
X1329220Y-324640D01*
X1334560Y-325700D01*
X1340000Y-326060D01*
X1345440Y-325700D01*
X1350780Y-324640D01*
X1352960Y-323900D01*
X1354460Y-323700D01*
X1355920Y-324060D01*
X1357140Y-324940D01*
X1357960Y-326200D01*
X1358240Y-327680D01*
X1358240Y-344860D01*
X1377380Y-344860D01*
X1376100Y-342260D01*
X1373080Y-337740D01*
X1369480Y-333640D01*
X1365380Y-330040D01*
X1360940Y-327060D01*
X1359820Y-325959D01*
X1359240Y-324520D01*
X1359240Y-322960D01*
X1359820Y-321520D01*
X1360940Y-320420D01*
X1365380Y-317440D01*
X1369480Y-313840D01*
X1373080Y-309740D01*
X1376100Y-305220D01*
X1378520Y-300320D01*
X1380260Y-295160D01*
X1381339Y-289820D01*
X1381680Y-284380D01*
X1381339Y-278920D01*
X1380260Y-273580D01*
X1378520Y-268420D01*
X1376100Y-263520D01*
X1373080Y-259000D01*
X1369480Y-254899D01*
X1365380Y-251300D01*
X1360940Y-248320D01*
X1359820Y-247220D01*
X1359240Y-245780D01*
X1359240Y-244220D01*
X1359820Y-242780D01*
X1360940Y-241680D01*
X1365380Y-238700D01*
X1369480Y-235100D01*
X1373080Y-231000D01*
X1376100Y-226480D01*
X1378520Y-221580D01*
X1380260Y-216420D01*
X1381339Y-211080D01*
X1381680Y-205640D01*
X1381339Y-200180D01*
X1380260Y-194840D01*
X1378520Y-189680D01*
X1376100Y-184780D01*
X1373080Y-180260D01*
X1369480Y-176160D01*
X1365380Y-172560D01*
X1360940Y-169579D01*
X1359820Y-168480D01*
X1359240Y-167040D01*
X1359240Y-165479D01*
X1359820Y-164040D01*
X1360940Y-162940D01*
X1365380Y-159960D01*
X1369480Y-156360D01*
X1373080Y-152260D01*
X1376100Y-147740D01*
X1378520Y-142840D01*
X1380260Y-137680D01*
X1381339Y-132340D01*
X1381680Y-126900D01*
X1381339Y-121440D01*
X1380260Y-116100D01*
X1378520Y-110940D01*
X1376100Y-106039D01*
X1373080Y-101519D01*
X1369480Y-97420D01*
X1365380Y-93820D01*
X1360840Y-90780D01*
X1355960Y-88379D01*
X1350780Y-86620D01*
X1345440Y-85559D01*
X1340000Y-85200D01*
X1334560Y-85559D01*
X1329220Y-86620D01*
X1324040Y-88379D01*
X1319160Y-90780D01*
X1314620Y-93820D01*
X1310520Y-97420D01*
X1306920Y-101519D01*
X1303899Y-106039D01*
X1301480Y-110940D01*
X1299740Y-116100D01*
X1299180Y-118880D01*
X1298500Y-120460D01*
X1297220Y-121600D01*
X1295580Y-122100D01*
X1293880Y-121860D01*
X1292420Y-120940D01*
X1240880Y-69400D01*
X1238440Y-67380D01*
X1235800Y-65980D01*
X1232960Y-65119D01*
X1229800Y-64800D01*
X680200Y-64800D01*
X677039Y-65119D01*
X674200Y-65980D01*
X671560Y-67380D01*
X669120Y-69400D01*
X614400Y-124120D01*
X612380Y-126560D01*
X610980Y-129200D01*
X610120Y-132040D01*
X609800Y-135200D01*
X609800Y-144020D01*
X609560Y-145380D01*
X608880Y-146580D01*
X594800Y-163460D01*
X591860Y-167260D01*
X589120Y-171880D01*
X587040Y-176820D01*
X585620Y-182000D01*
X584900Y-187320D01*
X584900Y-192680D01*
X585620Y-198000D01*
X587040Y-203180D01*
X589120Y-208120D01*
X591860Y-212740D01*
X595200Y-216960D01*
X599060Y-220700D01*
X603380Y-223880D01*
X608080Y-226460D01*
X613100Y-228380D01*
X618320Y-229640D01*
X623660Y-230159D01*
X629020Y-229980D01*
X634320Y-229100D01*
X639440Y-227500D01*
X644320Y-225240D01*
X648840Y-222360D01*
X652940Y-218900D01*
X656540Y-214899D01*
X659580Y-210479D01*
X662000Y-205700D01*
X663760Y-200620D01*
X664840Y-195360D01*
X665200Y-190000D01*
X664840Y-184640D01*
X663760Y-179380D01*
X662000Y-174300D01*
X659580Y-169520D01*
X656500Y-165020D01*
X641120Y-146580D01*
X640440Y-145380D01*
X640200Y-144020D01*
X640200Y-142960D01*
X640500Y-141420D01*
X641380Y-140120D01*
X685120Y-96380D01*
X686420Y-95500D01*
X687960Y-95200D01*
X753640Y-95200D01*
X755180Y-95500D01*
X756480Y-96380D01*
X757340Y-97660D01*
X757640Y-99200D01*
X757340Y-100740D01*
X756480Y-102020D01*
X714400Y-144120D01*
X712380Y-146560D01*
X711200Y-148780D01*
X710280Y-149920D01*
X701560Y-157460D01*
X699060Y-159300D01*
X695200Y-163039D01*
X691860Y-167260D01*
X689120Y-171880D01*
X687039Y-176820D01*
X685620Y-182000D01*
X684900Y-187320D01*
X684900Y-192680D01*
X685620Y-198000D01*
X687039Y-203180D01*
X689120Y-208120D01*
X691860Y-212740D01*
X695200Y-216960D01*
X699060Y-220700D01*
X703379Y-223880D01*
X708080Y-226460D01*
X713100Y-228380D01*
X718319Y-229640D01*
X723660Y-230159D01*
X729020Y-229980D01*
X734320Y-229100D01*
X739440Y-227500D01*
X744320Y-225240D01*
X748840Y-222360D01*
X752940Y-218900D01*
X756540Y-214899D01*
X759580Y-210479D01*
X762000Y-205700D01*
X763760Y-200620D01*
X764840Y-195360D01*
X765200Y-190000D01*
X764840Y-184640D01*
X763760Y-179380D01*
X762000Y-174300D01*
X759580Y-169520D01*
X756540Y-165100D01*
X752940Y-161100D01*
X749460Y-158160D01*
X748439Y-156880D01*
X748040Y-155280D01*
X748319Y-153660D01*
X749220Y-152280D01*
X780120Y-121380D01*
X781420Y-120500D01*
X782960Y-120200D01*
X1207040Y-120200D01*
X1208580Y-120500D01*
X1209880Y-121380D01*
X1248620Y-160120D01*
X1249500Y-161420D01*
X1249800Y-162960D01*
X1249800Y-209180D01*
X1250120Y-212340D01*
X1250980Y-215180D01*
X1252380Y-217800D01*
X1254400Y-220260D01*
X1295260Y-261119D01*
X1296060Y-262260D01*
X1296420Y-263620D01*
X1298660Y-289740D01*
X1299740Y-295160D01*
X1301480Y-300320D01*
X1303899Y-305220D01*
X1306920Y-309740D01*
X1310520Y-313840D01*
X1314620Y-317440D01*
X1319060Y-320420D01*
X1320180Y-321520D01*
X1320780Y-322960D01*
X1320780Y-324520D01*
X1320180Y-325959D01*
X1319060Y-327060D01*
X1314620Y-330040D01*
X1310520Y-333640D01*
X1306920Y-337740D01*
X1303899Y-342260D01*
G37*
G36*
X1568540Y-327580D02*
G01*
X1574400Y-327400D01*
X1580180Y-326500D01*
X1585820Y-324880D01*
X1591220Y-322600D01*
X1596279Y-319680D01*
X1600960Y-316140D01*
X1605180Y-312060D01*
X1608839Y-307500D01*
X1611940Y-302520D01*
X1614379Y-297200D01*
X1616160Y-291600D01*
X1617240Y-285840D01*
X1617600Y-280000D01*
X1617240Y-274160D01*
X1616160Y-268400D01*
X1614379Y-262800D01*
X1611940Y-257480D01*
X1608839Y-252500D01*
X1605180Y-247940D01*
X1600960Y-243860D01*
X1596279Y-240320D01*
X1591220Y-237399D01*
X1585820Y-235120D01*
X1580180Y-233500D01*
X1574400Y-232600D01*
X1568540Y-232420D01*
X1562700Y-232960D01*
X1556980Y-234220D01*
X1551440Y-236180D01*
X1546200Y-238780D01*
X1541320Y-242020D01*
X1536860Y-245840D01*
X1532920Y-250159D01*
X1529540Y-254940D01*
X1526759Y-260100D01*
X1524640Y-265580D01*
X1523220Y-271260D01*
X1522500Y-277080D01*
X1522500Y-282920D01*
X1523220Y-288740D01*
X1524640Y-294420D01*
X1526759Y-299900D01*
X1529540Y-305060D01*
X1532920Y-309840D01*
X1536860Y-314160D01*
X1541320Y-317980D01*
X1546200Y-321220D01*
X1551440Y-323820D01*
X1556980Y-325780D01*
X1562700Y-327040D01*
G37*
G36*
X607500Y-326140D02*
G01*
X607500Y-307500D01*
X588860Y-307500D01*
X589120Y-308120D01*
X591860Y-312740D01*
X595200Y-316960D01*
X599060Y-320700D01*
X603380Y-323880D01*
G37*
G36*
X642500Y-326079D02*
G01*
X644320Y-325240D01*
X648840Y-322360D01*
X652940Y-318900D01*
X656540Y-314900D01*
X659580Y-310480D01*
X661080Y-307500D01*
X642500Y-307500D01*
G37*
G36*
X642500Y-272500D02*
G01*
X661080Y-272500D01*
X659580Y-269520D01*
X656540Y-265100D01*
X652940Y-261100D01*
X648840Y-257640D01*
X644320Y-254760D01*
X642500Y-253920D01*
G37*
G36*
X588860Y-272500D02*
G01*
X607500Y-272500D01*
X607500Y-253860D01*
X603380Y-256119D01*
X599060Y-259300D01*
X595200Y-263040D01*
X591860Y-267260D01*
X589120Y-271880D01*
G37*
G36*
X1165160Y-247440D02*
G01*
X1171600Y-247079D01*
X1177940Y-246000D01*
X1184140Y-244220D01*
X1190080Y-241740D01*
X1195720Y-238640D01*
X1200980Y-234899D01*
X1205780Y-230620D01*
X1210060Y-225820D01*
X1213800Y-220560D01*
X1216900Y-214920D01*
X1219380Y-208980D01*
X1221160Y-202780D01*
X1222240Y-196439D01*
X1222600Y-190000D01*
X1222240Y-183560D01*
X1221160Y-177220D01*
X1219380Y-171020D01*
X1216900Y-165080D01*
X1213800Y-159440D01*
X1210060Y-154180D01*
X1205780Y-149380D01*
X1200980Y-145100D01*
X1195720Y-141360D01*
X1190080Y-138260D01*
X1184140Y-135780D01*
X1177940Y-134000D01*
X1171600Y-132920D01*
X1165160Y-132560D01*
X1158720Y-132920D01*
X1152380Y-134000D01*
X1146180Y-135780D01*
X1140240Y-138260D01*
X1134600Y-141360D01*
X1129340Y-145100D01*
X1124540Y-149380D01*
X1120260Y-154180D01*
X1116520Y-159440D01*
X1113420Y-165080D01*
X1110940Y-171020D01*
X1109160Y-177220D01*
X1108080Y-183560D01*
X1107720Y-190000D01*
X1108080Y-196439D01*
X1109160Y-202780D01*
X1110940Y-208980D01*
X1113420Y-214920D01*
X1116520Y-220560D01*
X1120260Y-225820D01*
X1124540Y-230620D01*
X1129340Y-234899D01*
X1134600Y-238640D01*
X1140240Y-241740D01*
X1146180Y-244220D01*
X1152380Y-246000D01*
X1158720Y-247079D01*
G37*
G36*
X484840Y-247440D02*
G01*
X491280Y-247079D01*
X497620Y-246000D01*
X503820Y-244220D01*
X509760Y-241740D01*
X515400Y-238640D01*
X520660Y-234899D01*
X525460Y-230620D01*
X529740Y-225820D01*
X533480Y-220560D01*
X536580Y-214920D01*
X539060Y-208980D01*
X540840Y-202780D01*
X541920Y-196439D01*
X542280Y-190000D01*
X541920Y-183560D01*
X540840Y-177220D01*
X539060Y-171020D01*
X536580Y-165080D01*
X533480Y-159440D01*
X529740Y-154180D01*
X525460Y-149380D01*
X520660Y-145100D01*
X515400Y-141360D01*
X509760Y-138260D01*
X503820Y-135780D01*
X497620Y-134000D01*
X491280Y-132920D01*
X484840Y-132560D01*
X478400Y-132920D01*
X472060Y-134000D01*
X465860Y-135780D01*
X459920Y-138260D01*
X454280Y-141360D01*
X449020Y-145100D01*
X444219Y-149380D01*
X439940Y-154180D01*
X436200Y-159440D01*
X433100Y-165080D01*
X430620Y-171020D01*
X428840Y-177220D01*
X427760Y-183560D01*
X427400Y-190000D01*
X427760Y-196439D01*
X428840Y-202780D01*
X430620Y-208980D01*
X433100Y-214920D01*
X436200Y-220560D01*
X439940Y-225820D01*
X444219Y-230620D01*
X449020Y-234899D01*
X454280Y-238640D01*
X459920Y-241740D01*
X465860Y-244220D01*
X472060Y-246000D01*
X478400Y-247079D01*
G37*
G36*
X1545000Y-155200D02*
G01*
X1551060Y-154820D01*
X1557020Y-153740D01*
X1562800Y-151940D01*
X1568320Y-149440D01*
X1573520Y-146300D01*
X1578280Y-142560D01*
X1582560Y-138280D01*
X1586300Y-133520D01*
X1589440Y-128320D01*
X1591940Y-122800D01*
X1593740Y-117020D01*
X1594820Y-111060D01*
X1595200Y-105000D01*
X1594820Y-98940D01*
X1593740Y-92980D01*
X1591940Y-87200D01*
X1589440Y-81679D01*
X1586300Y-76480D01*
X1582560Y-71720D01*
X1578280Y-67440D01*
X1573520Y-63700D01*
X1568320Y-60560D01*
X1562800Y-58060D01*
X1557020Y-56260D01*
X1551060Y-55180D01*
X1545000Y-54800D01*
X1538940Y-55180D01*
X1532980Y-56260D01*
X1527200Y-58060D01*
X1521680Y-60560D01*
X1516480Y-63700D01*
X1511720Y-67440D01*
X1507440Y-71720D01*
X1503700Y-76480D01*
X1500560Y-81679D01*
X1498060Y-87200D01*
X1496260Y-92980D01*
X1495180Y-98940D01*
X1494800Y-105000D01*
X1495180Y-111060D01*
X1496260Y-117020D01*
X1498060Y-122800D01*
X1500560Y-128320D01*
X1503700Y-133520D01*
X1507440Y-138280D01*
X1511720Y-142560D01*
X1516480Y-146300D01*
X1521680Y-149440D01*
X1527200Y-151940D01*
X1532980Y-153740D01*
X1538940Y-154820D01*
G37*
G36*
X105000Y-155200D02*
G01*
X111060Y-154820D01*
X117020Y-153740D01*
X122800Y-151940D01*
X128320Y-149440D01*
X133520Y-146300D01*
X138280Y-142560D01*
X142560Y-138280D01*
X146300Y-133520D01*
X149440Y-128320D01*
X151940Y-122800D01*
X153740Y-117020D01*
X154820Y-111060D01*
X155200Y-105000D01*
X154820Y-98940D01*
X153740Y-92980D01*
X151940Y-87200D01*
X149440Y-81679D01*
X146300Y-76480D01*
X142560Y-71720D01*
X138280Y-67440D01*
X133520Y-63700D01*
X128320Y-60560D01*
X122800Y-58060D01*
X117020Y-56260D01*
X111060Y-55180D01*
X105000Y-54800D01*
X98940Y-55180D01*
X92980Y-56260D01*
X87200Y-58060D01*
X81679Y-60560D01*
X76480Y-63700D01*
X71720Y-67440D01*
X67440Y-71720D01*
X63700Y-76480D01*
X60560Y-81679D01*
X58060Y-87200D01*
X56260Y-92980D01*
X55180Y-98940D01*
X54800Y-105000D01*
X55180Y-111060D01*
X56260Y-117020D01*
X58060Y-122800D01*
X60560Y-128320D01*
X63700Y-133520D01*
X67440Y-138280D01*
X71720Y-142560D01*
X76480Y-146300D01*
X81679Y-149440D01*
X87200Y-151940D01*
X92980Y-153740D01*
X98940Y-154820D01*
G37*

%LPD*%
G36*
X1329180Y-176060D02*
G01*
X1302040Y-184960D01*
X1298060Y-195140D01*
X1312000Y-220060D01*
G37*
G36*
X1313220Y-250520D02*
G01*
X1306140Y-257580D01*
X1308560Y-286340D01*
X1341980Y-252940D01*
G37*
G36*
X244740Y-501940D02*
G01*
X244740Y-558060D01*
X270920Y-542000D01*
X270920Y-518000D01*
G37*
G36*
X1002500Y-309840D02*
G01*
X1013000Y-330840D01*
X1037000Y-330840D01*
X1047500Y-309840D01*
G37*
G36*
X954940Y-188120D02*
G01*
X923120Y-219940D01*
X951060Y-221700D01*
X956700Y-216060D01*
G37*
G36*
X854940Y-188120D02*
G01*
X823120Y-219940D01*
X851060Y-221700D01*
X856700Y-216060D01*
G37*
G36*
X702500Y-309840D02*
G01*
X721000Y-330840D01*
X729000Y-330840D01*
X747500Y-309840D01*
G37*
G36*
X720000Y-155000D02*
G01*
X702500Y-170159D01*
X747500Y-170159D01*
X730000Y-155000D01*
G37*
G36*
X620000Y-149160D02*
G01*
X602500Y-170159D01*
X647500Y-170159D01*
X630000Y-149160D01*
G37*
G36*
X923000Y-970580D02*
G01*
X923860Y-979680D01*
X941000Y-985200D01*
X947000Y-978300D01*
G37*
G36*
X721340Y-553000D02*
G01*
X712940Y-556000D01*
X712940Y-574000D01*
X721340Y-577000D01*
G37*
G36*
X688660Y-553000D02*
G01*
X688660Y-577000D01*
X697060Y-574000D01*
X697060Y-556000D01*
G37*
G36*
X1271000Y-468660D02*
G01*
X1266000Y-477060D01*
X1284000Y-477060D01*
X1279000Y-468660D01*
G37*
G36*
X1166940Y-634960D02*
G01*
X1149960Y-651940D01*
X1158020Y-655759D01*
X1170760Y-643020D01*
G37*
G36*
X943720Y-1255620D02*
G01*
X934240Y-1258020D01*
X946979Y-1270760D01*
X949380Y-1261280D01*
G37*
G36*
X931000Y-498660D02*
G01*
X926000Y-507060D01*
X944000Y-507060D01*
X939000Y-498660D01*
G37*
G36*
X886000Y-463660D02*
G01*
X881000Y-472060D01*
X899000Y-472060D01*
X894000Y-463660D01*
G37*
G36*
X1001000Y-797940D02*
G01*
X1006000Y-806340D01*
X1014000Y-806340D01*
X1019000Y-797940D01*
G37*
G36*
X622060Y-391000D02*
G01*
X613660Y-396000D01*
X613660Y-404000D01*
X622060Y-409000D01*
G37*
G36*
X507939Y-391000D02*
G01*
X507939Y-409000D01*
X516340Y-404000D01*
X516340Y-396000D01*
G37*
D10*
X725000Y-190000D02*
G01*
X725000Y-155000D01*
X775000Y-105000D01*
X1215000Y-105000D01*
X1265000Y-155000D01*
X1265000Y-209369D01*
X1340000Y-284369D01*
X625000Y-190000D02*
G01*
X625000Y-135000D01*
X680000Y-80000D01*
X1230000Y-80000D01*
X1290000Y-140000D01*
X1290000Y-180000D01*
X1315630Y-205630D01*
X1340000Y-205630D01*
D13*
X1025000Y-290000D02*
G01*
X1025000Y-510000D01*
X1170000Y-655000D01*
X705000Y-565000D02*
G01*
X970000Y-565000D01*
X1025000Y-510000D01*
X215000Y-530000D02*
G01*
X505000Y-530000D01*
X540000Y-565000D01*
X705000Y-565000D01*
X970000Y-565000D02*
G01*
X970000Y-825000D01*
X935000Y-860000D01*
X935000Y-985000D01*
X930000Y-990000D01*
D12*
X825000Y-190000D02*
G01*
X870000Y-235000D01*
X870000Y-370000D01*
X935000Y-435000D01*
X935000Y-515000D01*
X725000Y-290000D02*
G01*
X725000Y-365000D01*
X770000Y-410000D01*
X845000Y-410000D01*
X890000Y-455000D01*
X890000Y-480000D01*
X935000Y-1270000D02*
G01*
X1010000Y-1195000D01*
X1010000Y-790000D01*
X630000Y-400000D02*
G01*
X500000Y-400000D01*
X925000Y-190000D02*
G01*
X975000Y-240000D01*
X1050000Y-240000D01*
X1275000Y-465000D01*
X1275000Y-485000D01*
D16*
G01*
X1340000Y-205630D03*
G01*
X1340000Y-126889D03*
G01*
X1340000Y-284369D03*
G01*
X1340000Y-363110D03*
D17*
G01*
X220000Y-330000D03*
G01*
X220000Y-430000D03*
G01*
X220000Y-530000D03*
G01*
X220000Y-630000D03*
G01*
X1570000Y-280000D03*
G01*
X1570000Y-680000D03*
D18*
G01*
X119569Y-1128420D03*
G01*
X119569Y-931570D03*
G01*
X690429Y-1128420D03*
G01*
X690429Y-1030000D03*
G01*
X690429Y-931570D03*
D19*
G01*
X1025000Y-290000D03*
G01*
X1025000Y-190000D03*
G01*
X925000Y-290000D03*
G01*
X925000Y-190000D03*
G01*
X825000Y-290000D03*
G01*
X825000Y-190000D03*
G01*
X725000Y-290000D03*
G01*
X725000Y-190000D03*
G01*
X625000Y-290000D03*
G01*
X625000Y-190000D03*
D13*
G01*
X930000Y-990000D03*
G01*
X705000Y-565000D03*
G01*
X1275000Y-485000D03*
G01*
X1170000Y-655000D03*
G01*
X935000Y-1270000D03*
G01*
X935000Y-515000D03*
G01*
X890000Y-480000D03*
G01*
X1010000Y-790000D03*
G01*
X630000Y-400000D03*
G01*
X500000Y-400000D03*
D20*
X367601Y-1254409D02*
G01*
X422718Y-1254409D01*
X367601Y-805590D02*
G01*
X422718Y-805590D01*
M02*
