G04 Layer: TopPasteMaskLayer*
G04 EasyEDA v6.4.25, 2021-09-30T02:39:23--7:00*
G04 cb1d7dd1d9244e3faa1512210410d729,1c607ed5ed934db7a0414c4b005609ca,10*
G04 Gerber Generator version 0.2*
G04 Scale: 100 percent, Rotated: No, Reflected: No *
G04 Dimensions in inches *
G04 leading zeros omitted , absolute positions ,3 integer and 6 decimal *
%FSLAX36Y36*%
%MOIN*%

%ADD14R,0.0457X0.0571*%
%ADD15R,0.0787X0.0512*%

%LPD*%
D14*
G01*
X1370010Y-560010D03*
G01*
X1290010Y-560010D03*
G01*
X865000Y-840000D03*
G01*
X785000Y-840000D03*
G01*
X865010Y-1315010D03*
G01*
X785010Y-1315010D03*
G01*
X675010Y-660010D03*
G01*
X595010Y-660010D03*
G01*
X1370000Y-655000D03*
G01*
X1290000Y-655000D03*
G01*
X835000Y-565000D03*
G01*
X755000Y-565000D03*
G36*
X762165Y-1001457D02*
G01*
X807834Y-1001457D01*
X807834Y-1058542D01*
X762165Y-1058542D01*
G37*
G36*
X842165Y-1001457D02*
G01*
X887834Y-1001457D01*
X887834Y-1058542D01*
X842165Y-1058542D01*
G37*
G36*
X762165Y-1096457D02*
G01*
X807834Y-1096457D01*
X807834Y-1153542D01*
X762165Y-1153542D01*
G37*
G36*
X842165Y-1096457D02*
G01*
X887834Y-1096457D01*
X887834Y-1153542D01*
X842165Y-1153542D01*
G37*
G36*
X732165Y-631457D02*
G01*
X777834Y-631457D01*
X777834Y-688542D01*
X732165Y-688542D01*
G37*
G36*
X812165Y-631457D02*
G01*
X857834Y-631457D01*
X857834Y-688542D01*
X812165Y-688542D01*
G37*
G36*
X1427165Y-531457D02*
G01*
X1472834Y-531457D01*
X1472834Y-588542D01*
X1427165Y-588542D01*
G37*
G36*
X1507165Y-531457D02*
G01*
X1552834Y-531457D01*
X1552834Y-588542D01*
X1507165Y-588542D01*
G37*
G01*
X865000Y-1220000D03*
G01*
X785000Y-1220000D03*
G36*
X762165Y-906457D02*
G01*
X807834Y-906457D01*
X807834Y-963542D01*
X762165Y-963542D01*
G37*
G36*
X842165Y-906457D02*
G01*
X887834Y-906457D01*
X887834Y-963542D01*
X842165Y-963542D01*
G37*
D15*
G01*
X1550590Y-1130000D03*
G01*
X999409Y-1130000D03*
G01*
X1550590Y-930000D03*
G01*
X999409Y-930000D03*
M02*
