G04 Layer: TopSolderMaskLayer*
G04 EasyEDA v6.4.25, 2021-09-30T02:39:23--7:00*
G04 cb1d7dd1d9244e3faa1512210410d729,1c607ed5ed934db7a0414c4b005609ca,10*
G04 Gerber Generator version 0.2*
G04 Scale: 100 percent, Rotated: No, Reflected: No *
G04 Dimensions in inches *
G04 leading zeros omitted , absolute positions ,3 integer and 6 decimal *
%FSLAX36Y36*%
%MOIN*%

%ADD23C,0.1025*%
%ADD24C,0.0670*%
%ADD25C,0.0828*%
%ADD27C,0.0789*%
%ADD29C,0.0640*%

%LPD*%
D23*
X367601Y-1254409D02*
G01*
X422718Y-1254409D01*
X367601Y-805590D02*
G01*
X422718Y-805590D01*
D24*
G01*
X1340000Y-205630D03*
G01*
X1340000Y-126889D03*
G01*
X1340000Y-284369D03*
G01*
X1340000Y-363110D03*
D25*
G01*
X220000Y-330000D03*
G01*
X220000Y-430000D03*
G01*
X220000Y-530000D03*
G01*
X220000Y-630000D03*
G01*
X1570000Y-280000D03*
G01*
X1570000Y-680000D03*
G36*
X1343199Y-592600D02*
G01*
X1343199Y-527500D01*
X1396800Y-527500D01*
X1396800Y-592600D01*
G37*
G36*
X1263199Y-592600D02*
G01*
X1263199Y-527500D01*
X1316800Y-527500D01*
X1316800Y-592600D01*
G37*
G36*
X838199Y-872500D02*
G01*
X838199Y-807500D01*
X891800Y-807500D01*
X891800Y-872500D01*
G37*
G36*
X758199Y-872500D02*
G01*
X758199Y-807500D01*
X811800Y-807500D01*
X811800Y-872500D01*
G37*
G36*
X838199Y-1347600D02*
G01*
X838199Y-1282500D01*
X891800Y-1282500D01*
X891800Y-1347600D01*
G37*
G36*
X758199Y-1347600D02*
G01*
X758199Y-1282500D01*
X811800Y-1282500D01*
X811800Y-1347600D01*
G37*
G36*
X648199Y-692600D02*
G01*
X648199Y-627500D01*
X701800Y-627500D01*
X701800Y-692600D01*
G37*
G36*
X568199Y-692600D02*
G01*
X568199Y-627500D01*
X621800Y-627500D01*
X621800Y-692600D01*
G37*
G36*
X1343199Y-687500D02*
G01*
X1343199Y-622500D01*
X1396800Y-622500D01*
X1396800Y-687500D01*
G37*
G36*
X1263199Y-687500D02*
G01*
X1263199Y-622500D01*
X1316800Y-622500D01*
X1316800Y-687500D01*
G37*
G36*
X808199Y-597500D02*
G01*
X808199Y-532500D01*
X861800Y-532500D01*
X861800Y-597500D01*
G37*
G36*
X728199Y-597500D02*
G01*
X728199Y-532500D01*
X781800Y-532500D01*
X781800Y-597500D01*
G37*
G36*
X758199Y-1062500D02*
G01*
X758199Y-997500D01*
X811800Y-997500D01*
X811800Y-1062500D01*
G37*
G36*
X838199Y-1062500D02*
G01*
X838199Y-997500D01*
X891800Y-997500D01*
X891800Y-1062500D01*
G37*
G36*
X758199Y-1157500D02*
G01*
X758199Y-1092500D01*
X811800Y-1092500D01*
X811800Y-1157500D01*
G37*
G36*
X838199Y-1157500D02*
G01*
X838199Y-1092500D01*
X891800Y-1092500D01*
X891800Y-1157500D01*
G37*
G36*
X728199Y-692500D02*
G01*
X728199Y-627500D01*
X781800Y-627500D01*
X781800Y-692500D01*
G37*
G36*
X808199Y-692500D02*
G01*
X808199Y-627500D01*
X861800Y-627500D01*
X861800Y-692500D01*
G37*
G36*
X1423199Y-592500D02*
G01*
X1423199Y-527500D01*
X1476800Y-527500D01*
X1476800Y-592500D01*
G37*
G36*
X1503199Y-592500D02*
G01*
X1503199Y-527500D01*
X1556800Y-527500D01*
X1556800Y-592500D01*
G37*
G36*
X838199Y-1252500D02*
G01*
X838199Y-1187500D01*
X891800Y-1187500D01*
X891800Y-1252500D01*
G37*
G36*
X758199Y-1252500D02*
G01*
X758199Y-1187500D01*
X811800Y-1187500D01*
X811800Y-1252500D01*
G37*
G36*
X758199Y-967500D02*
G01*
X758199Y-902500D01*
X811800Y-902500D01*
X811800Y-967500D01*
G37*
G36*
X838199Y-967500D02*
G01*
X838199Y-902500D01*
X891800Y-902500D01*
X891800Y-967500D01*
G37*
D27*
G01*
X119569Y-1128420D03*
G01*
X119569Y-931570D03*
G01*
X690429Y-1128420D03*
G01*
X690429Y-1030000D03*
G01*
X690429Y-931570D03*
G36*
X1507200Y-1159600D02*
G01*
X1507200Y-1100399D01*
X1593999Y-1100399D01*
X1593999Y-1159600D01*
G37*
G36*
X956000Y-1159600D02*
G01*
X956000Y-1100399D01*
X1042799Y-1100399D01*
X1042799Y-1159600D01*
G37*
G36*
X1507200Y-959600D02*
G01*
X1507200Y-900399D01*
X1593999Y-900399D01*
X1593999Y-959600D01*
G37*
G36*
X956000Y-959600D02*
G01*
X956000Y-900399D01*
X1042799Y-900399D01*
X1042799Y-959600D01*
G37*
D29*
G01*
X1025000Y-290000D03*
G01*
X1025000Y-190000D03*
G01*
X925000Y-290000D03*
G01*
X925000Y-190000D03*
G01*
X825000Y-290000D03*
G01*
X825000Y-190000D03*
G01*
X725000Y-290000D03*
G01*
X725000Y-190000D03*
G01*
X625000Y-290000D03*
G01*
X625000Y-190000D03*
M02*
