M48
INCH,LZ
;FILE_FORMAT=2:4
;TYPE=PLATED
;Layer: Drill PTH
;EasyEDA v6.4.25, 2021-10-06T12:16:30--7:00
;a282bae9c12645559e41785c4bbbd80e,1c607ed5ed934db7a0414c4b005609ca,10
;Gerber Generator version 0.2
;Holesize 1 = 0.0120 inch
T01C0.0120
;Holesize 2 = 0.0160 inch
T02C0.0160
;Holesize 3 = 0.0240 inch
T03C0.0240
;Holesize 4 = 0.0350 inch
T04C0.0350
;Holesize 5 = 0.0360 inch
T05C0.0360
;Holesize 6 = 0.0390 inch
T06C0.0390
;Holesize 7 = 0.0420 inch
T07C0.0420
;Holesize 8 = 0.0470 inch
T08C0.0470
;Holesize 9 = 0.0510 inch
T09C0.0510
;Holesize 10 = 0.0550 inch
T10C0.0550
;Holesize 11 = 0.0680 inch
T11C0.0680
%
G05
G90
T01
X016100Y-005150
X013700Y-006150
X023200Y-002550
X023700Y-003250
X015150Y-012150
X015150Y-012450
X014850Y-012150
X014850Y-012450
X014550Y-012150
X014550Y-012450
X016600Y-012750
X016900Y-012750
X016600Y-013050
X016900Y-013050
X007500Y-009500
X007800Y-009500
X008100Y-009500
X008400Y-009500
X008700Y-009500
X009000Y-009500
X007500Y-009800
X007800Y-009800
X008100Y-009800
X008400Y-009800
X008700Y-009800
X009000Y-009800
X007100Y-008750
X007100Y-009050
X009400Y-008750
X009400Y-009050
X009400Y-009350
X007100Y-009350
X007100Y-008450
X009400Y-008450
X006800Y-009050
X006800Y-008750
X006800Y-008450
X009700Y-008450
X009700Y-008750
X009700Y-009050
X009700Y-009350
X007500Y-008250
X007800Y-008250
X008100Y-008250
X009000Y-008250
X008400Y-008250
X008700Y-008250
X027600Y-001300
X016100Y-011700
X016100Y-011400
X007500Y-010100
X007800Y-010100
X008100Y-010100
X008400Y-010100
X008700Y-010100
X009000Y-010100
X014250Y-012450
X014250Y-012150
X004900Y-009050
X005200Y-009050
X005500Y-009050
X018250Y-013200
X013950Y-012600
X015650Y-013150
X015950Y-013150
X015950Y-012900
X015850Y-014400
X016150Y-014400
X016450Y-014400
X016150Y-012700
X008950Y-004450
X009200Y-004450
X009450Y-004450
X009700Y-004450
X009950Y-004450
X008950Y-004700
X009200Y-004700
X009450Y-004700
X009700Y-004700
X009950Y-004700
X008950Y-004950
X009200Y-004950
X009450Y-004950
X009700Y-004950
X009950Y-004950
X011150Y-004100
X022000Y-001950
X009950Y-004100
X009700Y-004100
X009700Y-003850
X009700Y-003600
X008700Y-004950
X008700Y-004700
X008700Y-004450
X005800Y-009050
X019450Y-014350
X017450Y-010300
X024050Y-007150
X024050Y-004750
X021200Y-012100
X020850Y-012100
X022550Y-010600
X024650Y-004250
X024850Y-005250
X027574Y-005048
X022550Y-003750
X021950Y-013500
X021400Y-013500
X020970Y-013760
X020750Y-013300
X025550Y-011000
X023100Y-008500
X021620Y-013860
X026450Y-012000
X015700Y-007100
X021950Y-004350
X016150Y-006200
X026900Y-016950
X025750Y-016900
X021900Y-009400
X021900Y-009950
X025680Y-009830
X028750Y-010500
X022060Y-012540
X023400Y-009400
X024850Y-009400
X021250Y-015200
X026300Y-013500
X024750Y-014000
X025250Y-014600
X025250Y-013050
X026390Y-011450
X024850Y-008850
X024850Y-007950
X026400Y-007950
X019593Y-008050
X019857Y-008050
X020121Y-008050
X020386Y-008050
X020650Y-008050
X019610Y-009950
X019870Y-009950
X020130Y-009950
X020390Y-009950
X020650Y-009950
X020650Y-008683
X020650Y-009000
X020650Y-009317
X016100Y-011100
X015800Y-011100
X015500Y-011100
X015500Y-010800
X015800Y-010800
X016100Y-010800
X015500Y-010500
X015800Y-010500
X015800Y-010200
X015500Y-010200
X018900Y-013700
X018900Y-011000
X015487Y-009900
X015500Y-009600
X015500Y-009300
X015500Y-009000
X015500Y-008700
X016500Y-006750
X022600Y-001050
X021000Y-003750
X024600Y-003250
X020650Y-008367
X020650Y-009633
X019329Y-008050
X019064Y-008050
X018800Y-008050
X025250Y-011900
X023170Y-012690
X015450Y-017100
X016400Y-017100
X017350Y-017100
X025350Y-013700
X025750Y-012486
X025750Y-013246
X021620Y-011660
X019000Y-016900
T02
X004250Y-013450
X004250Y-015300
X006700Y-013450
X006700Y-015300
X006700Y-014930
X006700Y-014560
X006700Y-014190
X004250Y-014930
X004250Y-014560
X004250Y-014190
X004250Y-013820
X006700Y-013820
X011700Y-012550
T03
X003600Y-006200
X003600Y-006750
X003600Y-007300
X006000Y-006850
X005600Y-007250
X005150Y-007650
X008100Y-003850
X008100Y-004950
X008100Y-005500
X005950Y-003550
X002750Y-012300
X002750Y-011750
X008100Y-004400
X008100Y-006050
X001800Y-010550
X002350Y-010550
X002750Y-011200
T04
X021657Y-016200
X022444Y-016200
X023231Y-016200
X024019Y-016200
X024806Y-016200
X025594Y-016200
X026381Y-016200
X027169Y-016200
X027956Y-016200
X028743Y-016200
T05
X026950Y-009500
X027950Y-009500
X026950Y-010500
X027950Y-010500
X026950Y-011500
X027950Y-011500
X026950Y-012500
X027950Y-012500
X026950Y-013500
X027950Y-013500
T06
X028400Y-005831
X028400Y-006618
X028400Y-005044
X028400Y-004256
X028400Y-003469
X028400Y-002681
X011000Y-009511
X011000Y-010889
X009400Y-014000
X011400Y-014000
X002600Y-006350
X004600Y-006350
X006850Y-006350
X008850Y-006350
T07
X008550Y-001950
X007550Y-001950
X006550Y-001950
T08
X018758Y-004652
X017742Y-004648
X019758Y-004652
X010600Y-006950
X020200Y-006950
T09
X014200Y-016450
X011800Y-016450
T10
X011900Y-001950
X013900Y-001950
X012900Y-001950
X016450Y-001950
X018450Y-001950
X017450Y-001950
T11
X001850Y-004050
X001850Y-002050
X001750Y-009050
X001750Y-011550
M30
